<svg enable-background="new 0 0 668.8 499.4" viewBox="0 0 668.8 499.4" xmlns="http://www.w3.org/2000/svg"><path d="m642.3 440.6c3.5 1.6 6.4 4.9 6.3 8.7-.1 3.4-2.5 6.2-4.8 8.8-.5.7-1.2 1.2-1.9 1.7-1.4.8-3.1.5-4.7.4-5.3-.7-10.7-1-15.9.1-2.4.7-4.9 1.2-7.4 1.5-4.5.3-8.8-1.5-13.2-2.2s-8.8-.3-13.3-.2-9-.3-12.9-2.5l-.3-.2c-3.8-2.2-6.6-6.3-6.2-10.6s.7-6.3 6.4-6.3l.1-.3.7.1c5.6-2.3 11.9-2.2 18-2l16.9.5 21.1.7c.9 0 1.9.1 2.9.1 2.8.1 5.6.7 8.2 1.7z" fill="#f0785e"/><path d="m605.3 345.3c6 3 10.7 8.1 14.4 13.7 3.8 5.8 7.1 13.2 10.6 19.2-2.4-1.4-5.1.3-6.3 1.7-1.9 2.2-2.4 5.2-2.7 8-.8 6.6-.9 13.3-.3 20 0 1.7.5 3.3 1.3 4.7 1 1.3 3 2 4.3 1.1s1.4-2.6 1.6-4.3c1.6.2 3.2-1.7 4-3.4 1-2.1 1.9-4.3 2.5-6.5h.9c1.3 8.4 3.7 20.8 4 29.5-.3 3.3-.7 6.6-1.3 9.9l-4.3.1c-1 0-1.9-.1-2.9-.1l-21.1-.7v-.9c0-2.5.4-5.1 1.1-7.5 1.7-.2 3.1-1.4 3.5-3.1.5-2-.1-4-.7-6-.3-1-1.1-2.3-2.1-1.9.7-6.1 1.7-14 1.6-20.2-.1-8.2-1.7-16.3-3.3-24.3-2-9.9-3.9-19.8-5.9-29.7.4.3.8.5 1.1.7z" fill="#fbc94a"/><path d="m628.3 409.4c-.3 0-.5-.1-.7-.3-.8-.7-1.3-1.7-1.4-2.8-1.3-8.4-.5-17 2.2-25.1l.8-.6c1.9.9 3.5 2.4 4.5 4.2 1.4 2.3 2.1 4.9 2.2 7.5 0 2.4-.4 4.8-1.1 7.2-.7 2.2-1.5 4.4-2.5 6.5-.8 1.7-2.4 3.6-4 3.4z" fill="#f0785e"/><path d="m624 379.9c1.2-1.4 3.9-3.1 6.3-1.7 1.4.8 2.7 2.8 3.4 6.6-1.1-1.8-2.7-3.3-4.5-4.2l-.8.6c-2.7 8.1-3.5 16.7-2.2 25.1 0 1.1.5 2.1 1.4 2.8.2.1.5.2.7.3-.2 1.7-.3 3.4-1.6 4.3s-3.3.2-4.3-1.1c-.9-1.4-1.3-3-1.3-4.7-.6-6.7-.5-13.4.3-20 .2-2.9.8-5.9 2.6-8z" fill="#f0785e"/><path d="m611.9 418.9c1-.4 1.8.9 2.1 1.9.6 2 1.2 4 .7 6-.4 1.6-1.8 2.9-3.5 3.1.1-.1.1-.3.1-.4-.1-2.8-.2-5.7-.2-8.5 0-.6.1-1.1.3-1.6.1-.3.3-.4.5-.5z" fill="#f0785e"/><path d="m613.2 312.2-.3.2-10.9 1.7c-.9.1-.9.5-1.8.3-2-.5-3.3-2.6-4.2-4.4-7-13.3-13.3-26.2-20.3-39.5-1.5-2.9-4.4-6.5-4.3-9.7 2-.3 8.6-.5 10.6-.8 1.7 8.9 6.9 16.8 12 24.4 6.4 9.2 12.8 18.5 19.2 27.8z" fill="#63bdc6"/><path d="m611.3 429.4c0 .1-.1.2-.1.4-.3 0-.7 0-1-.2-2-.8-2.4-3.4-2.4-5.5-.2-1.4.1-2.9.8-4.1.7-.9 1.8-1.2 2.9-.8-.2.5-.4 1.1-.3 1.6 0 3 .1 5.8.1 8.6z" fill="#ec3b33"/><path d="m604.8 331.4c1.2 2.2.4 5.1-1.8 6.3 0 0-.1.1-.1.1-1-1.4-1.7-3-1.9-4.7-.2-1.1-.1-2.3.2-3.4.7-.3 3 1.1 3.6 1.7z" fill="#f0785e"/><path d="m597.3 319.7c1.6 4.3 2.8 8.8 3.5 13.4h.1c.2 1.7.9 3.3 1.9 4.7.5 2.3.9 4.6 1.4 6.9-16.6-9.3-41.5-12.9-60.3-13.2-30.1-.6-65.1-2.9-95.2-3.5 0-.1 0-.3 0-.4-.2-3.3-.4-6.6-.6-9.9l.7-.1c10 .6 75.5-.3 119.2.8 11.8.3 22.1.7 29.3 1.3z" fill="#eadac7"/><path d="m586.1 309.2c.5 1.7-.1 3.6-1.6 4.6-.9.5-5.9.4-6.9.5-4.7.3-3 .5-7.7.8-.8 0-1.3.1-1.8.1-1 0-1.9-.3-2.7-.9-1.4-1.1-2.4-2.6-3.1-4.2-4.8-9.9-9.5-19.8-14.3-29.7-2-4.3-4.1-8.8-4.4-13.5-.1-.6.1-1.2.4-1.7.4-.5-.4-.7.3-.7 4.3 0 10.5-.7 15.6-1 1.2-.1 2.2-.1 3.2-.1 6 14.4 11.3 28.5 20.4 41.2 1.3 1.4 2.1 2.9 2.6 4.6z" fill="#63bdc6"/><path d="m597.3 319.7c-3.1-8.4-7.2-16.4-12.1-23.8-7.3-11.4-11.5-25.2-18.7-36.6v-.8c5.1-.2 10.2-.5 15.3-.9v.3c.1.7.2 1.4.3 2.1-2 .3-8.6.5-10.6.8-.1 3.3 2.8 6.8 4.3 9.7 7 13.3 13.3 26.2 20.3 39.5 1 1.8 2.2 4 4.2 4.4.9.2.9-.1 1.8-.3l10.9-1.7.3-.2c1 1.5 2 2.9 3.1 4.4 16.9 33 26.9 75 23.4 112.5-.3-8.6-2.7-21.1-4-29.5h-.9c.7-2.3 1.1-4.7 1.1-7.2-.1-2.7-.8-5.3-2.2-7.5-.7-3.8-2-5.8-3.4-6.6-3.5-6-6.7-13.4-10.6-19.2-3.7-5.6-8.4-10.7-14.4-13.7-.4-.2-.8-.4-1.1-.6-.4-2.3-.9-4.6-1.4-6.9 2.3-1.2 3.2-4 2-6.2 0 0-.1-.1-.1-.1-.6-.5-2.9-1.9-3.7-1.7-.3 1.1-.4 2.3-.2 3.4h-.1c-.7-4.7-1.9-9.2-3.5-13.6z" fill="#eadac7"/><path d="m554.8 422.8c4 7.9 11.3 15.3 19.8 16.7l-.1.3c-5.8.1-6 1.9-6.4 6.3s2.4 8.4 6.2 10.6l-.2.3c-.5 1.4-1.4 1.8-2.8 1.3-1.4-.6-2.6-1.7-3.3-3.1l-10.7-15.9h-.1c0-5.6-.7-11.2-2.4-16.5z" fill="#fbc94a"/><path d="m597.3 319.7c-7.2-.6-17.4-1-29.3-1.3l.1-3.2c.5 0 1.1 0 1.8-.1 4.7-.3 3-.5 7.7-.8 1-.1 6.1.1 6.9-.5 1.4-1.1 2-2.9 1.6-4.6-.5-1.7-1.4-3.2-2.5-4.6-9.1-12.7-14.4-26.8-20.4-41.2-1 0-2.1 0-3.2.1l-.1-4.9c2.2-.1 4.4-.2 6.6-.3v.8c7.2 11.5 11.4 25.2 18.7 36.6 4.9 7.6 8.9 15.6 12.1 24z" fill="#eadac7"/><path d="m542.5 277.9c5.9 11.8 11.6 23.7 17 35.7l-.3.1c-.1 0-11.7-.6-11.8-.6-7.7 1.3-10.3 1.3-22.2 1-5.1-.1-16.1.3-21.6-.2-.3-15.8-3-33.7-4.2-49.4 7.6-1 15.2-1.3 22.8-.8 4.3.3 8.8 1 12.4 3.5s6 6.8 7.9 10.7z" fill="#63bdc6"/><path d="m537.1 457.7c5.8-5.8 11.7-13.2 10.6-21.2.3-6.5-2-12.8-6.2-17.7-4.4-5.2-10.1-9.2-16.6-11.6-3.6-1.5-7.5-2.4-11.4-2.5-3.6 0-7.2.7-10.6 2-5.8 2.1-11 5.9-14.8 10.8-3.7 5-5.8 12.2-5 18.3-.5 7.5 1.8 14.9 6.5 20.7 1.5 1.9 3.3 3.6 5.2 5.2 8.2 6.7 19.9 9.8 29.6 5.6 5-2.1 9-5.9 12.7-9.6zm-65.8-24c-.7-5.3 0-10.7 2-15.7 2.6-6.8 7-12.8 12.8-17.2 4.2-3.1 9-5.3 14-6.7 4.8-.6 9.7-1.2 14.8-1.6 2.5.1 4.9.4 7.3.9.1 0 .3 0 .4.1 2.9.8 6 1.9 8.8 3 .3.1.5.3.8.4 4.6 2.6 10.5 4.8 13.7 9l.4.6c3.1 4.3 5.4 9.6 7.5 14.5.3.6.6 1.3.9 1.9 1.7 5.3 2.4 10.9 2.3 16.5v.8c-.3 9.8-6.1 19.4-13 26.4-7.6 7.6-18 12.2-28.7 13.4-7.2.9-14.7.3-21.2-2.8-7.7-3.7-13.5-10.8-17-18.6s-4.9-16.4-5.8-24.9z" fill="#63bdc6"/><path d="m538.6 435.4.1.2c.2 2.6.4 2.7-.7 5-.4.9-1.2 3-2.1 3.4-1.7.9-4.4-.1-6-1.1-3.9-2.4-12.6-6.3-10.8-10.1v-.2c.2-1.6 3.7-2.6 5.1-3.3 3.1-1.7 6.7-3.4 9.8-1.8 2.9 1.5 3.9 4.9 4.6 7.9z" fill="#faa235"/><path d="m527.8 453.4c.5.9.7 1.9.3 2.9-.3.5-.8.9-1.4 1.2-3.1 1.7-6.4 2.8-9.9 3.3-1.3.2-2.8.1-3.6-.9-.4-.9-.5-1.9-.2-2.9 1.1-5.2.9-15.8 2.7-16.7 3.8-1 9.7 7.9 12.1 13.1z" fill="#faa235"/><path d="m526.1 418.1c.5.2.8.6 1 1.2 0 .4-.1.7-.3 1-2.2 4-6.1 7.5-10.7 7.8-.4.1-.8 0-1.1-.2-.3-.3-.5-.6-.6-1l-4.1-11.8c-.2-1.8.3-2.4 2.1-2.7 1.9-.1 3.7.2 5.3 1.1 3 1.2 5.8 2.8 8.4 4.6z" fill="#faa235"/><path d="m524.2 429.4c-1.4.8-4.9 1.7-5.1 3.3v.2c-1.8 3.8 6.9 7.7 10.8 10.1 1.6 1 4.3 2 6 1.1.9-.5 1.7-2.5 2.1-3.4 1.2-2.3 1-2.5.7-5l-.1-.2c-.7-3-1.7-6.4-4.5-7.8-3.1-1.6-6.8.1-9.9 1.7zm3.6 24c-2.4-5.2-8.3-14.1-11.9-13.1-1.9.9-1.7 11.5-2.7 16.7-.3.9-.3 2 .2 2.9.7 1.1 2.3 1.1 3.6.9 3.5-.5 6.8-1.6 9.9-3.3.6-.3 1-.7 1.4-1.2.2-1 0-2.1-.5-2.9zm-17.5-38.3 4.1 11.8c.1.4.3.7.6 1 .3.2.7.3 1.1.2 4.6-.2 8.5-3.7 10.7-7.8.2-.3.3-.7.3-1-.2-.5-.5-.9-1-1.2-2.6-1.8-5.5-3.3-8.4-4.6-1.6-.9-3.5-1.3-5.3-1.1-1.8.3-2.3.8-2.1 2.7zm-.6 13.5c-.1-1.5-.8-3-1.8-4.1-1.2-1.7-2.6-3.2-4-4.7-.8-1.1-2-1.9-3.3-2.3-1.3-.3-2.9.4-3.2 1.8l.1.1c-2.3 3.3-3.9 7.1-4.7 11.1-.2 1-.2 2.3.7 2.8.6.3 1.2.3 1.8.1 4.3-.8 8.5-1.7 12.6-2.9.5-.1.9-.3 1.3-.7.4-.3.5-.7.5-1.2zm38 7.9c1.1 8-4.9 15.4-10.6 21.2-3.7 3.8-7.7 7.5-12.6 9.6-9.7 4.2-21.4 1.1-29.6-5.6-1.9-1.5-3.7-3.3-5.2-5.2-4.7-5.9-7-13.2-6.5-20.7-.8-6.1 1.3-13.3 5-18.3 3.8-4.9 8.9-8.7 14.8-10.8 3.4-1.3 7-2 10.6-2 3.9.2 7.8 1 11.4 2.5 6.4 2.4 12.1 6.3 16.5 11.5 4.2 5 6.5 11.3 6.2 17.8zm-38.5 5.2c.2-1.2 0-4.4-.4-4.7-1.4-1.6-5.6.8-8.4 1.2-1.6.1-3.2.5-4.7 1.2s-2.6 2.1-2.8 3.8c0 1 .2 2 .7 2.9 1.6 3.7 3.5 7.3 5.9 10.6 3.1-3 5.3-6.8 7.6-10.4.9-1.5 1.6-3 2.1-4.6z" fill="#eadac7"/><path d="m508.9 437c.4.3.5 3.5.4 4.7-.5 1.6-1.2 3.1-2.1 4.5-2.2 3.7-4.5 7.4-7.6 10.4-2.4-3.3-4.3-6.8-5.9-10.6-.4-.9-.7-1.9-.7-2.9.2-1.7 1.3-3.1 2.8-3.8s3.1-1.1 4.7-1.2c2.8-.3 7-2.7 8.4-1.1z" fill="#faa235"/><path d="m497.6 419.4-.1-.1c.2-1.3 1.8-2 3.2-1.8 1.3.4 2.4 1.2 3.3 2.3 1.4 1.5 2.8 3.1 4 4.7 1 1.1 1.7 2.6 1.8 4.1 0 .4-.1.9-.4 1.2-.4.3-.8.6-1.3.7-4.2 1.2-8.4 2.1-12.6 2.9-.6.2-1.2.1-1.8-.1-.9-.5-.9-1.8-.7-2.8.7-4 2.3-7.8 4.6-11.1z" fill="#faa235"/><path d="m460.2 313.3c-.6 0-.9-32-2.6-48.7l1.6-.9c10.5 1.4 21.2 1.6 31.8.8h5.1c1.3 16.1 2.1 33.7 2 49.8-6.9-.5-33.8 1-38-.9z" fill="#63bdc6"/><path d="m472 348.7c1.1.4 1.3.9 1.4 3 .1 1.3-.3 2.6-1.1 3.6-1.3 1.6-3.4 2.5-5.5 2.3-2.2-.2-4.3-.9-6.5-1-1.7-.1-3.3-.6-4.9-1.3-2.1-1-1.5-5.4.5-6.6s4.8 1 6 3c1.5-1.3 3.2-2.4 5-3.2 1.6-.6 3.5-.6 5.1.2z" fill="#ec3b33"/><path d="m149.9 229.3c3.6-1.3 6.5.1 10.3.8-1.3 2.4.3 5.5 2.7 6.8s5.2 1.3 7.9 1.3h16.6l48.2-.2c15.1 0 30.2 0 45.3-.1 6.2 0 12.5-.1 18.7-.1 19.1 0 38.2-.1 57.4-.2h11.7c8.7 0 17.4 0 26.1.6 4.5.3 9.1.8 13.7 1.2 9.4.8 18.8 1.2 27.8-1.3l.5-.5c0-2.3.1-4.6.1-6.9.7 0 1.3-.1 2-.1h.1 1.6c5.5-.1 10.9-.1 16.4-.2.5 0 1 0 1.5-.1 1.4 0 2.8.1 4.2.2v.1c28.8 2.8 56.4 5.2 85.2 7.9 6.7.7 13.6 1.3 19.9 3.8 7.7 3 14.2 8.4 19.7 14.5l-.3.3-5.4.4c-5.1.4-10.2.7-15.3.9-2.2.1-4.4.2-6.6.3-18.6.7-37.3.1-55.8-1.6-45.1.5-90.6 0-136.2-.8-19.3-.3-38.6-.7-57.9-1.1-75.2-1.5-150.5-2.9-224.8-.6-7.1.2-14.3.5-21.4.8 7.1-7.8 15.7-14 25.7-17.3 6.3-2.1 13-2.9 19.6-3.7 13.5-1.8 27.2-3.5 40.8-5.1z" fill="#eadac7"/><path d="m455.9 348.7c-2 1.2-2.7 5.5-.5 6.6 1.5.7 3.2 1.2 4.9 1.3 2.2.1 4.3.8 6.5 1 2.1.2 4.2-.6 5.5-2.3.8-1 1.2-2.3 1.1-3.6-.1-2.1-.3-2.6-1.4-3-1.6-.7-3.4-.8-5-.2-1.8.8-3.5 1.9-5 3.2-1.3-2-4.1-4.2-6.1-3zm-4.4 48.6c-.2-23.2-1.4-46.4-2.8-69.3 30.1.6 65.1 2.9 95.2 3.5 18.9.4 43.7 3.9 60.3 13.2 2 9.9 4 19.8 5.9 29.7 1.6 8 3.2 16.1 3.3 24.3.1 6.1-.8 14.1-1.6 20.2-.2.1-.4.2-.5.4-1-.4-2.2-.1-2.9.8-.7 1.2-1 2.7-.8 4.1.1 2.1.4 4.7 2.4 5.5.3.1.7.2 1 .2-.7 2.4-1.1 4.9-1.1 7.5v.9l-16.8-.5c-6.1-.2-12.4-.3-18 2l-.7-.1c-8.5-1.5-15.7-8.8-19.8-16.7-1.8-5.9-4.7-11.4-8.4-16.3l-.4-.6c-2.2-3.2-5.3-5.6-8.9-7.1-1.5-.6-3.4-1.4-5.6-2.2-2.8-1.4-5.7-2.4-8.8-3-2.3-.7-4.7-1-7.2-1h-.3c-5-.2-10 .3-14.8 1.6-16.1 2-31.3 4.3-48.4 3.1z" fill="#fbc94a"/><path d="m458.4 230.3c-6.5-.2-13-.1-19.6.3h-.1c-.9 0-1.8-.3-2.6-.8-1.2-.9-1.9-2.6-.7-3.4 1.2-.5 2.4-.8 3.7-1.1 4.2-1.3 8.9.9 13.2 1.8 2.5.5 5.1 1.1 7.1 2.8-.2.1-.6.3-1 .4z" fill="#c45188"/><path d="m451.6 448c-.5 1.3-1 2.5-1.7 3.7l-.5-.3c1.6-17.9 2.2-36 2.1-54.2h.2c17.1 1.2 32.2-1.1 48.4-3.1-5 1.3-9.7 3.6-13.9 6.6-5.8 4.4-10.3 10.4-12.9 17.2h-.1c-9.9 7.6-16.9 18.5-21.6 30.1z" fill="#fbc94a"/><path d="m82.3 326-36.6-.2c-2.4 0-5.1-.1-6.8-1.9-1.3-1.4-1.6-3.4-.9-5.1.6-2 2.1-3.6 4-4.5 3.7-1.5 7.7-1.8 11.6-.8 8.5.3 19.1.6 31.2.9 69.8 1.6 189.8 2.2 238.5 2.7 11 .1 18.3.2 20.6.4 25.3 1.2 54.2.1 79.2-.5 7.1-.2 13.9-.3 20.2-.4l4.8.6v.5c.2 3.3.4 6.6.6 9.9l-1.3.1c-45.8-.2-91.5-.4-137.3-.6l-124-.6c-34.7-.2-69.2-.4-103.8-.5z" fill="#eadac7"/><path d="m448.6 225.2c-.3-2.4 0-3.8-.4-6.3-.6 0-2-.5-2.4 0-.4-30.9-.8-62.4-1.2-93.3l1.1 1.4c.3.3.5.6.8 1l-.1.1c1.1 31.9 1.9 65.1 2.2 97.1z" fill="#c45188"/><path d="m442.9 116.6c2.6 5 5.5 9.8 8.9 14.3-.5 1.4-2.7.5-3.4-.7s-1.6-2.3-2.6-3.2h-.1l-1.1-1.4-3.9-4.7-.2-.5c1.2-.4 2.1-1.5 2.2-2.8 0-.3 0-.7-.1-1z" fill="#faa235"/><path d="m442.6 116.6c.1.3.1.7.1 1-.1 1.3-1 2.4-2.2 2.8-.4.2-.9.2-1.4.2-1.7-.4-2.8-2.1-2.4-3.8 0-.1 0-.1 0-.2.6-1.6 2.7-2.8 4.2-1.9.9.4 1.5 1.1 1.7 1.9z" fill="#fbc94a"/><path d="m435 302.8c.1 4 .9 8.4-2.5 10.7-1.2.8-5.6 1.2-9.5 1.3-2.7.1-5.1.1-6.1.1-10.5 0-13.7.5-24.3.5-9.6 0-19.3.1-28.7-2-1.2-.1-2.3-.7-3.1-1.5-.5-.9-.8-1.9-.7-2.9-.6-14.8.2-29.5 2.4-44.1.1-1.2.5-2.3 1.3-3.2 1-.9 2.4-.9 3.8-.8 20.8.7 34.8.6 55.5 1.3 4.1-.1 7.8 1.7 9.5 4.5s1.9 4.6 2 7.9c.1 9.4.3 18.8.4 28.2z" fill="#63bdc6"/><path d="m404.2 403.2c.2 1.2-.6 2.4-1.8 2.7-.2 0-.3 0-.5 0-1.1-.2-1.9-1.3-1.7-2.4 0-.3.1-.5.3-.7.3-.7 1-1.1 1.7-1.1 1.3-.7 1.7.1 2 1.5z" fill="#ec3b33"/><path d="m403.6 176.5c1-.1 2.1-.2 3.1-.2 2.4-.2 4.9.3 7 1.6 2.3 1.8 3.7 4.4 3.8 7.3.2 2.8-.1 5.7-.8 8.5-2.8 14.9-5.6 29.8-8.4 44.7l-.1 1c-4.6-.4-9.2-.9-13.7-1.2-8.7-.6-17.4-.6-26.1-.6-3.9 0-7.8 0-11.7 0v-.2c1.8-7.1 4.3-16.7 6.2-24 .1-.3.1-.5.2-.8.4-1.5.8-2.9 1.1-4.3 2.1-7.5 3.4-15.1 4.1-22.8.2-3.5-.1-7.6-3.1-9.5-1.2-.7-2.6-1.1-4.1-1.2 14.4.5 28.5 1.1 42.5 1.7zm-4.7 31.9c3.5-5.9 3.7-13.2.4-19.2-1.8-3.2-4.8-6-8.4-6.6-4.6-.7-8.4 1.2-12.2 4-4.9 4.2-5.6 11.4-6 17.8-.2 3.1-.3 6.5 1.6 9.1 1.7 2.3 4.6 3.4 7.5 3.6 6.9.4 13.4-2.9 17.1-8.7zm1.5 17.2c.9-1.9-.3-4-2.3-3.6-1.2 0-3.2 1.5-2.6 3.4s4 2.1 4.9.2zm-29.5.3c.8-1.4.6-3-1.8-3.3-.9.1-1.6.5-2.1 1.2-.5 1.1-.6 2.4-.3 3.6 1.5.4 3.2-.1 4.2-1.5z" fill="#6d62d1"/><path d="m398 221.9c2.1-.3 3.2 1.7 2.3 3.6s-4.2 1.8-4.9-.2 1.4-3.4 2.6-3.4z" fill="#ec3b33"/><path d="m498.1 314.3c0-16.1-.7-33.8-2-49.8h-5.1c-10.6.8-21.2.6-31.8-.8l-1.6.9c1.7 16.7 2 48.7 2.6 48.7l-.1.1c4.2 2 31.1.4 38 .9zm69.9 4.1c-43.8-1-109.2-.2-119.2-.8l-.7.1c0-.2 0-.3 0-.5l-4.8-.6c-6.3 0-13.1.2-20.2.4v-2.1c3.9-.2 8.3-.5 9.5-1.3 3.3-2.3 2.5-6.7 2.5-10.7-.1-9.4-.2-18.8-.4-28.2 0-3.3-.3-5.1-2-7.9s-5.4-4.6-9.5-4.5c-20.8-.7-34.8-.6-55.5-1.3l.1-4.6c45.6.8 91.1 1.4 136.2.8 18.6 1.7 37.2 2.2 55.8 1.6l.1 4.9c-5 .3-11.3 1-15.6 1-.7 0 .1.2-.3.7-.3.5-.5 1.1-.4 1.7.3 4.8 2.3 9.2 4.4 13.5 4.7 9.9 9.5 19.8 14.3 29.7.6 1.7 1.7 3.1 3.1 4.2.8.6 1.7.9 2.7.9zm-8.7-4.7.3-.1c-5.4-12-11.1-23.9-17-35.7-2-4-4.2-8.1-7.8-10.7s-8.1-3.2-12.4-3.5c-7.6-.5-15.3-.3-22.8.8 1.3 15.7 3.9 33.6 4.2 49.4 5.5.5 16.4.1 21.6.2 11.8.3 14.5.3 22.2-1 0 .1 11.6.7 11.7.6z" fill="#eadac7"/><path d="m394.8 374.3c.8 2.5 1.6 5.5.1 7.6-1 1.2-2.4 2.1-4 2.3-4.5.9-9-.7-13.5-1.6-1.5-.4-3.1-.5-4.6-.2-3.4 1-5.3 4.6-4.2 7.9.1.2.1.4.2.6h.3c1.8 3.4 5.4 8.8 5.5 12.7s-1.4 8-4.6 10.1c-1.5 1-3.9 2.8-5.6 2.2-2.6-.9-3.3-5.1-4.2-7.6-5-14.9-9.6-29.9-13.7-45.1-1.4-5.2-2.7-10.4-2.3-15.8 10.7-6.7 22.9-10.9 35.6-12 2.5-.3 5.1-.2 7.6.5 5.7 1.9 8.7 8 6.8 13.7-.9 2.6-2.7 4.8-5.2 6.1-2 1-4.2 1.6-6.4 1.8-5.8.8-11.7 1-17.5.6-1.1 3.8-.8 7.8.8 11.5.2.5.5 1 1 1.4.6.3 1.3.3 2 .2l16.2-2.3c2.6-.4 6.6-1.6 8.5.2 1.1 1.1.7 3.7 1.2 5.2z" fill="#ec3b33"/><path d="m389.7 196.4c.9.6 1.4 1.6 1.3 2.7 0 1.3-.6 2.5-1.7 3.2-1.2.7-2.6.3-3.4-.8-.7-1.1-.4-3.3.6-3.8.2-.9 2.2-1.8 3.2-1.3z" fill="#c45188"/><path d="m392 212.4c-3.2 2.1-7.2 1.5-11 1.3-1.1-.1-5.8-4.5-6-7.4-.3-4.7-.3-9.3 2-13.5s6.6-7 11.1-7h.6c4.6 0 8.4 4.4 9.9 8.8s.2 9.1-2 13.1c-1.2 2-2.8 3.6-4.6 4.7zm-1-13.3c.1-1.1-.4-2.1-1.3-2.7-.9-.5-2.9.4-3.2 1.4-1 .5-1.2 2.7-.6 3.8.8 1.1 2.2 1.4 3.4.8 1.1-.7 1.7-1.9 1.7-3.3z" fill="#ec3b33"/><path d="m378.1 82.2c-.9-.1-1.8-.2-2.7-.3l-17.3-2.2c4.6-2.4 11.8-4.6 16.8-3.6l.4-.1c.7-.1 1.4-.1 2-.2 6.3-.2 12.4 2.5 18.2 5.2-4 2.8-9.4 2.3-14.3 1.7z" fill="#fbc94a"/><path d="m375.4 75.8c-.2-4.5.3-8.9 1.4-13.2.2 4.9.4 8.3.6 13.2-.7 0-1.4.1-2 .2z" fill="#fbc94a"/><path d="m377 192.9c-2.4 4.1-2.3 8.8-2 13.5.2 2.9 4.9 7.3 6 7.4 3.9.3 7.8.8 11-1.3 1.9-1.2 3.4-2.8 4.6-4.7 2.2-4 3.5-8.8 2-13.1s-5.3-8.8-9.9-8.8h-.6c-4.6 0-8.8 3-11.1 7zm4.8 24.1c-2.8-.2-5.8-1.3-7.5-3.6-1.8-2.5-1.8-5.9-1.6-9.1.3-6.4 1-13.6 6-17.8 3.8-2.8 7.5-4.7 12.2-4 3.7.6 6.6 3.4 8.4 6.6 3.3 6 3.1 13.3-.4 19.2-3.6 5.8-10.2 9.2-17.1 8.7z" fill="#c45188"/><path d="m370.9 225.9c-.9 1.4-2.6 1.9-4.2 1.5-.4-1.2-.3-2.5.3-3.6.5-.7 1.3-1.2 2.1-1.2 2.4.3 2.6 1.9 1.8 3.3z" fill="#ec3b33"/><path d="m362.2 137.4c.6 11.1-4.4 22.6-13.5 29.1s-22.1 7.3-31.5 1.3c-8.2-5.2-12.9-14.8-13.4-24.5s2.8-19.3 8.1-27.4c1.3-2.1 1.1-2.5 3.3-3.9 14.3-8.9 33.2-4.6 42.2 9.8.8 1.3 1.5 2.6 2.1 3.9 1.6 3.7 2.5 7.7 2.7 11.7z" fill="#fbc94a"/><path d="m378.5 134.6c8.6 9.8 16.4 20.1 23.6 30.9.7 1 1.4 2.1 1.9 3.2 1.5 3.6 1.4 3.9 2.8 7.6-1.1 0-2.1.1-3.1.2-.8-2.9-1.5-3.2-2.4-5.6-.9-2.2-1.5-4.5-2.9-6.4-6.8-9.2-12.3-16.1-19.7-24.9-.3 7.4-.3 17.8-.1 25.2-1.2-.9-3.2 0-4.2-1.2-.4-.7-.6-1.5-.5-2.3.5-7.3 1.4-14.6 2.7-21.8-1.8 3-3.7 7.4-5.4 10.5l-.1.2c-1.9 3.7-3.7 7.4-5.6 11.1l.1.1c-2.6 5.5-4 7.2-5.3 13.2-.7-.1-1.4-.2-2.1-.2.5-4.1 1.5-6.4 3.3-10.1 0-.1.1-.2.1-.2 3.2-7.6 10.8-21.4 14.3-28.4 0-6.1.7-24.5.6-27.8-.1-2-.2-4.1-.3-6.3-.4-6.5-1-13.8-.8-19.6.9.1 1.8.2 2.7.3-.4 15.9.9 36.4.4 52.3z" fill="#c45188"/><path d="m361.4 164.3c0-.1.1-.2.1-.2-.1.1-.1.1-.1.2z" fill="#6d62d1"/><path d="m358.1 174.6c.7 0 1.4 0 2.1.1h1.2c1.4.1 2.8.5 4.1 1.2 2.9 1.9 3.3 6 3.1 9.5-.7 7.7-2 15.3-4.1 22.8l-.4-.1h-7.4c1.2-6.5 2.3-12 3.5-18.5.6-2.6.9-5.3.6-7.9-.4-2.6-1.6-6-3.9-7.1z" fill="#6d62d1"/><path d="m369.4 113.2c-3.2 1.3-6.7 2.1-10.2 2.4l-.3.2c-.8-1-1.7-2-2.7-2.9l.3-.3c1.9.4 3.8.1 5.5-.6v-.1c2.2-.5 4.4-1 6.6-1.3l1.3-.2c.7.1 1.2.8 1 1.5-.2.6-.8 1.1-1.5 1.3z" fill="#fbc94a"/><path d="m351 174.4 5.8.2c2.3 1.2 3.6 4.5 3.9 7.1.2 2.7 0 5.3-.6 7.9-1.2 6.5-2.3 12.1-3.5 18.5-2.4 0-4.8 0-7.1 0v-.3c1.4-5.4 2.8-12.1 4.2-17.5.9-2.6 1.2-5.4 1.1-8.2-.2-2.6-1.5-6.4-3.8-7.7z" fill="#c45188"/><path d="m353.2 71.9c1.3.2 2.3 1.1 2.6 2.4 0 .1.1.2.1.4.2 1.1.1 2.2-.1 3.3-.1.6-.3 1.1-.5 1.6-.2.4-.6.7-1.1.8-.1 0-.2 0-.3 0-1-2.6-1.2-5.4-.6-8.2z" fill="#fbc94a"/><path d="m355.7 95.8c0-.4 0-.8 0-1.1h.9c3.6-1.8 7.8-2.2 11.6-1.1.4.1.8.3 1.1.6.3.4.5 1 .5 1.5.2 1.4.3 2.8.5 4.2v1l2.4.1c.1.2.2.5.2.7 0 1-.7 1.8-1.6 2-.2 0-.3 0-.5 0v.2c.4 1.3 1.2 4.7 1.6 6-.7.1-1.5.2-2.2.3-.4-.2-.9-.1-1.3.2-2.2.4-4.4.8-6.6 1.3v.1c-1.7.8-3.7 1-5.5.6l-.3.3c-.3-.3-.6-.6-.9-.8-3-2.9-6.6-5.1-10.6-6.4l.2-.5c-.2-1-.7-3.3-.9-4.3l-.1-.5c2.3-.5 4.5-1 6.5-1.5 1-.2 5.2-1.2 5.6-2.2-.1-.3-.3-.5-.6-.7z" fill="#faa235"/><path d="m346.7 92.2c-.9-1.1-2.2-4.4-1.9-5.8s2.5-2.2 3.3-1c.5.5.9 1.2 1 2 .3 1 .4 2.1.2 3.1s-1.2 1.8-2.3 1.7z" fill="#fbc94a"/><path d="m344.8 410.8c-1.5-.5-1.2-2.7-.3-2.8 1-.4 2.1.1 2.6 1.1v.1c.3.7-.5 2.9-2.3 1.6z" fill="#ec3b33"/><path d="m347 179.9c-.4-1.6-1.5-4.2-2.9-4.9l-.1-.7c1.5-.2 2.9-.6 4.3-1l.1.2c3.2.3 6.5.6 9.7 1v.2h-1.2l-5.8-.2c2.3 1.3 3.6 5.2 3.9 7.7.1 2.8-.3 5.5-1.1 8.2-1.4 5.4-2.8 12.1-4.2 17.5v.2c-2.3 0-4.6 0-7-.1v-.2c2.1-7.5 3.6-15.1 4.5-22.8.1-1.6.1-3.4-.2-5.1z" fill="#6d62d1"/><path d="m344.3 267.1c1.4 11.9 1.9 23.8 1.3 35.7-.2 3.6-.7 7.7-3.8 9.6-1.7.9-3.7 1.3-5.6 1.2-4.3.2-8.6.2-12.9.2-15.7 0-31.4-1-46.9-3-.8 0-1.5-.3-2.2-.7-1.2-.9-1.3-2.5-1.3-4 0-11.8 0-23.5-.1-35.3 0-3.2.2-6.8 2.5-8.9 1.8-1.5 4.2-1.8 6.6-2 12.2-1 19.4-1.8 27.9-1.7 4.9.1 10.3.5 17.4 1.3l12.2 2.2c2.7 0 4.8 2.1 4.9 4.7.1.3.1.5 0 .7z" fill="#63bdc6"/><path d="m341.3 68.4c1.2 0 2.3 0 3.5.1 1.6 2.1 1.7 4.3 1.2 6.9 0 1-.6 1.8-1.4 2.3-1.5.6-2.9-1.2-3-2.8s.2-4.7-.3-6.2z" fill="#fbc94a"/><path d="m344.1 175c1.5.8 2.6 3.4 2.9 4.9.3 1.7.3 3.5 0 5.2-.9 7.7-2.4 15.3-4.5 22.8v.2c-1.9 0-3.8-.1-5.7-.2 2.4-7.1 1.8-13.1 2.8-20.4.9-6 .8-8.7-2.3-12v-.5c.8 0 1.5-.1 2.3-.2 1.4-.1 2.8-.3 4.2-.5z" fill="#c45188"/><path d="m392.7 315.5c10.5 0 13.7-.5 24.3-.5 1 0 3.4 0 6.1-.1v2.1c-24.9.7-53.8 1.8-79.2.5-2.3-.1-9.7-.2-20.6-.4v-3.4c4.3 0 8.6-.1 12.9-.2 1.9.1 3.9-.3 5.6-1.2 3-1.9 3.6-6 3.8-9.6.5-11.9.1-23.9-1.3-35.7.3-2.6-1.7-5-4.3-5.2-.2 0-.4 0-.5 0l-12.2-2.2c-7.1-.8-12.5-1.2-17.4-1.3v-3.1c19.3.4 38.6.8 57.9 1.1l-.1 4.6c-1.3 0-2.8 0-3.8.8-.8.9-1.2 2-1.3 3.2-2.2 14.6-3 29.4-2.4 44.1-.1 1 .2 2 .7 2.9.8.9 1.9 1.4 3.1 1.5 9.4 2.2 19.1 2.1 28.7 2.1z" fill="#eadac7"/><path d="m333.6 78.5c0-1.5 1-2.8 2.4-3.3.2 1.8.4 3.6.7 5.5.2.8.1 1.7-.2 2.5-.3.7-1.2 1-1.9.7-.1 0-.1-.1-.2-.1-.5-2.2-1.2-3.2-.8-5.3z" fill="#fbc94a"/><path d="m328.7 175.2c2.9.1 5.8.1 8.8-.1v.4c3.1 3.4 3.2 6.1 2.3 12-1.1 7.3-.4 13.3-2.8 20.4-2.5-.1-5-.2-7.4-.4-.3-8.5 1.9-15.3 2.2-23.8 0-3.6-.1-6.8-3.1-8.5z" fill="#6d62d1"/><path d="m328.5 80.2c-.6-2.7-.7-5.4-.5-8.1l-.1-.2c.6-.3 1.3-.6 2-.9l.2.4c1.5 2.5 1.4 5 .4 7.7-.4.8-1.4 1.7-2 1.1z" fill="#fbc94a"/><path d="m326.8 89.9c-.1-1.8 1.7-4 3.3-3.1v.2c.7.2 1.4.8 1.3 1.4s.1 1.4 0 2.4c-.1 1.3-1 2.7-2 4.5 0 .4-2.7-.1-3-.4-.4-1.7.4-3.2.4-5z" fill="#fbc94a"/><path d="m318.4 357.3c11.4 13.3 16.7 32.7 10.1 49-.9 2.5-2.3 4.8-4.1 6.8-6.5 7-18.7 6.1-26.1 0s-10.7-16-11.9-25.5c-1.6-13.5.9-28.3 10.2-38.3l-.2-.2c3.1-2.8 8-1.1 12 .4s7.2 4.5 10 7.8zm-3.3 32c1.9-4 3.6-8.5 2.8-12.9s-3.5-10.8-8-10.3c-2.9.3-3.7.2-5.8 2.2-4 7.3-4.1 11.9-1.1 19.7.6 1.8 1.7 3.4 3.2 4.7 1.5 1.2 3.6 1.5 5.4.8 1.8-.8 2.7-2.5 3.5-4.2z" fill="#ec3b33"/><path d="m355.7 95.8c.3.2.5.4.5.6-.4 1-4.5 2-5.6 2.2-2.1.5-4.3 1-6.5 1.5-6.7 1.4-13.8 2.5-19.5 1.1l-.1-.2c1.1-.5 2-1.1 2.9-1.9 6.7-3.7 14.2-5.6 21.8-5.4 2.3.4 4.4 1.1 6.5 2.1z" fill="#fbc94a"/><path d="m347 92.2c1.1.1 2-.7 2.3-1.7.2-1 .1-2.1-.2-3.1-.1-.8-.5-1.5-1-2-.8-1.2-3-.4-3.3 1s.9 4.7 1.9 5.8zm-20.7 2.8c.3.3 3.1.8 3 .4 1-1.8 1.9-3.2 2-4.5.1-1-.2-1.6 0-2.4s-.6-1.3-1.3-1.4v-.2c-1.6-1-3.3 1.3-3.3 3.1s-.7 3.2-.4 5zm-3.1-17.6c.6-1.7 2.7-3.2 3.3-4.9h.1c.4-.2.8-.4 1.2-.6l.2.1c-.2 2.7 0 5.5.5 8.1.6.6 1.6-.3 1.9-1.1 1-2.7 1.2-5.2-.4-7.7l-.2-.4c3.6-1.5 7.5-2.4 11.4-2.5v.3c.5 1.5.2 4.6.3 6.2s1.5 3.4 3 2.8c.8-.5 1.4-1.3 1.4-2.3.5-2.6.4-4.8-1.2-6.9 2.1.2 4.2.6 6.3 1.2.1 0 2 2.1 2.1 2.2l-.1.2c-.6 2.7-.3 5.6.7 8.1h.3 1.1c.6 4.8.8 9.6.6 14.3v1.1c-2-1-4.2-1.6-6.4-2-7.6-.2-15.2 1.6-21.8 5.4-.9.8-1.9 1.4-2.9 1.9h-.2c-.1-.1-.3-.1-.4-.2 0-.1-.1-.2-.1-.3-.5-7-.9-15.5-.9-23.2zm10.4 1.1c-.4 2.1.4 3.1.8 5.2.7.4 1.6.3 2-.4 0-.1.1-.1.1-.2.3-.8.4-1.7.2-2.5-.2-1.8-.4-3.6-.7-5.5-1.4.6-2.4 1.9-2.4 3.4z" fill="#faa235"/><path d="m336.5 67c4.2-1.2 8.6-2.4 12.7-1.2s7.4 4.7 6.9 8.8l-.3.1c0-.1 0-.2-.1-.4-.3-1.3-1.3-2.2-2.6-2.4-.1 0-2-2.1-2.1-2.2-2-.6-4.1-1-6.3-1.2-5.1-.4-10.3.5-15 2.5-.7.3-1.4.6-2 .9-.4.2-.8.4-1.2.6h-.1c-.6 1.7-2.7 3.2-3.3 4.9h-.3c0-.4 0-.8 0-1.3 0-1 0-2 .1-3h.1c.8-1.9 2.8-3.1 4.7-3.7 2.9-.8 5.9-1.6 8.8-2.4z" fill="#fbc94a"/><path d="m319.6 173.5c3 .9 6 1.5 9.2 1.6v.1c3 1.7 3.1 5 3 8.4-.3 8.5-2.5 15.3-2.2 23.8-2-.1-3.9-.3-5.9-.5-1.4-.1-2.8-.3-4.2-.5.1-1.1 1.4-11.3 2.4-17.6.5-2.6.6-5.2.3-7.9-.4-2.6-1.6-6.2-3.9-7.5.4.1.8.2 1.2.2z" fill="#c45188"/><path d="m318.1 76.2c-1.9-1.2-2.4-3.7-1.2-5.5.4-.6.8-1 1.4-1.3 3.4 2 2.5 6.2-.2 6.8z" fill="#fbc94a"/><path d="m317.9 376.4c.7 4.4-.9 8.9-2.8 12.9-.8 1.7-1.7 3.4-3.4 4.2-1.8.7-3.9.4-5.4-.8s-2.6-2.9-3.2-4.7c-3-7.8-2.9-12.4 1.1-19.7 2.1-2 2.9-1.9 5.8-2.2 4.4-.5 7.2 5.9 7.9 10.3z" fill="#fbc94a"/><path d="m316.6 173.3v-.1c.5.1 1.1.2 1.6.3 2.2 1.4 3.5 4.9 3.9 7.5.3 2.6.2 5.3-.3 7.9-1 6.2-2.3 16.5-2.4 17.6-3-.4-6-.7-9-1 .5-11.5 2.3-26.8-.8-31.5v-.8z" fill="#6d62d1"/><path d="m310.1 68.9c2.1 3.1 1 8.7-1.8 9.1-4.6.4-5.2-9.9-1.2-10.9 2-.5 2.5 1.1 3 1.8z" fill="#fbc94a"/><path d="m306.3 94c-1.2-2.9-1.6-6-1.3-9.1 1.1-.7 4.3.6 4 1.9.3 2.5.3 5 0 7.5l-.1.6-2.6-.2z" fill="#fbc94a"/><path d="m315.3 112c-2.3 1.4-2 1.7-3.3 3.9-5.3 8.1-8.7 17.7-8.1 27.4s5.3 19.3 13.4 24.5c9.4 6 22.4 5.2 31.5-1.3s14.1-18 13.5-29.1c-.2-4-1.1-7.9-2.7-11.6-6.8-15.5-24.8-22.6-40.3-15.8-1.4.6-2.7 1.3-4 2zm-14.2 39.5c-2.6-7.9-2.8-16.5-.6-24.5.2-.6.4-1.3.6-2 .2-.5.4-1 .6-1.4 4.7-11.5 13.4-20.7 25.8-20.3 6.5 0 12.2.4 17.3 2.2 3.9 1.4 7.5 3.6 10.6 6.4.3.3.6.5.9.8.9.9 1.8 1.9 2.7 2.9 5.9 7.4 8.8 16.9 7.8 26.3-.7 6.2-3 12.2-5.6 17.9-1.7 3.8-3.6 7.6-6.7 10.2-1.8 1.4-3.9 2.5-6.2 3.2-1.4.4-2.9.8-4.3 1s-2.8.4-4.2.5c-.8.1-1.5.1-2.3.2-2.9.2-5.8.3-8.8.1-3.1-.1-6.2-.7-9.2-1.6-2.6-.8-5-2.1-7.1-3.8-3.4-2.8-6.1-6.3-8-10.3-.7-1.3-1.3-2.6-1.8-3.9s-1-2.5-1.5-3.9z" fill="#f0785e"/><path d="m303.5 106.4 1.1-.1.1.4c1 0 3.2.2 4.2.3v3c-2.9.1-5.8-.4-8.4-1.5l-.1-.2c.9-.7 2-1.3 3.1-1.9z" fill="#faa235"/><path d="m301.2 125c-.2.6-.4 1.3-.6 2h-.2c-3.6 1.4-5.1-1.5-4.5-3.4s4.7-1.6 5.3 1.4z" fill="#faa235"/><path d="m309.6 173.9c3.1 4.7 1.4 20 .8 31.5-.8-.1-1.6-.2-2.3-.2-3.2-.2-6.4-.4-9.6-.4v-.6c0-8.8.5-17.8.6-26.7 0-.9-1-4.5-1.9-4.7 4.1.1 8.3.2 12.4.3z" fill="#c45188"/><path d="m302.6 155.5c-1.1 1.2-3.9 2.1-5.3 1.3s-2.2-2.4-1.9-4c.8-.2 5-1.2 5.8-1.4.4 1.5.9 2.8 1.4 4.1z" fill="#faa235"/><path d="m293.5 135.2c.8-.9 3.3-1 3 3.5-.2 3.6-3.3 3.5-3.8 2.7-.5-.9-.6-1.9-.4-2.9.1-1.2.5-2.4 1.2-3.3z" fill="#faa235"/><path d="m298.8 218.5c-2.7-.1-5 0-7.8 0-.6 0-1.1-2.5-.9-3.1.1-.4.7-.5 1.1-.5 2 .1 4.1.1 6.1.2 1.6 0 3.2.2 4.8.7 0 .9-.2 1.9-.6 2.7-.8.1-1.8.1-2.7 0z" fill="#ec3b33"/><path d="m291.7 71.2c1 2.9 1.5 7.9 0 8.7-2.8.8-3.7-5.3-3.8-8.6.8-1.3 3.7-.4 3.8-.1z" fill="#fbc94a"/><path d="m291 87.2c.3.6.4 1.3.2 2-.3 2.1-.7 2.7-1 4.8v.5c-.6.1-1.2.2-1.8.3-.9-2.4-1.2-6.1.3-8.2.1-.8 1.9 0 2.3.6z" fill="#fbc94a"/><path d="m288.7 152.7c-1.7-2.4 1.8-3.2 2.6-2s-.2 3.7-2.6 2z" fill="#faa235"/><path d="m291.1 123.1c.8 1.2.8 2.8 0 3.9-.9-.5-3.1-1.3-4-1.7l-.6-.2c.3-.9.7-1.8 1.1-2.6l.4.2c.7-1 2.5-.5 3.1.4z" fill="#faa235"/><path d="m288 71.3c0 3.3 1 9.4 3.8 8.6 1.5-.8.9-5.8 0-8.7-.2-.3-3.1-1.2-3.8.1zm15.7-7c6.9.1 15.5 1.2 19.3 7 0 .6-.1 1.3-.1 1.9 0 1 0 2-.1 3l-3.3 22.4c-.1-.8-.5-1.6-1.2-2.1-.7-.4-1.4-.6-2.2-.7-2.4-.4-4.9-.7-7.3-.9l.1-.6c.3-2.5.3-5 0-7.5.4-1.3-2.8-2.5-4-1.9-.3 3.1.2 6.2 1.3 9.1v.6c-4.1-.3-8.2-.4-12.3-.4-1.2 0-2.5.1-3.8.2v-.5c.3-2.1.7-2.7 1-4.8.2-.7.1-1.4-.2-2-.4-.5-2.1-1.4-2.3-.7-1.5 2-1.2 5.8-.3 8.2-1.3.2-2.5.6-3.7 1.1v-23.5l-.6-.6c.1-.1.1-.2.2-.3 4.2-5.5 12.6-7.1 19.5-7zm4.6 13.8c2.8-.4 3.9-6 1.8-9.1-.5-.8-1-2.3-3-1.8-3.9 1-3.3 11.2 1.2 10.9zm9.8-1.9c2.7-.5 3.6-4.8.2-6.9-1.9 1.1-2.6 3.5-1.6 5.4.4.6.9 1.1 1.4 1.5z" fill="#faa235"/><path d="m288.7 152.7c2.5 1.8 3.3-.7 2.6-2s-4.3-.4-2.6 2zm7.9-14c.2-4.5-2.2-4.4-3-3.5-.7 1-1.1 2.1-1.2 3.3-.2 1-.1 2 .4 2.9.5.7 3.6.9 3.8-2.7zm4-11.7c-2.2 8-2 16.6.6 24.5-.8.2-5 1.2-5.8 1.4-.3 1.6.5 3.2 1.9 4 1.4.7 4.2-.2 5.3-1.3.5 1.3 1.2 2.7 1.8 3.9 1.9 4 4.6 7.5 8 10.3 2.2 1.6 4.6 2.9 7.1 3.8l-.1.2c-.4-.1-.8-.2-1.2-.2s-1-.2-1.6-.3c-4.1-.7-8.1-1.8-12-3.1-2.4-.8-4.7-1.9-6.9-3.2-3.6-2-6.6-4.9-8.8-8.4-2-3.6-3.3-7.6-3.8-11.7-1.1-7.2-1.1-15 1.4-21.7l.6.2c1 .5 3.1 1.2 4 1.7.8-1.2.8-2.8 0-3.9-.7-.9-2.5-1.4-3.1-.5l-.4-.2c.9-1.9 2.1-3.7 3.4-5.3 2.7-3.3 5.8-6.3 9.3-8.7l.1.2c2.7 1 5.6 1.6 8.4 1.5 0-1 0-2 0-3-1 0-3.2-.2-4.2-.3l-.1-.4c2-.2 4-.6 6-1.1 2.6-.7 5.2-1.7 7.6-3 2.3-1.1 3.9-1.8 5.7-1.3 0 .1.1.2.1.3.1 0 .2-.1.3-.1h.2l.1.2c5.6 1.3 12.8.3 19.5-1.1l.1.5c.2 1 .7 3.3.9 4.3l-.2.5c-5.2-1.8-10.8-2.2-17.3-2.2-12.4-.4-21.1 8.8-25.8 20.3-.2.5-.4.9-.6 1.4-.7-3-4.8-3.3-5.3-1.5s.9 4.7 4.5 3.4z" fill="#fbc94a"/><path d="m316.2 102.4c.6-.5 1.2-1.2.9-1.8-.3-.4-.7-.6-1.2-.7-6.8-1.5-13.8-2.2-20.8-2.1-3.8 0-7.5-.9-10.1 1.9l-.2-.2v-3.5c1.2-.5 2.4-.9 3.7-1.1.6-.1 1.2-.2 1.8-.3 1.3-.1 2.5-.2 3.8-.2 4.1-.1 8.2 0 12.3.4l2.6.2c2.4.2 4.9.5 7.3.9.8.1 1.5.3 2.2.7.7.5 1.1 1.3 1.2 2.1s0 1.6-.4 2.3c-.3.5-.6 1-1 1.4-2.4 1.3-5 2.3-7.6 3v-.4c1.9-.5 3.8-1.4 5.5-2.6z" fill="#fbc94a"/><path d="m282.7 135.4c1.6-11.5 7.6-22.7 16.4-29.7 1.7.2 3.4.3 5.1.3 2.1 0 4.2-.3 6.3-.9v.2c-2 .5-4 .9-6 1.1l-1.1.1c-1.1.6-2.2 1.2-3.2 1.9-3.5 2.4-6.6 5.4-9.3 8.7-1.4 1.6-2.5 3.4-3.4 5.3-.4.9-.8 1.7-1.1 2.6-2.5 6.8-2.5 14.5-1.4 21.7.5 4.1 1.8 8.1 3.8 11.7 2.2 3.5 5.2 6.4 8.8 8.4-.4-.1-.7-.3-1.1-.4-2.5-.7-4.9-2-6.8-3.7-2.4-2.2-4.1-4.9-5.1-8-1.8-5-2.6-10.2-2.3-15.5.1-1.2.3-2.5.4-3.8z" fill="#f0785e"/><path d="m323 71.2c-3.8-5.7-12.4-6.8-19.3-7s-15.3 1.6-19.3 7.1c-1.1.4-2.1-1.1-1.7-2.3.6-1.2 1.5-2.1 2.6-2.8 6.3-4.3 13.5-5 20.8-4.3 1.9.2 3.8-.4 5.7-.2 5.3.7 9.7 4.3 11.4 9.3z" fill="#faa235"/><path d="m284.1 204.2v.6l-15.5-.1v-.7c-.3-6.1-.4-12.2-.1-18.3.2-4.8.9-10.3 4.8-13.1v-.3c3.5.1 7.1.2 10.6.3v.3c-.2 4.3.4 25.6.2 31.3z" fill="#c45188"/><path d="m284.1 204.2c.2-5.7-.4-27-.2-31.4v-.3c4.4.1 8.8.2 13.3.3.8.2 1.9 3.8 1.9 4.7 0 8.8-.6 17.9-.6 26.7v.6c-2.4 0-4.9 0-7.3 0-2.3 0-4.7 0-7.1 0z" fill="#6d62d1"/><path d="m280.2 99.8c0-1.1 0-2.2 0-2.8.7.1 1.5.2 2.1.3.7-.6 1.5-1.1 2.4-1.5v3.5l.2.2c2.6-2.8 6.3-1.9 10.1-1.9 7-.1 14 .6 20.8 2.1.5 0 .9.3 1.2.7.3.6-.3 1.4-.9 1.8-1.7 1.2-3.6 2.2-5.7 2.7-2.1.6-4.2.8-6.3.9-1.7 0-3.4-.1-5.1-.3-2.5-.3-5-.8-7.4-1.3-3.5-.7-4.7-1.7-7-4.4z" fill="#f0785e"/><path d="m279.3 102.6c.9 0 1.8.6 1.7 1.5s-.9 1.6-1.9 1.5c-.1 0-.2 0-.3 0-.8-.3-1.2-1.2-.9-2 .1-.1.1-.3.2-.4.4-.4.8-.6 1.2-.6z" fill="#faa235"/><path d="m278.8 412.2c.3.6-1.5 1.7-2.2 1.9-1.4.1-1.7-2.9-.4-3.3 1.7-.6 2.2.7 2.6 1.4z" fill="#c45188"/><path d="m241.6 399.2c2.3 4.5 4.1 9.2 5.1 14.2.6 2.7.9 5.8-.4 8.2-2.3 4.1-8.5 4.6-12.3 1.8s-3.3-3.6-5.6-7.2c-1.7-2.8-2.9-5.8-3.7-9-4-14.3-6.4-29.1-7.1-43.9 7.8-8.4 19.7-15 31-16.6 4-.6 8.4-.6 11.8 1.5s4.7 5 2.4 8.2c-1.5 2.1-3.6 5.2-6.1 5.9l-17 4.9h-.4c-1 4.5-.1 12.2 3.6 14.9 4.4-4.3 11.1-4.4 17.3-5 2.3-.2 5 .1 6.2 2.1.5.9.7 1.8.8 2.8.3 2 .6 3.9.9 5.8.3 2.2.5 4.4-.8 6.2-2.1 2.8-6.2 2.4-9.6 2-5.5-.6-11.1.5-15.9 3.1z" fill="#ec3b33"/><path d="m257.9 96.1c2.4-.1 5-.1 7.9 0v.2c-.6 4.4-.3 8.9.9 13.3h-.2c-1.1-.3-2.2-.1-3.2.5-.5.4-.8 1-.8 1.6l-4.5.1c-.2-5-.4-10.1-.5-15.7z" fill="#f0785e"/><path d="m266.6 109.5c-1.1-4.3-1.4-8.8-.9-13.3v-.2c.8 0 1.6 0 2.4.1v.1c1 4.1.7 9.7-1.5 13.3z" fill="#faa235"/><path d="m263.2 110c.9-.6 2.1-.8 3.2-.5h.2c1 .2 2 .4 3 .3.9.2 0 2.3 0 3.2l-5 .1c-.6.1-1.1-.1-1.6-.3-.4-.3-.6-.7-.6-1.2 0-.6.3-1.2.8-1.6z" fill="#faa235"/><path d="m262.4 171.9 10.8.3v.4c-3.9 2.8-4.6 8.3-4.8 13.1-.2 6.1-.2 12.2.1 18.3v.7c-3.4 0-6.8 0-10.2 0v-.3c-1.1-4.7-1.8-9.5-2-14.3-.3-3.4 0-6.8 1.1-10.1s1.5-6.7 4.8-7.6z" fill="#6d62d1"/><path d="m279.3 102.6c-.4.1-.8.2-1.1.5-.5.7-.4 1.7.3 2.2.1.1.3.2.4.2.9.2 1.8-.3 2.1-1.2 0-.1 0-.2 0-.3.1-.8-.7-1.4-1.7-1.4zm-19.5 32h-.7c-.4-8.1-.9-15.4-1.2-22.9l4.5-.1c0 .5.2.9.6 1.2.5.3 1.1.4 1.6.3l5-.1c.1-.9.9-3 0-3.2-1 0-2-.1-3-.3 2.1-3.6 2.5-9.2 1.5-13.3 4.1.1 8.4.5 12 .9v2.8l4.6.1c2.3 2.8 3.4 3.8 7 4.4 2.5.5 4.9 1 7.4 1.3-8.8 7.1-14.8 18.3-16.4 29.7l-.6-.1c-5.6-.9-13-.8-18.7-.7-1 0-2.7 0-3.6 0z" fill="#f0785e"/><path d="m263.4 134.6c5.8-.1 13.1-.1 18.7.7l.6.1c-.2 1.3-.3 2.6-.4 3.9h-.1c-7.5.5-15 .2-22.4-.8h-.5c-.1-1.3-.1-2.6-.2-3.8h.7c.9-.1 2.6-.1 3.6-.1z" fill="#faa235"/><path d="m259.5 159.8c3.1-2 6.4-3.6 9.9-4.6l.2-.2c.9.7 1.9 1.4 2.9 2.2-4.7 1.5-9.2 3.5-13.5 6h-.2c.1-.9.2-2.1.3-3.4z" fill="#c45188"/><path d="m280.2 97.1c-3.7-.5-7.9-.8-12-.9-.8 0-1.6 0-2.4-.1-2.8 0-5.5 0-7.9 0h-.4c0-.6 0-1.3 0-1.9 0-.2 0-.4 0-.6 3.1-1.3 6.6-.6 9.9-.1 5.7.6 11.5.6 17.1-.1h.3v2.5c-.9.4-1.7.9-2.4 1.5-.7-.1-1.4-.2-2.2-.3z" fill="#faa235"/><path d="m256.4 39.5c.3 3.6.2 7.3-.2 11-.5.7-15.1-4.3-20.2-7.7-2.3-1.5-6.3-4-5.8-6.7s5.4-3.5 8.2-3.8c5.6-.6 11.2-.3 16.7.9v.1c10.3 2.7 15.7 4.6 23.2 10.9 1.1.8 1.9 1.9 2.4 3.2.7 2.3-1.1 4.7-3.3 5.7-1.5.7-3.2.7-7.1.5-4-.4-7.9-1.2-11.8-2.5h-.6c.2-3.3.6-6.6 1-9.9-.5-.6-1.1-1-1.7-1.3-.1-.3-.5-.4-.8-.4z" fill="#ec3b33"/><path d="m249.5 98.3c-.1-1.3.1-2.6.7-3.7 1-1.2 2.6-1.5 4-.9h.4c.1 13.6.6 27.2 1.4 40.9h-6.4c.1-2.7.2-5.4.3-8.1l-.2-.8c-1.5.4-3.1.3-3.7-1s.3-2.7 1.6-3.3c.7-.3 1.4-.4 2.1-.4v-.5z" fill="#faa235"/><path d="m262.4 172.4c-3.3.9-3.7 4.3-4.8 7.6-1.1 3.2-1.4 6.7-1.1 10.1.2 4.8.9 9.6 2 14.3v.3c-2.7 0-5.3 0-8 0v-.2c-2.1-7.5-3.5-13.9-3-21.7.3-4 3.5-9.2 5.6-10.6v-.4l9.4.2z" fill="#c45188"/><path d="m253.3 304.2c.1 2.3 0 4.8-1.6 6.5-1.4 1.4-3.5 1.6-5.5 1.8-17.5 1.2-35 1.2-52.4 0-3-.2-6.3-.6-8.1-3-1.3-1.7-1.5-4-1.6-6.1l-1.7-33.1c-.2-3.1 0-6.8 2.7-8.3 1.2-.6 2.5-.9 3.8-.9 20.9-1.4 41.8-1.4 62.6-.1 1.4 2 .6 5.4.7 7.9.4 11.7.8 23.5 1.1 35.3z" fill="#63bdc6"/><path d="m255.7 134.6h.3c.1 1.2.2 2.4.3 3.6h-.3c-1.3-.6-5.1 1-6.1 0-.4-.5-.5-1.1-.4-1.7 0-.6 0-1.3.1-1.9z" fill="#faa235"/><path d="m244.9 157.7c.7-.8 1.4-1.5 2-2.3l.3.3c1.6 1.2 6.2 3.3 7.8 4.5h.4c0 1.2-.1 2.2-.1 3h-.3c-2.4-1.5-7.3-3.7-9.7-5.2l-.1-.1z" fill="#f0785e"/><path d="m273.3 172.2-10.8-.3-9.4-.2c-2.6-.1-5.2-.1-7.8-.2l-5.7-.1-2.9-.1 10.1-.2c2.2 0 4.4-.1 6.7-.1 1.2 0 2.4 0 3.7-.1 10.9-.2 21.8-.4 32.6-.4.4.2.6.4.7.3.3-.1.5-.2.7-.3 3.8 0 7.6.1 11.5.2.6 0 1.5-.6 2.1-.6 3.9 1.3 7.9 2.4 12 3.1v.1l-7.1-.2c-4.1-.1-8.3-.2-12.4-.3-4.4-.1-8.8-.2-13.3-.3-3.6-.2-7.2-.3-10.7-.3z" fill="#c45188"/><path d="m245.2 171.5c2.6 0 5.2.1 7.8.2v.4c-2.1 1.4-5.3 6.6-5.6 10.6-.6 7.8.8 14.2 3 21.7v.2h-8.1v-.2c-2.9-8.2-2.9-11.5-2.8-20.2 0-1.5.4-9.3 1.1-10.7.7-1.1 3.1-2 4.6-2z" fill="#6d62d1"/><path d="m242.8 155.7c4.3-4.8 9.3-9.8 13.5-13.6h.2c-.1-1.3-.2-2.6-.3-3.9s-.2-2.4-.3-3.6c-.9-13.6-1.4-27.2-1.4-40.9 0-7.8.1-15.7.3-23.5-.3-7.7.7-13.8 1.4-19.8.4-3.6.5-7.3.2-11 .3 0 .6.1.9.2.7.3 1.3.7 1.7 1.3-.4 3.2-.7 6.5-1 9.9-1.2 14.4-1.4 28.9-.6 43.3v1.9c.1 5.5.3 10.7.5 15.7.3 7.6.8 14.9 1.2 22.9 0 1.3.1 2.5.2 3.8 0 .9.1 1.8.1 2.7 1 1 17.3 16.3 26.4 22.7 1.6 1 3 2.2 4.2 3.6.9 1.2 1.8 2.4 1 3h-1.4c-2.5-1.6-10.8-8.3-17.3-13.4-1-.8-2-1.5-2.9-2.2-1.8-1.4-3.2-2.4-4.1-3-2.1-1.2-3.9-2.8-5.4-4.6h-.3c0 3.6-.3 8.7-.7 12.5-.1 1.3-.2 2.5-.3 3.4 0 .7-.2 1.5-.3 2.2-.9.7-2.2.6-3-.3-.1-.6-.2-1.1-.1-1.7 0-.8 0-1.8.1-3 .2-4.8.7-12 1.1-15-3 3.2-6.3 6.6-9.6 10.1-.7.7-1.4 1.5-2 2.3-2.9 3.1-5.4 6.5-7.7 10.1-1.2 1.9-1.4 2.3-2.5 2.3-.5 0-1.2-.1-2.4-.2 0-1.7 4.7-7.7 10.6-14.2z" fill="#c45188"/><path d="m239.5 171.3 5.7.1c-1.6 0-4 .9-4.5 2-.7 1.3-1.1 9.2-1.1 10.7-.1 8.7-.1 12 2.8 20.2v.2h-8.2l-1 .1-2-27.1c-.2-1.5-.1-3 .4-4.4.5-1.1 1.5-1.8 2.7-1.9h.1.3 1.9.1z" fill="#c45188"/><path d="m237.2 167.8c2.2-3.6 4.8-7 7.7-10.1l.3.3.1.1-.1.2c3.2 3.9 6 8.2 8.3 12.7-2.2.1-4.4.1-6.7.1l-10.1.2h-.1-1.9v-1.2c1.1 0 1.3-.4 2.5-2.3z" fill="#f0785e"/><path d="m235.5 236.8-2.1-28.5h.3c.7 0 1.4.1 2.2.1 17.7 1 35.4-1.6 53 0 4.2.4 8.4 1.1 12.6 1.5 5.3.6 10.6.8 16 1.1l45.3 2.2.4.1c-1.9 7.3-4.4 16.9-6.2 24v.2c-19.1.1-38.3.1-57.4.2-6.2 0-12.5 0-18.7.1-15.1 0-30.2.1-45.3.1zm66.1-18.3c.4-.9.5-1.8.6-2.7-1.5-.5-3.2-.7-4.8-.7-2 0-4.1-.1-6.1-.2-.4 0-1 .1-1.1.5-.2.6.3 3.1.9 3.1 2.7 0 5-.1 7.7 0 .9.1 1.9.1 2.8 0z" fill="#6d62d1"/><path d="m217.5 171.2c1.4 0 2.8-.1 4.2-.1h6.2c2.1 0 4.2.1 6.2.1-1.2.1-2.2.8-2.7 1.9-.5 1.4-.7 2.9-.4 4.4l2 27.1c.1 1.2.2 2.4.3 3.6l2.1 28.5v1.2l-48.2.2v-.5c-2.8-20.2-5.3-40.4-7.6-60.6v-.5c2.5-.8 5.1-1.4 7.7-2 3.1-.7 6.2-1.3 9.4-1.7 6.9-1 13.9-1.5 20.8-1.6zm-21.1 12.4c-3.4 3.3-4.7 8.8-4.7 13.5 0 5 1.9 9.8 5.2 13.5 2.6 3.1 6.1 5.1 10 5.9 4 .7 8-.6 10.8-3.6 1.3-1.7 2.3-3.6 2.9-5.6 1.2-3.8 1.9-7.7 2-11.6s-.5-8.1-3-11.1c-2-2.4-5.1-3.7-8.1-4.5-2.7-.9-5.6-1-8.5-.5-2.8.7-4.3 2-6.3 4.1zm25.4 43.9c1.2-1.7.1-5.9-1.8-5.1-1.9.2-3.3 1.9-3.1 3.8 0 .2 0 .3.1.5.7 1.9 3.7 2.5 4.8.8zm-21.8-2.7c.2-1.2-.1-2.4-.9-3.3-.8-.7-2-.8-2.9-.2-.7.3-.5.6-1 1.2-.3.6-.5 1.3-.4 2 0 1.4.1 3.1 1.3 3.7 1.9 1 3.7-1.4 3.9-3.4z" fill="#6d62d1"/><path d="m235.8 208.4c-.7 0-1.5-.1-2.2-.1h-.3c-.1-1.2-.2-2.4-.3-3.6l1-.1h8.2 8.1 8 10.2l15.5.1h7.1 7.3c3.2 0 6.4.2 9.6.4.8.1 1.6.1 2.3.2 3 .3 6 .7 9 1 1.4.2 2.8.3 4.2.5 2 .2 3.9.4 5.9.5 2.5.2 5 .3 7.4.4 1.9.1 3.8.2 5.7.2 2.3.1 4.6.1 7 .1s4.8 0 7.1 0h7.4l.4.1c-.4 1.4-.7 2.9-1.1 4.3-.1.3-.1.5-.2.8l-.4-.1-45.3-2.2c-5.3-.3-10.7-.5-16-1.1-4.2-.4-8.4-1.1-12.6-1.5-17.6-1.6-35.3 1-53 .1z" fill="#c45188"/><path d="m221.8 171.1c-3.1-5.2-6.8-11.3-10.8-17.8.9-.4 1.7-.9 2.4-1.6.2-.3.4-.5.6-.9 5 7.4 9.8 14.3 14.1 20.2v.1z" fill="#4acbb8"/><path d="m220 222.4c1.9-.7 3 3.5 1.8 5.1s-4.2 1-4.8-.8c-.5-1.9.7-3.7 2.5-4.2.2-.1.4-.1.5-.1z" fill="#ec3b33"/><path d="m221.8 171.1c-1.4.1-2.8.1-4.2.2-2.8-5-6.1-10.9-9.7-17.2 1.1 0 2.2-.2 3.2-.6 3.8 6.3 7.6 12.4 10.7 17.6z" fill="#4acbb8"/><path d="m213.9 150.9c-.1.3-.3.6-.6.9-.7.7-1.5 1.2-2.4 1.6l-10.9-17.8.2-.2c.8-.6 1.7-.9 2.6-1.1 3.8 5.7 7.5 11.3 11.1 16.6z" fill="#4acbb8"/><path d="m323.3 317.2c-48.7-.5-168.8-1.1-238.5-2.7.9-20.7 1.8-38.3.3-58.9v-1c74.4-2.3 149.7-.9 224.8.6v3.1c-8.5-.1-15.6.6-27.8 1.7-2.3.2-4.8.5-6.6 2-2.4 2.1-2.5 5.7-2.5 8.9 0 11.8 0 23.5.1 35.3 0 1.5.1 3.2 1.3 4 .7.4 1.4.6 2.2.7 15.6 2 31.2 3 46.9 3zm-129.5-4.8c17.5 1.2 35 1.2 52.4 0 2-.1 4.1-.4 5.5-1.8 1.6-1.6 1.7-4.2 1.6-6.5-.4-11.8-.7-23.6-1.1-35.4-.1-2.5.7-5.9-.7-7.9-20.9-1.3-41.8-1.3-62.6.1-1.3 0-2.6.3-3.8.9-2.7 1.6-2.8 5.3-2.7 8.3l1.7 33.1c.1 2.1.3 4.4 1.6 6.1 1.8 2.5 5.1 2.9 8.1 3.1z" fill="#eadac7"/><path d="m212.1 197.8c.1 1.9-1.4 3.6-3.3 3.7-.3 0-.7 0-1-.1-1.4-1.3-1.9-4.6-.7-6.1 1.7-.9 3.9-.1 4.7 1.6.2.3.3.6.3.9z" fill="#c45188"/><path d="m205 183.2c1.1-.5 2.4-.6 3.5-.3 4 1.8 3.8 1.2 7.1 4.2 3.2 2.9 4.8 7.3 4.2 11.6-.4 4.4-1.4 8.2-4.4 11.5-.8 1-1.7 1.8-2.8 2.4-2 .9-4.3 1-6.3.3-8.3-2.3-13.3-10.9-11-19.2 1.4-4.9 4.9-8.8 9.7-10.5zm2.9 18.2c1.8.5 3.6-.5 4.2-2.3.5-1.8-.5-3.6-2.3-4.2-.9-.3-1.9-.1-2.7.3-1.1 1.6-.6 4.9.8 6.2z" fill="#ec3b33"/><path d="m211 153.3c-1 .4-2.1.6-3.2.6-3-5.2-6.2-10.8-9.5-16.5.4-.7 1-1.4 1.7-1.9z" fill="#4acbb8"/><path d="m211.7 139.3c1.7 2.8 2.6 6 2.5 9.3 0 .8-.1 1.6-.4 2.3-3.6-5.3-7.3-10.9-11-16.6 1.1-.1 2.2 0 3.3.3 2.4.8 4.4 2.5 5.6 4.7z" fill="#4acbb8"/><path d="m207.8 153.9c-.7 0-1.4-.2-2-.6-2.5-1.8-4.7-3.9-6.5-6.5-1.3-2.1-3.1-6.2-1-9.5 3.3 5.9 6.5 11.4 9.5 16.6z" fill="#4acbb8"/><path d="m195.3 222.5c.4-.6.2-.9 1-1.2.9-.6 2.1-.6 2.9.2.8.9 1.2 2.1.9 3.3-.2 2-2 4.4-3.9 3.5-1.2-.6-1.4-2.3-1.3-3.7-.1-.8.1-1.5.4-2.1z" fill="#ec3b33"/><path d="m211.3 180.1c3 .8 6.1 2.1 8.1 4.5 2.6 3 3.1 7.2 3 11.1s-.8 7.9-2 11.6c-.6 2-1.6 3.9-2.9 5.6-2.7 2.9-6.8 4.3-10.8 3.6-3.9-.7-7.4-2.8-10-5.9-3.3-3.7-5.1-8.5-5.1-13.5 0-4.8 1.3-10.2 4.7-13.5l.1.1c2.1-2.1 3.6-3.5 6.3-4.1 3-.5 5.9-.4 8.6.5zm-6.3 3.1c-8.1 3-12.2 12-9.2 20.1 1.8 4.7 5.7 8.3 10.6 9.6 2.1.7 4.3.6 6.3-.3 1.1-.6 2-1.4 2.8-2.4 2.9-3.3 3.9-7.1 4.4-11.5.6-4.3-1-8.7-4.2-11.6-3.3-3-3.1-2.4-7.1-4.2-1.3-.4-2.5-.3-3.6.3z" fill="#c45188"/><path d="m186.1 154.4c-.1-.7-.3-1.3-.7-1.9l3.8-.3c.9 1.3 1.9 2.6 3 3.8.7.6 1.2 1.2 1.6 2 .3.9.4 1.8.2 2.8 0 4 .9 8 2.6 11.7v.4c-3.2.4-6.3 1-9.4 1.7v-.1c-1.4-2-2.1-4.4-2-6.8-.4-2.9 1.5-10.5.9-13.3z" fill="#4acbb8"/><path d="m185.5 152.5c-.6-.7-1.5-1.3-2.4-1.8-3.8-2.3-5.2-7.1-5.9-11.5s.4-15.4 4.2-22.7l.5-.2v.1l.2-.1c1.6 2.3 1 .6 2.2 3-4.9 7.8-1 23.8 5 33z" fill="#4acbb8"/><path d="m172.6 67c-1.1-.2-2-.9-2.5-1.9-.4-.7-.5-1.3-.1-1.7 2.3-1.1 4.1 3 2.6 3.6z" fill="#4acbb8"/><path d="m169.1 61.7c-1 0-1.8-1-2.1-2.2-.2-.5-.2-1.1-.2-1.7 1.9-1.3 4.5 2.3 2.7 3.8-.2.1-.3.1-.4.1z" fill="#4acbb8"/><path d="m163.8 422.5c2.8 1.4 3.8 4.8 4.5 7.8l-.2.3c.2 2.6-.2 5.2-1.4 7.6-.4.9-1.1 1.7-1.9 2.2-1.7.9-3.7 0-5.4-1-3.6-2.3-6.9-5-9.9-8-.3-1.5-.6-3.2.5-4.3 1.2-1.1 2.5-2 3.9-2.7 3.1-1.8 6.8-3.5 9.9-1.9z" fill="#faa235"/><path d="m166.1 56c-1.8-.5-3.8-.9-3.4-3.1.4-1.4 2.7-1.4 3.7-.3s1.3 3.3-.3 3.4z" fill="#4acbb8"/><path d="m157.3 55.1c3 0 5.5 2.3 5.7 5.3 0 .4 0 .8.1 1.3.4 2.1 1.4 4 2.9 5.5 1.4 1.5 2.6 3.3 3.5 5.1v.2c7.3 13.2 27 44 28.9 46.4l.1-.1c5.7-4.2 14.2-1.9 19 3.3s6.7 12.3 8.1 19.2c.2 1.4.7 2.8 1.6 4 .9.9 2 1.6 3.2 2 4.6 2 8.7 4.8 12.3 8.2l.2.2c-5.9 6.5-10.6 12.5-10.5 14.2 1.1 0 1.8.2 2.4.2v1.2c-.1 0-.2 0-.3 0h-.1c-2.1 0-4.1-.1-6.2-.1-4.3-5.9-9.1-12.8-14.1-20.2.3-.7.4-1.5.4-2.3 0-3.3-.9-6.5-2.5-9.3-1.2-2.2-3.2-3.9-5.6-4.7-1.1-.3-2.2-.4-3.3-.3-1 .1-1.9.5-2.6 1.1l-.2.2c-.7.5-1.3 1.1-1.7 1.9-2 3.3-.3 7.4 1 9.5 1.8 2.5 3.9 4.7 6.5 6.5.6.4 1.3.6 2 .6 3.6 6.4 6.9 12.2 9.7 17.2-7 .1-13.9.6-20.8 1.6v-.4c-1.7-3.6-2.6-7.6-2.6-11.7.1-.9 0-1.9-.2-2.8-.4-.8-.9-1.4-1.6-2-1.1-1.2-2.1-2.4-3-3.8-6-9.1-10-25.2-5-33-1.2-2.4-.6-.6-2.2-3l-.2.1s0 0 0-.1c-3.8-9.1-22.8-39.2-23.8-40.3l-.2-.2c-.9-2.7-4-3.7-6.5-5.1-2.5-1.5-4.5-3.9-5.5-6.6-.2-.6-.4-1.2-.6-1.9-.3-1-.1-2.1.5-2.9.6-.7 2.1-2.1 3.4-3.4 2.6-1 4.9-1.6 7.8-.8z" fill="#f0785e"/><path d="m156.6 416c-2.2 4-6.1 7.5-10.7 7.8-.4.1-.8 0-1.1-.2-.3-.3-.5-.6-.6-1-1.4-3.9-2.7-7.8-4.1-11.8-.2-1.8.3-2.4 2.1-2.7 1.9-.2 3.7.2 5.3 1.1 2.9 1.3 5.7 2.8 8.4 4.6.5.2.8.6 1 1.2 0 .3-.1.7-.3 1z" fill="#faa235"/><path d="m152.4 77.7c-3-.5-4.6-1-3.7-3.6 3.9-.5 4.3 1.2 3.7 3.6z" fill="#4acbb8"/><path d="m145.7 434.6c2.1-.6 9.5 8.4 11.8 13.6.5.9.7 1.9.3 2.9-.3.5-.8.9-1.4 1.2-3.1 1.7-6.4 2.8-9.9 3.3-1.3.2-2.8.1-3.5-.9-.4-.9-.5-1.9-.2-2.9 1.1-5.2 1.4-12 2.5-17.2z" fill="#faa235"/><path d="m146.1 71.4c.5 1 .2 2.1-.7 2.7-1.1.5-3.7-1.6-1.7-3.7v-.1c1 0 1.8.4 2.4 1.1z" fill="#4acbb8"/><path d="m142.7 69.5c-1.9 0-3.8-4.1-1.7-4.9l.2.1c1 0 1.8.5 2.2 1.5.6 1.1.5 2.7-.5 3.4-.1-.1-.2-.1-.2-.1z" fill="#4acbb8"/><path d="m177.5 431.7c.8 7.9-5 15-10.7 20.8-3.7 3.8-7.7 7.5-12.6 9.6-9.7 4.2-21.4 1.1-29.6-5.6-1.9-1.5-3.7-3.3-5.2-5.2-4.7-5.9-7-13.2-6.5-20.7l.2-.9c-.7-6.2 1-12.4 4.8-17.4 3.8-4.9 8.9-8.7 14.8-10.8 3.4-1.3 7-2 10.6-2 3.9.2 7.8 1 11.4 2.5 6.4 2.4 12.1 6.3 16.5 11.5 4.4 5.3 6.9 11.5 6.3 18.2zm-38.1-8.2c-.1-1.5-.8-3-1.8-4.1-1.2-1.7-2.6-3.2-4-4.7-.8-1.1-2-1.9-3.3-2.3-1.3-.3-3 .4-3.2 1.8l.1.1c-2.3 3.3-3.9 7.1-4.7 11.1-.2 1-.2 2.3.7 2.8.6.2 1.2.3 1.8.1 4.3-.8 8.5-1.7 12.6-2.9.5-.1.9-.3 1.3-.7.4-.3.6-.8.5-1.2zm18.1 24.7c-2.3-5.2-9.7-14.2-11.8-13.6h-.4c-1.1 5.2-1.4 12-2.5 17.2-.3.9-.3 2 .2 2.9.7 1.1 2.3 1.1 3.5.9 3.5-.5 6.8-1.6 9.9-3.3.6-.3 1-.7 1.4-1.2.4-1 .3-2.1-.3-2.9zm-8-16.9c3 3 6.3 5.7 9.9 8 1.6 1 3.7 1.9 5.4 1 .8-.5 1.5-1.3 1.9-2.2 1.2-2.4 1.6-5 1.4-7.6l.2-.3c-.7-3-1.7-6.4-4.5-7.8-3.1-1.5-6.8.1-9.8 1.8-1.4.7-2.8 1.6-3.9 2.7-1.1 1.3-.9 2.9-.6 4.4zm-9.5-20.6c1.4 3.9 2.7 7.8 4.1 11.8.1.4.3.7.6 1 .3.2.7.3 1.1.2 4.6-.2 8.5-3.7 10.7-7.8.2-.3.3-.7.3-1-.2-.5-.5-.9-1-1.2-2.6-1.8-5.5-3.3-8.4-4.6-1.6-.9-3.5-1.2-5.3-1.1-1.8.4-2.2.9-2.1 2.7zm-1.8 27c.2-1.2 3-5.4.4-5.9l-8.4 1.2c-1.6.1-3.2.5-4.7 1.2s-2.6 2.1-2.8 3.8c0 1 .2 2 .7 2.9 1.6 3.7 3.5 7.3 5.9 10.6 2.9-3.2 5.5-6.7 7.6-10.4.6-1.1 1.1-2.2 1.3-3.4z" fill="#eadac7"/><path d="m140.3 353.5c1.1.5 1.6 1.9 1 3-.5 1.1-1.9 1.6-3 1-.6-1.1-.8-2.4-.7-3.7.9-1 1.7-.8 2.7-.3z" fill="#f0785e"/><path d="m138.6 431.8c2.6.6-.2 4.8-.4 5.9-.3 1.2-.7 2.2-1.4 3.2-2.1 3.8-4.6 7.3-7.6 10.4-2.4-3.3-4.3-6.8-5.9-10.6-.4-.9-.7-1.9-.7-2.9.2-1.7 1.2-3.1 2.8-3.8 1.5-.7 3.1-1.1 4.7-1.2z" fill="#faa235"/><path d="m140.3 353.5c-1-.5-1.8-.7-2.6.3-.1 1.3.1 2.6.7 3.7 1.1.5 2.4.1 3-1 .5-1.1 0-2.5-1.1-3zm-6.2-2c-.8-2.8-1.3-7.7 1-9.4s9.2-.7 12.1-.5l10.8-.7c.8-.2 1.7.1 2.3.6.7 1 .4.7.7 1.7.3 6.9.5 13.8.8 20.6.1.8 0 1.7-.4 2.4-.6 1.1-2 1.4-3.2 1.6-4.1.8-8.4 1-12.6.9-3.4-.1-7.2-.8-9.2-3.5-1.3-1.8-1.5-4-1.7-6.2z" fill="#ec3b33"/><path d="m127.3 414.2c.1-1.4 1.7-2.1 3.1-1.8 1.3.4 2.4 1.2 3.3 2.3 1.4 1.5 2.8 3.1 4 4.7 1 1.1 1.7 2.6 1.8 4.1 0 .4-.1.9-.4 1.2-.4.3-.8.6-1.3.7-4.2 1.2-8.4 2.1-12.6 2.9-.6.2-1.2.1-1.8-.1-.9-.5-.9-1.8-.7-2.8.8-4.1 2.4-7.9 4.6-11.2z" fill="#faa235"/><path d="m296.4 349.1.2.2c-9.3 10-11.8 24.8-10.2 38.3 1.1 9.5 4.5 19.3 11.9 25.5 7.4 6.1 19.6 7 26.1 0 1.8-2 3.2-4.3 4.1-6.8 6.6-16.2 1.3-35.7-10.1-49-2.8-3.3-6-6.3-10.1-7.8s-8.8-3.2-11.9-.4zm-190.2-3.1v-4.6h-11.4l.3 5c3.7-.3 7.4-.4 11.1-.4zm117.4 113.7c-5.1-.7-7.8-1.2-8.7-2.6l-11.6-18c-1.4-2.2-3-4.6-5.3-5.8s-4.8-1.3-7.4-1.4c-1.3 0-2.5-.1-3.8-.1h-.2c-1-10.7-6.5-20.8-13.2-29.3-3.2-4.1-6.8-8.1-11.4-10.7-3.1-1.7-6.5-2.8-10-3.5-12.4-2.4-25.9-.2-36.1 7.4s-16.3 20.4-14.6 32.8l-.4.1v.5c-1.2 0-3.6 0-4.7 0-3-.1-6.2-.1-8.8 1.5-2 1.2-3.4 3.3-4.7 5.3-.5.7-.9 1.5-1.4 2.2l-.6-.4c1.3-33.1 2.1-78.5 1.4-111.7 34.6.2 69.1.3 103.7.5l124 .6c45.8.2 91.5.4 137.3.6l1.3-.1v.4c1.4 22.9 2.7 46.1 2.8 69.3.1 18.2-.4 36.3-2.1 54.2l.5.3c-.7 1.4-1.7 2.6-3 3.4-1.7.9-3.7 1.3-5.6 1.4l-71.8 6.2c-13.5 1.2-27 2.3-40.5 1.7-13.1-.6-26.1-2.8-39.2-3.4-21.7-1.1-44.2 2.4-65.9-1.4zm-62.5-116.5c-.3-1 .1-.7-.7-1.7-.6-.6-1.5-.8-2.3-.6l-10.8.7c-2.9-.2-9.7-1.1-12.1.5s-1.8 6.6-1 9.4l.8 7.6c.2 2.2.5 4.4 1.7 6.2 2 2.7 5.8 3.4 9.2 3.5 4.2.2 8.4-.1 12.6-.9 1.2-.2 2.5-.6 3.2-1.6.4-.8.5-1.6.4-2.4-.5-7-.8-13.8-1-20.7zm240.9 62.6c1.2 0 2.3-.9 2.3-2.2 0-.2 0-.3 0-.5-.3-1.3-.7-2.1-2-1.5-.7 0-1.4.4-1.7 1.1-.6 1-.3 2.3.7 2.9.1.1.4.2.7.2zm-7.1-23.8c1.5-2.2.8-5.1-.1-7.6-.5-1.5-.1-4.1-1.3-5.2-2-1.8-5.9-.5-8.5-.2l-16.2 2.3c-.7.2-1.4.1-2-.2-.5-.3-.8-.8-1-1.4-1.6-3.6-1.9-7.7-.8-11.5 5.8.4 11.7.2 17.5-.6 2.2-.2 4.4-.8 6.4-1.8 5.3-2.8 7.3-9.3 4.5-14.6-1.3-2.4-3.5-4.3-6.1-5.2-2.5-.7-5-.9-7.6-.5-12.6 1.1-24.8 5.3-35.6 12-.3 5.3 1 10.6 2.3 15.8 4.1 15.2 8.6 30.2 13.7 45.1.9 2.6 1.6 6.8 4.2 7.6 1.7.6 4-1.2 5.6-2.2 3.2-2.1 4.8-6.2 4.6-10.1s-3.7-9.2-5.5-12.7h-.3c-1.4-3.2.1-7 3.4-8.3.2-.1.4-.2.6-.2 1.5-.3 3.1-.2 4.6.2 4.5.9 9 2.6 13.5 1.6 1.6-.2 3.1-1.1 4.1-2.3zm-50.1 28.8c1.9 1.2 2.6-.9 2.3-1.6v-.1c-.4-1-1.6-1.5-2.6-1.1-1 .2-1.2 2.3.3 2.8zm-68.2 3.2c.7-.2 2.5-1.2 2.2-1.9s-.9-1.9-2.6-1.5c-1.3.4-1 3.4.4 3.4zm-9.3-20c1.4-1.8 1.2-3.9.8-6.2-.3-2-.6-3.9-.9-5.8-.1-1-.4-1.9-.8-2.8-1.2-2-3.9-2.3-6.2-2.1-6.1.5-12.8.7-17.3 5-3.8-2.6-4.6-10.4-3.6-14.9h.4l17-4.9c2.5-.7 4.6-3.8 6.1-5.9 2.4-3.3 1.1-6.1-2.4-8.2s-7.8-2.1-11.8-1.5c-11.4 1.6-23.2 8.2-31 16.6.7 14.8 3 29.5 7.1 43.8.7 3.2 2 6.2 3.7 9 2.3 3.6 1.9 4.4 5.6 7.2s10 2.3 12.3-1.8c1.3-2.5 1-5.5.4-8.2-1-4.9-2.8-9.7-5.1-14.2l.2-.1c4.9-2.6 10.4-3.7 15.9-3.1 3.4.4 7.5.8 9.6-1.9z" fill="#fbc94a"/><path d="m106.2 341.3v4.6c-3.7 0-7.4.1-11.1.4l-.3-5z" fill="#fbc94a"/><path d="m118 412.3c-3.8 5-5.5 11.2-4.8 17.4l-.2.9c-.5 7.5 1.8 14.9 6.5 20.7 1.5 1.9 3.3 3.6 5.2 5.2 8.2 6.7 19.9 9.8 29.6 5.6 4.9-2.1 8.8-5.8 12.6-9.6 5.7-5.7 11.5-12.9 10.7-20.8.6-6.8-1.9-12.9-6.2-18.2-4.4-5.2-10.1-9.1-16.5-11.5-3.6-1.5-7.5-2.4-11.4-2.5-3.6 0-7.2.7-10.6 2-6 2.1-11.1 5.9-14.9 10.8zm-16.7 16.1c-1.7-12.4 4.5-25.3 14.6-32.8s23.7-9.8 36.1-7.4c3.5.6 6.9 1.8 10 3.5 4.6 2.6 8.2 6.6 11.4 10.7 6.7 8.6 12.2 18.6 13.2 29.3.2 1.6.2 3.1.2 4.7v.1c-.8 9.3-6.4 18.3-12.9 24.9-7.6 7.6-18 12.1-28.7 13.4-7.2.9-14.7.3-21.3-2.8-7.7-3.7-13.5-10.8-17-18.6-3.5-7.7-4.9-16-5.8-24.4 0-.2 0-.3 0-.5z" fill="#63bdc6"/><path d="m85.1 255.5c1.5 20.6.7 38.2-.3 58.9-12.2-.3-22.8-.6-31.2-.9-3.8-1-7.9-.7-11.6.8-1.9.9-3.4 2.5-4 4.5l-3-.7c3.9-15.7 8.9-31.1 16.5-45.3 3.3-6.3 7.4-12.2 12.2-17.5 7.1-.3 14.2-.5 21.4-.8z" fill="#eadac7"/><path d="m67.8 444.4c1.6-.3 3.2.4 3.9 1.8.9 1.7.6 3.8.1 5.8 0 .2-.1.4-.2.7-.7 2.9-1.7 5.7-3 8.3-.3.7-.7 1.3-1.2 1.7-.8.4-1.8.6-2.7.5-6.4-.1-11-2.5-17.2-.9-4.7.5-8.4-.7-13.2-.1-2.7.3-6.1.3-7.6-2-.6-1.2-.9-2.6-.7-4 .2-2.8.7-5.5 1.7-8.2.3-1.4 1.2-2.6 2.5-3.4.7-.2 1.5-.4 2.2-.3h2.4l31.2-.1c.6 0 1.2.1 1.8.2z" fill="#f0785e"/><path d="m38 318.9c-.7 1.7-.4 3.7.9 5.1 1.7 1.7 4.4 1.8 6.8 1.9l36.6.2c.6 33.1-.1 78.6-1.4 111.7l.6.4c-3.1 4.9-6.2 9.9-9.3 14.8l-.5-.1c.1-.2.1-.4.2-.7.5-1.9.8-4-.1-5.8-.7-1.4-2.3-2.2-3.9-1.8-.6-.1-1.2-.2-1.7-.2l-31.2.1c-6.1-40.9-3.4-80.7-.8-122 .3-1.4.7-2.8 1-4.2z" fill="#fbc94a"/><g fill="none" stroke="#f0785e" stroke-miterlimit="10" stroke-width=".5"><path d="m151.6 229-1.7.2c-13.7 1.7-27.3 3.3-41 5-6.6.8-13.3 1.6-19.6 3.7-10 3.3-18.6 9.5-25.7 17.3-4.8 5.3-8.9 11.1-12.2 17.5-7.5 14.3-12.5 29.7-16.4 45.4-.4 1.4-.7 2.8-1 4.2"/><path d="m34 322.2v.2c-2.5 41.3-5.3 81 .8 122"/><path d="m68.9 445c-.3-.3-.7-.5-1.2-.6-.6-.1-1.2-.2-1.7-.2l-31.2.1h-2.4c-.8 0-1.5.1-2.2.3-1.2.7-2.1 1.9-2.5 3.4-.9 2.6-1.5 5.4-1.6 8.2-.2 1.4.1 2.8.7 4 1.5 2.3 4.8 2.3 7.6 2 4.7-.5 8.4.7 13.2.1"/><path d="m85.1 255.5c1.5 20.6.7 38.2-.3 58.9"/><path d="m82.3 326c.6 33.1-.1 78.6-1.4 111.7"/><path d="m53.6 313.5c-3.8-1-7.9-.7-11.6.8-1.9.9-3.4 2.5-4 4.5-.7 1.7-.4 3.7.9 5.1 1.7 1.7 4.4 1.8 6.8 1.9l36.6.2c34.6.2 69.1.3 103.7.5l124 .6c45.8.2 91.5.4 137.3.6"/><path d="m53.6 313.5c8.5.3 19.1.6 31.2.9 69.8 1.6 189.9 2.2 238.5 2.7 11 .1 18.3.2 20.6.4 25.3 1.2 54.2.1 79.2-.5 7.1-.2 13.9-.3 20.2-.4h4.1"/><path d="m149.9 229.3c3.6-1.3 6.5.1 10.3.8-1.3 2.4.3 5.5 2.7 6.8s5.2 1.3 7.9 1.3h16.6l48.2-.2c15.1 0 30.2 0 45.3-.1 6.2 0 12.5-.1 18.7-.1 19.1 0 38.2-.1 57.4-.2h11.7c8.7 0 17.4 0 26.1.6 4.5.3 9.1.8 13.7 1.2 9.4.8 18.8 1.2 27.8-1.3"/><path d="m438.9 230.5c6.5-.4 13-.5 19.6-.3 1.4 0 2.8.1 4.2.2h.5"/><path d="m436.7 237.6c0-2.3.1-4.6.1-6.9.7 0 1.3-.1 2-.1"/><path d="m462.6 230.5c28.8 2.8 56.4 5.2 85.2 7.9 6.7.7 13.6 1.3 19.9 3.8 7.7 3 14.2 8.4 19.7 14.5.1 0 .1.1.2.2"/><path d="m86.1 334.6c12.7 0 25.4.3 38.1.8"/><path d="m86.6 341.3h37.3"/><path d="m87.1 347c2.7-.3 5.3-.5 8-.7 3.7-.3 7.4-.4 11.1-.4 5.5 0 10.9.3 16.3.8"/><path d="m86.6 352.4c11.7-1.6 23.6-2 35.4-1.3"/><path d="m87.1 357.8c2.7-.4 7.2-.5 9.9-.9 10.6-1.2 14-1 25-.1"/><path d="m87.8 363.5 32.5-1.5"/><path d="m87.2 369c12.3-.5 24.7-.8 37-.8"/><path d="m87.8 374.4c12.9-1.5 25.9-1.3 38.7.6"/><path d="m140.3 353.5c-1-.5-1.8-.7-2.6.3-.1 1.3.1 2.6.7 3.7 1.1.5 2.4.1 3-1 .5-1.1 0-2.5-1.1-3z"/><path d="m147.2 341.5c-2.9-.2-9.7-1.1-12.1.5s-1.8 6.6-1 9.4"/><path d="m161.1 343v.1c.3 6.9.5 13.8.8 20.6.1.8 0 1.7-.4 2.4-.6 1.1-2 1.4-3.2 1.6-4.1.8-8.4 1-12.6.9-3.4-.1-7.2-.8-9.2-3.5-1.3-1.8-1.5-4-1.7-6.2l-.8-7.6"/><path d="m147.2 341.5 10.8-.7c.8-.2 1.7.1 2.3.6.7 1 .4.7.7 1.7 0 .1.1.2.1.3"/><path d="m63.6 255.3c7.1-.3 14.2-.5 21.4-.8 74.4-2.3 149.7-.9 224.8.6 19.3.4 38.6.8 57.9 1.1 45.6.8 91.1 1.4 136.2.8"/><path d="m503.8 257.1h.1c18.6 1.7 37.2 2.2 55.8 1.6 2.2-.1 4.4-.2 6.6-.3 5.1-.2 10.2-.5 15.3-.9l5.4-.4"/><path d="m448 317.2v.5c.2 3.3.4 6.6.6 9.9v.4c1.4 22.9 2.7 46.1 2.8 69.3.1 18.2-.4 36.3-2.1 54.2"/><path d="m546.4 406.5c3.1 4.3 5.4 9.6 7.5 14.5.3.6.6 1.3.9 1.9 4 7.9 11.3 15.3 19.8 16.7l.7.1"/><path d="m522.7 393.5c2.9.8 6 1.9 8.8 3 2.2.8 4.1 1.6 5.6 2.2 3.6 1.5 6.6 4 8.9 7.1"/><path d="m451.7 397.3c17.1 1.2 32.2-1.1 48.4-3.1 4.8-.6 9.7-1.2 14.8-1.6h.6c2.4 0 4.8.3 7.2 1"/><path d="m604.8 331.4c-.6-.5-2.9-1.9-3.7-1.7-.3 1.1-.4 2.3-.2 3.4.2 1.7.9 3.3 1.9 4.7 2.3-1.2 3.2-4 2-6.2 0-.1-.1-.2 0-.2"/><path d="m612.1 420c-.1-.3-.4-.5-.7-.7-1-.4-2.2-.1-2.9.8-.7 1.2-1 2.7-.8 4.1.1 2.1.4 4.7 2.4 5.5.3.1.7.2 1 .2 1.7-.2 3.1-1.4 3.5-3.1.5-2-.1-4-.7-6-.3-1-1.1-2.3-2.1-1.9-.2.1-.4.2-.5.4-.2.5-.4 1.1-.3 1.6.1 2.8.2 5.7.2 8.5"/><path d="m472 348.7c-1.6-.7-3.4-.8-5-.2-1.8.8-3.5 1.9-5 3.2-1.2-2-4-4.2-6-3s-2.7 5.5-.5 6.6c1.5.7 3.2 1.2 4.9 1.3 2.2.1 4.3.8 6.5 1 2.1.2 4.2-.6 5.5-2.3.8-1 1.2-2.3 1.1-3.6-.2-2.1-.4-2.6-1.5-3z"/><path d="m472.7 349.2c-.2-.2-.5-.3-.7-.5"/><path d="m496.1 264.5c1.3 16.1 2.1 33.7 2 49.8"/><path d="m499.5 264.5c1.3 15.7 3.9 33.6 4.2 49.4v.5"/><path d="m459.2 263.7c10.5 1.4 21.2 1.6 31.8.8 1.4-.1 2.7-.2 4.1-.4"/><path d="m499.5 264.5c7.6-1 15.2-1.3 22.8-.8 4.3.3 8.8 1 12.4 3.5s5.8 6.7 7.8 10.7c5.9 11.8 11.6 23.7 17 35.7.1.2.2.5.3.7"/><path d="m457.6 264.5c1.7 16.7 2 48.7 2.6 48.7"/><path d="m386.8 274.6c8.2 4.7 16.5 9.3 24.7 14"/><path d="m379.5 279.6c7.8 5.3 15.8 10.2 24.1 14.6"/><path d="m282.9 271.3c16 9.4 32.5 18 49.4 25.7"/><path d="m288.1 286.2 5 2.4"/><path d="m633.7 384.8c-1.1-1.8-2.7-3.3-4.5-4.2"/><path d="m628.4 381.2c-2.7 8.1-3.5 16.7-2.2 25.1 0 1.1.5 2.1 1.4 2.8.2.1.5.2.7.3 1.6.2 3.2-1.7 4-3.4 1-2.1 1.9-4.3 2.5-6.5.7-2.3 1.1-4.7 1.1-7.2-.1-2.7-.8-5.3-2.2-7.5"/><path d="m633.7 384.8c-.7-3.8-2-5.8-3.4-6.6-2.4-1.4-5.1.3-6.3 1.7-1.9 2.2-2.4 5.2-2.7 8-.8 6.6-.9 13.3-.3 20 0 1.7.5 3.3 1.3 4.7 1 1.3 3 2 4.3 1.1s1.4-2.6 1.6-4.3c.2-1.4.4-2.7 1.5-3.4"/><path d="m597.3 319.7c1.6 4.3 2.8 8.8 3.5 13.4"/><path d="m566.5 259.2c7.2 11.5 11.4 25.2 18.7 36.6 4.9 7.5 9 15.5 12.1 23.8"/><path d="m602.8 337.5v.3c.5 2.3.9 4.6 1.4 6.9 2 9.9 4 19.8 5.9 29.7 1.6 8 3.2 16.1 3.3 24.3.1 6.1-.8 14.1-1.6 20.2"/><path d="m611.3 429.4c0 .1-.1.2-.1.4-.7 2.4-1.1 4.9-1.1 7.5"/><path d="m574.5 439.8c-5.8.1-6 1.9-6.4 6.3s2.4 8.4 6.2 10.6l.3.2c3.9 2.1 8.5 2.5 12.9 2.5s8.9-.4 13.3.2 8.8 2.5 13.2 2.2c2.5-.3 5-.8 7.4-1.5 5.2-1.1 10.6-.7 15.9-.1 1.6.2 3.3.4 4.7-.4.7-.5 1.4-1 1.9-1.7 2.3-2.5 4.7-5.4 4.8-8.8.1-3.8-2.8-7.2-6.3-8.7-2.6-1.1-5.5-1.7-8.3-1.7-1 0-1.9-.1-2.9-.1l-21-.7-16.8-.5c-6.1-.2-12.4-.3-18 2"/><path d="m578.9 444.8c20.5-2.9 38.7 2.8 59.2 0"/><path d="m579.5 451.9c19.7 1.1 39.3 1.1 59 0"/><path d="m448.7 328c30.1.6 65.1 2.9 95.2 3.5 18.9.4 43.7 3.9 60.3 13.2.4.2.8.4 1.1.6"/><path d="m604.8 345 .6.3c6 3 10.7 8.1 14.4 13.7 3.8 5.8 7.1 13.2 10.6 19.2"/><path d="m581.7 257.7c.1.7.2 1.4.3 2.1 1.7 8.9 6.9 16.8 12 24.4 6.3 9.3 12.7 18.6 19.2 27.9 1 1.5 2 2.9 3.1 4.4"/><path d="m616.3 316.5c16.9 33 26.9 75 23.4 112.5-.3 3.3-.7 6.6-1.3 9.9"/><path d="m635.6 399.5c1.3 8.4 3.7 20.8 4 29.5v.5"/><path d="m66.8 444.9c.3-.3.6-.5 1-.6 1.6-.3 3.2.4 3.9 1.8.9 1.7.6 3.8.1 5.8 0 .2-.1.4-.2.7-.7 2.9-1.7 5.7-3 8.3-.3.7-.7 1.3-1.2 1.7-.8.4-1.8.6-2.7.5-6.4-.1-11-2.5-17.2-.9"/><path d="m186.8 431.7c1.3 0 2.5.1 3.8.1 2.5.1 5.2.2 7.4 1.4s3.9 3.6 5.3 5.8l11.6 18c1 1.5 3.6 2 8.7 2.6"/><path d="m72.1 452.8c3.1-4.9 6.2-9.9 9.3-14.8.5-.7.9-1.5 1.4-2.2 1.3-2 2.6-4.1 4.7-5.3 2.6-1.6 5.8-1.5 8.8-1.5h4.7.2"/><path d="m557.3 439.3 10.7 15.9c.7 1.4 1.9 2.4 3.3 3.1 1.5.5 2.3.2 2.8-1.3"/><path d="m219.2 458.8c1.5.3 3 .6 4.4.9 21.7 3.8 44.2.3 66.2 1.3 13.1.6 26.1 2.8 39.2 3.4 13.5.6 27-.6 40.5-1.7l71.8-6.2c1.9 0 3.9-.5 5.6-1.4 1.3-.8 2.3-2 3-3.4.6-1.2 1.2-2.4 1.7-3.7 4.7-11.6 11.7-22.6 21.5-30"/><path d="m448.7 317.6c10 .6 75.5-.3 119.2.8 11.9.3 22.2.7 29.3 1.3"/><path d="m251.5 260.9c-20.9-1.3-41.8-1.3-62.6.1-1.3 0-2.6.3-3.8.9-2.7 1.6-2.8 5.3-2.7 8.3l1.7 33.1c.1 2.1.3 4.4 1.6 6.1 1.8 2.4 5.1 2.8 8.1 3 17.5 1.2 35 1.2 52.4 0 2-.1 4.1-.4 5.5-1.8 1.6-1.6 1.7-4.2 1.6-6.5-.4-11.8-.7-23.6-1.1-35.4-.1-2.4.8-5.8-.7-7.8z"/><path d="m327.2 259.6-1-.2"/><path d="m327.2 259.6c-7.1-.8-12.5-1.2-17.4-1.3-8.5-.1-15.6.6-27.8 1.7-2.3.2-4.8.5-6.6 2-2.4 2.1-2.5 5.7-2.5 8.9 0 11.8 0 23.5.1 35.3 0 1.5.1 3.2 1.3 4 .7.4 1.4.6 2.2.7 15.6 2 31.2 3 46.9 3 4.3 0 8.6-.1 12.9-.2 1.9.1 3.9-.3 5.6-1.2 3-1.9 3.6-6 3.8-9.6.5-11.9.1-23.9-1.3-35.7.3-2.6-1.7-5-4.3-5.2-.2 0-.4 0-.5 0z"/><path d="m423.2 262.2c-20.8-.7-34.8-.6-55.5-1.3-1.3 0-2.8 0-3.8.8-.8.9-1.2 2-1.3 3.2-2.2 14.6-3 29.4-2.4 44.1-.1 1 .2 2 .7 2.9.8.9 1.9 1.4 3.1 1.5 9.4 2 19 2 28.7 2 10.5 0 13.7-.5 24.3-.5 1 0 3.4 0 6.1-.1 3.9-.2 8.3-.5 9.5-1.3 3.3-2.3 2.5-6.7 2.5-10.7-.1-9.4-.2-18.8-.4-28.2 0-3.3-.3-5.1-2-7.9s-5.5-4.6-9.5-4.5"/><path d="m563.2 263.4c-1 0-2.1 0-3.2.1-5 .3-11.3 1-15.6 1-.7 0 .1.2-.3.7-.3.5-.5 1.1-.4 1.7.3 4.8 2.3 9.2 4.4 13.5 4.7 9.9 9.5 19.8 14.3 29.7.6 1.7 1.7 3.1 3.1 4.2.8.6 1.7.9 2.7.9.5 0 1.1 0 1.8-.1 4.7-.3 3-.5 7.7-.8 1-.1 6.1.1 6.9-.5 1.4-1.1 2-2.9 1.6-4.6-.5-1.7-1.4-3.2-2.5-4.6-9.2-12.7-14.5-26.7-20.5-41.2"/><path d="m582 259.9c-2 .3-8.6.5-10.6.8-.1 3.3 2.8 6.8 4.3 9.7 7 13.3 13.3 26.2 20.3 39.5 1 1.8 2.2 4 4.2 4.4.9.2.9-.1 1.8-.3l10.9-1.7"/><path d="m503.2 313.8h.6c5.5.5 16.4.1 21.6.2 11.8.3 14.5.3 22.2-1 .1 0 11.7.6 11.8.6"/><path d="m459.7 313.2c.1.1.3.2.4.3 4.2 1.9 31.1.4 38 .9"/><path d="m217.6 363.2c.7 14.9 3.1 29.6 7.1 43.9.7 3.2 2 6.2 3.7 9"/><path d="m217.6 363.2c7.8-8.4 19.7-15 31-16.6 4-.6 8.4-.6 11.8 1.5s4.7 5 2.4 8.2c-1.5 2.1-3.6 5.2-6.1 5.9l-17 4.9"/><path d="m239.3 367.2c-1 4.5-.1 12.2 3.6 14.9"/><path d="m243 382c4.4-4.3 11.1-4.4 17.3-5 2.3-.2 5 .1 6.2 2.1.5.9.7 1.8.8 2.8.3 2 .6 3.9.9 5.8.3 2.2.5 4.4-.8 6.2-2.1 2.8-6.2 2.4-9.6 2-5.5-.6-11.1.5-15.9 3.1"/><path d="m241.5 399s.1.1.1.2c2.3 4.5 4.1 9.2 5.1 14.2.6 2.7.9 5.8-.4 8.2-2.3 4.1-8.5 4.6-12.3 1.8s-3.3-3.6-5.6-7.2"/><path d="m304.2 368.3c-4 7.3-4.1 11.9-1.1 19.7.6 1.8 1.7 3.4 3.2 4.7 1.5 1.2 3.6 1.5 5.4.8 1.7-.8 2.6-2.5 3.4-4.2 1.9-4 3.6-8.5 2.8-12.9s-3.5-10.8-8-10.3c-2.8.4-3.6.2-5.7 2.2z"/><path d="m296.6 349.3c-9.3 10-11.8 24.8-10.2 38.3 1.1 9.5 4.5 19.3 11.9 25.5 7.4 6.1 19.6 7 26.1 0 1.8-2 3.2-4.3 4.1-6.8 6.6-16.2 1.3-35.7-10.1-49-2.8-3.3-6-6.3-10.1-7.8s-8.9-3.2-12-.4c-.1 0-.1.1-.1.1"/><path d="m344.1 347.5c-.3 5.3 1 10.6 2.3 15.8 4.1 15.2 8.6 30.2 13.7 45.1.9 2.6 1.6 6.8 4.2 7.6 1.7.6 4-1.2 5.6-2.2 3.2-2.1 4.8-6.2 4.6-10.1s-3.7-9.2-5.5-12.7"/><path d="m344.1 347.5c10.7-6.7 22.9-10.9 35.6-12 2.5-.3 5.1-.2 7.6.5 5.7 1.9 8.7 8 6.8 13.7-.9 2.6-2.7 4.8-5.2 6.1-2 1-4.2 1.6-6.4 1.8-5.8.8-11.7 1-17.5.6"/><path d="m365 358.2c-1.1 3.8-.8 7.8.8 11.5.2.5.5 1 1 1.4.6.3 1.3.3 2 .2l16.2-2.3c2.6-.4 6.6-1.6 8.5.2 1.2 1.1.8 3.7 1.3 5.2.8 2.5 1.6 5.5.1 7.6-1 1.2-2.4 2.1-4 2.3-4.5.9-9-.7-13.5-1.6-1.5-.4-3.1-.5-4.6-.2-3.4 1-5.3 4.6-4.2 7.9.1.2.1.4.2.6"/><path d="m276.2 410.6c-1.3.4-1 3.4.4 3.3.7-.2 2.5-1.2 2.2-1.9s-.9-1.8-2.6-1.4z"/><path d="m347.1 409.2c-.4-1-1.6-1.5-2.6-1.1-.9.1-1.2 2.3.3 2.8 1.9 1.2 2.6-.9 2.3-1.6"/><path d="m402.3 401.6c-.7 0-1.4.4-1.7 1.1-.6 1-.3 2.3.7 2.9.2.1.5.2.7.3 1.2 0 2.3-.9 2.3-2.2 0-.2 0-.3 0-.5-.4-1.4-.8-2.2-2-1.6z"/><path d="m197.1 275.5 23.2 18.5"/><path d="m194.4 285.2c2.8 1.1 5.5 2.6 7.8 4.5"/><path d="m227.9 269.1c5.3 3.8 10.2 8.1 14.7 12.8"/><path d="m468.6 289.7c3.4 2.6 6.4 5.8 8.7 9.5"/><path d="m441 114.7c-1.5-.9-3.6.3-4.2 1.9-.5 1.7.5 3.4 2.2 3.9h.2c.5.1 1 0 1.4-.2 1.2-.4 2.1-1.5 2.2-2.8 0-.3 0-.7-.1-1-.3-.8-.9-1.5-1.7-1.8"/><path d="m440.7 120.9 3.9 4.7 1.1 1.4c.3.3.5.6.8 1l.2.3"/><path d="m442.9 116.6c2.6 5 5.5 9.8 8.9 14.3-.5 1.4-2.7.5-3.4-.7s-1.6-2.3-2.6-3.2"/><path d="m444.6 125.6c.4 30.9.8 62.4 1.2 93.3"/><path d="m446.4 128.1c1.1 32 1.9 65.2 2.2 97.2"/><path d="m445.8 218.9c-.2 2.1-.4 3.8-.6 5.8v.5"/><path d="m445.8 218.9c.4-.5 1.8 0 2.4 0 .3 2.5.1 3.9.4 6.3v.3c-1-.5-2.4-.5-3.4-.9"/><path d="m435.6 226.3c1.2-.5 2.4-.8 3.7-1.1 4.2-1.3 8.9.9 13.2 1.8 2.5.5 5.1 1.1 7.1 2.8-.3.3-.7.5-1.1.5-.5.1-1 .2-1.5.1-5.5 0-10.9.1-16.4.2-.5 0-1.1 0-1.6 0h-.1c-.9 0-1.8-.3-2.6-.8-1.3-1-2-2.7-.7-3.5"/><path d="m234.2 171.2c-2.1 0-4.1-.1-6.2-.1h-6.2c-1.4 0-2.8 0-4.2.1-7 .1-13.9.6-20.8 1.6-3.2.4-6.3 1-9.4 1.7-2.6.5-5.2 1.2-7.7 2"/><path d="m236.6 171.3h-1.9c-.1 0-.2 0-.3 0"/><path d="m316.6 173.3-7.1-.2c-4.1-.1-8.3-.2-12.4-.3-4.4-.1-8.8-.2-13.3-.3-3.5-.1-7.1-.2-10.6-.3l-10.8-.3-9.4-.2c-2.6-.1-5.2-.1-7.8-.2l-5.7-.1-2.9-.1"/><path d="m361.4 174.8h-1.2c-.7 0-1.4-.1-2.1-.1h-1.2l-5.8-.2-4.9-.2"/><path d="m403.6 176.5c-14.1-.7-28.2-1.3-42.2-1.8"/><path d="m179.7 177c2.3 20.2 4.9 40.4 7.6 60.6"/><path d="m403.6 176.5c1-.1 2.1-.2 3.1-.2 2.4-.2 4.9.3 7 1.6 2.3 1.8 3.7 4.4 3.8 7.3.2 2.8-.1 5.7-.8 8.5-2.8 14.9-5.6 29.8-8.4 44.7"/><path d="m208.5 182.9c-1.2-.3-2.4-.2-3.5.3-8.1 3-12.2 12-9.2 20.1 1.8 4.7 5.7 8.3 10.6 9.6 2.1.7 4.3.6 6.3-.3 1.1-.6 2-1.4 2.8-2.4 2.9-3.3 3.9-7.1 4.4-11.5.6-4.3-1-8.7-4.2-11.6-3.4-3-3.2-2.4-7.2-4.2z"/><path d="m207.1 195.3c1.6-.9 3.6-.4 4.6 1.2.9 1.6.4 3.6-1.2 4.6-.8.5-1.8.6-2.7.3"/><path d="m207.1 195.3c-1.2 1.5-.6 4.8.7 6.1"/><path d="m196.2 221.3c-.7.3-.5.6-1 1.2-.3.6-.5 1.3-.4 2 0 1.4.1 3.1 1.3 3.7 1.8.9 3.6-1.4 3.9-3.5.2-1.2-.1-2.4-.9-3.3-.9-.6-2-.7-2.9-.1z"/><path d="m220 222.4c-1.9.2-3.3 1.9-3.1 3.8 0 .2 0 .3.1.5.7 1.9 3.7 2.5 4.8.8s.1-5.8-1.8-5.1z"/><path d="m386.5 197.8c-1 .5-1.2 2.7-.6 3.8.8 1.1 2.2 1.4 3.4.8 1.1-.7 1.8-1.9 1.7-3.2.1-1.1-.4-2.1-1.3-2.7-1-.6-3 .3-3.2 1.3z"/><path d="m388.5 185.9h-.3c-4.6 0-8.8 3-11.1 7s-2.3 8.8-2 13.5c.2 2.9 4.9 7.3 6 7.4 3.9.3 7.8.8 11-1.3 1.9-1.2 3.4-2.8 4.6-4.7 2.2-4 3.5-8.8 2-13.1s-5.3-8.8-9.9-8.8"/><path d="m369.1 222.6c-.9.1-1.6.5-2.1 1.2-.5 1.1-.6 2.4-.3 3.6 1.6.5 3.3-.1 4.2-1.5.8-1.4.6-3-1.8-3.3z"/><path d="m398 221.9c-1.2 0-3.2 1.5-2.6 3.4s4 2.1 4.9.2-.2-3.9-2.3-3.6z"/><path d="m398.2 222c-.1 0-.1 0-.2 0"/><path d="m378.7 186.5c-4.9 4.2-5.6 11.4-6 17.8-.2 3.1-.3 6.5 1.6 9.1 1.7 2.3 4.6 3.4 7.5 3.6 6.8.5 13.4-2.8 17.1-8.6 3.5-5.9 3.7-13.2.4-19.2-1.8-3.2-4.8-6-8.4-6.6-4.7-.7-8.4 1.2-12.2 3.9z"/><path d="m196.7 183.4-.2.2c-3.4 3.3-4.7 8.8-4.7 13.5 0 5 1.9 9.8 5.2 13.5 2.6 3.1 6.1 5.1 10 5.9 4 .7 8-.6 10.8-3.6 1.3-1.7 2.3-3.6 2.9-5.6 1.2-3.8 1.9-7.7 2-11.6s-.5-8.1-3-11.1c-2-2.4-5.1-3.7-8.1-4.5-2.7-.9-5.6-1-8.5-.5-2.8.7-4.3 2-6.3 4.1"/><path d="m235.1 171.4c-.2-.1-.5-.2-.7-.2h-.1c-1.2.1-2.2.8-2.7 1.9-.5 1.4-.7 2.9-.4 4.4l2 27.1c.1 1.2.2 2.4.3 3.6l2.1 28.5"/><path d="m348.4 173.5c3.2.3 6.5.6 9.7 1 .7.1 1.4.1 2.1.2h.6c.2 0 .4 0 .6.1 1.4.1 2.8.5 4.1 1.2 2.9 1.9 3.3 6 3.1 9.5-.7 7.7-2 15.3-4.1 22.8-.4 1.4-.7 2.9-1.1 4.3-.1.3-.1.5-.2.8-1.9 7.3-4.4 16.9-6.2 24"/><path d="m235.6 171.3h1 .1l10.1-.2c2.2 0 4.4-.1 6.7-.1 1.2 0 2.4 0 3.7-.1 10.9-.2 21.8-.4 32.6-.4h1.4c3.8 0 7.6.1 11.5.2.6 0 1.5-.6 2.1-.6"/><path d="m234.1 204.5h8.2 8.1 8 10.2l15.5.1h7.1 7.3c3.2 0 6.4.2 9.6.4.8.1 1.6.1 2.3.2 3 .3 6 .7 9 1 1.4.2 2.8.3 4.2.5 2 .2 3.9.4 5.9.5 2.5.2 5 .3 7.4.4 1.9.1 3.8.2 5.7.2 2.3.1 4.6.1 7 .1s4.8 0 7.1 0h7.4"/><path d="m236.4 208.4h-1.4"/><path d="m233.6 208.2c.7 0 1.4.1 2.2.1 17.7 1 35.4-1.6 53 0 4.2.4 8.4 1.1 12.6 1.5 5.3.6 10.6.8 16 1.1l45.3 2.2"/><path d="m302.1 215.8c-1.5-.5-3.2-.7-4.8-.7-2 0-4.1-.1-6.1-.2-.4 0-1 .1-1.1.5-.2.6.3 3.1.9 3.1 2.7 0 5-.1 7.7 0 .9.1 1.8.1 2.8 0 .4-.8.6-1.8.6-2.7z"/><path d="m350.5 174.2c.2.1.3.1.5.2 2.3 1.3 3.6 5.2 3.9 7.7.1 2.8-.3 5.5-1.1 8.2-1.4 5.4-2.8 12.1-4.2 17.5"/><path d="m356.8 174.6c2.4 1.2 3.6 4.5 4 7.1.2 2.7 0 5.3-.6 7.9-1.2 6.5-2.3 12.1-3.5 18.5"/><path d="m343.8 174.8.3.1c1.5.8 2.6 3.4 2.9 4.9.3 1.7.3 3.5 0 5.2-.9 7.7-2.4 15.3-4.5 22.8"/><path d="m246.1 171.6c-.3-.1-.6-.1-.9-.1-1.6 0-4 .9-4.5 2-.7 1.3-1.1 9.2-1.1 10.7-.1 8.7-.1 12 2.8 20.2"/><path d="m253 172.1c-2.1 1.4-5.3 6.6-5.6 10.6-.6 7.8.8 14.2 3 21.7"/><path d="m262.4 172.4c-3.3.9-3.7 4.3-4.8 7.6-1.1 3.2-1.4 6.7-1.1 10.1.2 4.8.9 9.6 2 14.3"/><path d="m273.3 172.5c-3.9 2.8-4.6 8.3-4.8 13.1-.2 6.1-.2 12.2.1 18.3"/><path d="m283.9 172.8c-.2 4.4.4 25.7.2 31.4"/><path d="m297.2 172.8c.8.2 1.9 3.8 1.9 4.7 0 8.8-.6 17.9-.6 26.7"/><path d="m309.6 173.9c3.1 4.7 1.4 20 .8 31.5"/><path d="m318.2 173.5c2.2 1.4 3.5 4.9 3.9 7.5.3 2.6.2 5.3-.3 7.9-1 6.2-2.3 16.5-2.4 17.6v.1"/><path d="m328.7 175.2c3 1.7 3.1 5 3 8.4-.3 8.5-2.5 15.3-2.2 23.8v.2"/><path d="m337.5 175.4c3.1 3.4 3.2 6.1 2.3 12-1.1 7.3-.4 13.3-2.8 20.4"/><path d="m245.2 158.3c3.2 3.9 6 8.2 8.3 12.7.1.1.1.3.2.4"/><path d="m198.5 118.8c5.7-4.2 14.2-1.9 19 3.3s6.7 12.3 8.1 19.2c.2 1.4.7 2.8 1.6 4 .9.9 2 1.6 3.2 2 4.6 2 8.7 4.8 12.3 8.2"/><path d="m181.3 116.5c-3.7 7.3-4.8 18.3-4.2 22.7s2.1 9.3 5.9 11.5c.9.4 1.7 1 2.4 1.8.3.6.6 1.2.7 1.9.5 2.8-1.3 10.4-.8 13.2"/><path d="m200.3 135.4-.2.2c-.7.5-1.3 1.1-1.7 1.9-2 3.3-.3 7.4 1 9.5 1.8 2.5 3.9 4.7 6.5 6.5.6.4 1.3.6 2 .6 1.1 0 2.2-.2 3.2-.6.9-.4 1.7-.9 2.4-1.6.2-.3.4-.5.6-.9.3-.7.4-1.5.4-2.3 0-3.3-.9-6.5-2.5-9.3-1.2-2.2-3.2-3.9-5.6-4.7-1.1-.3-2.2-.4-3.3-.3-1.2 0-2.1.4-2.8 1"/><path d="m169.5 72.5c7.3 13.2 27 44 28.9 46.4 0 0 0 .1.1.1"/><path d="m157.3 55.1c-2.8-.8-5.1-.2-8 .7-1.3 1.3-2.8 2.7-3.4 3.4-.6.8-.8 1.9-.5 2.9.1.6.3 1.3.6 1.9 1 2.8 3 5.1 5.5 6.6 2.4 1.5 5.6 2.5 6.5 5.1"/><path d="m156.6 55.2c.2 0 .4 0 .7-.1 3 0 5.5 2.3 5.7 5.3 0 .4 0 .8.1 1.3.4 2.1 1.4 4 2.9 5.5 1.4 1.5 2.6 3.3 3.5 5.1"/><path d="m163.4 55.3-1.8 1.7"/><path d="m162.7 52.9c-.4 2.3 1.6 2.7 3.4 3.1 1.6-.1 1.3-2.3.3-3.5s-3.3-1-3.7.4z"/><path d="m166.6 59.6c-1.4 0-2.7.8-3.4 2"/><path d="m166.7 57.8c0 .6.1 1.1.2 1.7.3 1.1 1.1 2.2 2.1 2.2h.4c1.8-1.5-.8-5.1-2.7-3.9"/><path d="m170 65.2c-.8.9-1.8.9-2.6 1.8"/><path d="m170 63.5c-.4.3-.3 1 .1 1.7.5 1 1.4 1.6 2.5 1.9 1.6-.7-.3-4.8-2.6-3.6"/><path d="m145.8 64c-.6 1.5-1 1.4-2.4 2.1h-.1"/><path d="m140.9 64.6c-2 .9-.1 4.9 1.7 4.9h.2c1.1-.7 1.1-2.2.5-3.4-.3-.9-1.2-1.5-2.2-1.5"/><path d="m149.2 69c-1.3.7-1.6 1.6-2.9 2.4"/><path d="m143.7 70.5c-2 2 .5 4.2 1.7 3.7.9-.6 1.2-1.8.7-2.7-.6-.7-1.5-1.1-2.4-1.1"/><path d="m153.8 72.3c-.7.9-1 1.4-1.7 2.3"/><path d="m148.8 74.1c-.9 2.6.6 3.1 3.7 3.6.5-2.4.1-4.1-3.7-3.6z"/><path d="m156.6 59.6v-.7"/><path d="m158.1 76c1 1.1 20 31.2 23.8 40.3v.1.1"/><path d="m184.3 119.2c-4.9 7.8-1 23.8 5 33 .9 1.3 1.9 2.6 3 3.8.7.6 1.2 1.2 1.6 2 .3.9.4 1.8.2 2.8 0 4 .9 8 2.6 11.7"/><path d="m182.1 116.2c1.6 2.3 1 .6 2.2 3"/><path d="m150.4 61c4.2 1.9 28 41.9 48 76.4 3.3 5.7 6.5 11.3 9.5 16.5 3.6 6.4 6.9 12.2 9.7 17.3"/><path d="m161.6 67c.4 2.3 20.7 35.9 41.3 67.3 3.7 5.7 7.4 11.2 11 16.6 5 7.4 9.8 14.3 14.1 20.2"/><path d="m156.6 59.6c-1 3.2 22.4 41.6 43.5 75.9l10.9 17.8c4 6.5 7.7 12.5 10.8 17.8"/><path d="m185.4 167.3v.3c-.1 2.4.6 4.8 2 6.8"/><path d="m228.8 154.5c2.7 1.9 5.1 4.3 7 7"/><path d="m255.6 33.2-.4-.1c-5.5-1.1-11.1-1.4-16.7-.9-2.8.3-7.7 1-8.2 3.8s3.5 5.2 5.8 6.7c5.2 3.4 19.7 8.4 20.2 7.7"/><path d="m255.1 33.2c10.3 2.7 15.7 4.6 23.2 10.9 1.1.8 1.9 1.9 2.4 3.2.7 2.3-1.1 4.7-3.3 5.7-1.5.7-3.2.7-7.1.5-4-.4-7.9-1.2-11.8-2.5"/><path d="m256.4 39.5c.3 3.6.2 7.3-.2 11-.6 6-1.7 12.1-1.4 19.8"/><path d="m259.1 41c-.4 3.2-.7 6.5-1 9.9-1.2 14.4-1.4 28.9-.6 43.3"/><path d="m254.8 70.2c-.2 7.8-.3 15.7-.3 23.5.1 13.6.6 27.2 1.4 40.9.1 1.2.2 2.4.3 3.6s.2 2.6.3 3.9"/><path d="m257.4 93.3v.2.6 1.9c.1 5.5.3 10.7.5 15.7.3 7.6.8 14.9 1.2 22.9 0 1.3.1 2.5.2 3.8 0 .9.1 1.8.1 2.7v.5"/><path d="m256.3 142.2c-4.2 3.8-9.2 8.9-13.5 13.6-5.9 6.5-10.6 12.5-10.5 14.2 1.1 0 1.8.2 2.4.2 1 0 1.3-.4 2.5-2.3 2.2-3.6 4.8-7 7.7-10.1.7-.8 1.4-1.5 2-2.3 3.2-3.5 6.6-6.9 9.6-10.1"/><path d="m260.1 147.2c1.5 1.8 3.4 3.4 5.4 4.6.9.6 2.3 1.7 4.1 3 .9.7 1.9 1.4 2.9 2.2 6.4 5 14.8 11.8 17.3 13.4.4.2.6.4.7.3.3-.1.5-.2.7-.3.7-.6-.1-1.8-1-3-1.2-1.4-2.6-2.6-4.2-3.6-9.1-6.4-25.4-21.7-26.4-22.7"/><path d="m256.5 145.3c-.4 3-.9 10.1-1.1 15 0 1.2-.1 2.2-.1 3 0 .6 0 1.1.1 1.7.8.9 2.1 1 3 .3.2-.7.3-1.4.3-2.2.1-.9.2-2.1.3-3.4.3-3.8.7-8.9.7-12.5v-.5"/><path d="m245.2 158 .1.1c2.4 1.5 7.4 3.7 9.7 5.2"/><path d="m247.2 155.7c1.6 1.2 6.2 3.3 7.8 4.5"/><path d="m269.4 155.2c-3.5 1.1-6.8 2.6-9.9 4.6"/><path d="m272.5 157.2c-4.7 1.5-9.2 3.5-13.5 6"/><path d="m284.2 71.6c.1-.1.1-.2.2-.3 4-5.5 12.4-7.2 19.3-7.1s15.5 1.2 19.3 7"/><path d="m326.7 72.5c.4-.2.8-.4 1.2-.6.6-.3 1.3-.6 2-.9 4.7-2 9.9-2.8 15-2.5 2.1.2 4.2.6 6.3 1.2.1 0 2 2.1 2.1 2.2"/><path d="m288 71.3c.8-1.3 3.6-.4 3.7-.1 1 2.9 1.5 7.9 0 8.7-2.8.8-3.7-5.3-3.7-8.6z"/><path d="m307.1 67.1c-4 1-3.4 11.3 1.2 10.9 2.8-.4 3.9-6 1.8-9.1-.5-.7-1-2.3-3-1.8z"/><path d="m318.3 69.2c-1.9 1.1-2.6 3.5-1.6 5.4.3.6.8 1.1 1.4 1.5 2.7-.5 3.6-4.7.2-6.9z"/><path d="m341.3 68.7c.5 1.5.2 4.6.3 6.2s1.5 3.4 3 2.8c.8-.5 1.4-1.3 1.4-2.3.5-2.6.4-4.8-1.2-6.9 0 0-.1-.1-.1-.1"/><path d="m328 72c-.2 2.7 0 5.5.5 8.1.6.6 1.6-.3 1.9-1.1 1-2.7 1.2-5.2-.4-7.7"/><path d="m284.8 72.2v27.2"/><path d="m323 71.2c0 .6-.1 1.3-.1 1.9 0 1 0 2-.1 3v1.3c0 7.7.4 16.2.9 23.2"/><path d="m284.9 99.7c2.6-2.8 6.4-2 10.2-2 7-.1 14 .6 20.8 2.1.5 0 .9.3 1.2.7.3.6-.3 1.4-.9 1.8-1.7 1.2-3.6 2.2-5.7 2.7-2.1.6-4.2.8-6.3.9-1.7 0-3.4-.1-5.1-.3-2.5-.3-5-.8-7.4-1.3-3.5-.7-4.7-1.7-7-4.4"/><path d="m282.4 97.4c.7-.6 1.5-1.1 2.4-1.5 1.2-.5 2.4-.9 3.7-1.1.6-.1 1.2-.2 1.8-.3 1.3-.1 2.5-.2 3.8-.2 4.1-.1 8.2 0 12.3.4l2.6.2c2.4.2 4.9.5 7.3.9.8.1 1.5.3 2.2.7.7.5 1.1 1.3 1.2 2.1s0 1.6-.4 2.3c-.3.5-.6 1-1 1.4-.8.7-1.7 1.3-2.7 1.6"/><path d="m353.2 71.9c1.3.2 2.3 1.1 2.6 2.4 0 .1.1.2.1.4.2 1.1.1 2.2-.1 3.3-.1.6-.3 1.1-.5 1.6-.2.4-.6.7-1.1.8-.1 0-.2 0-.3 0-1-2.6-1.2-5.4-.6-8.2"/><path d="m355.1 80.3c.6 4.8.8 9.6.6 14.3v1.1.1"/><path d="m327.4 99.2c6.7-3.7 14.2-5.6 21.8-5.4 2.2.4 4.4 1 6.4 2 .3.2.5.4.5.6-.4 1-4.5 2-5.6 2.2-2.1.5-4.3 1-6.5 1.5-6.7 1.4-13.8 2.5-19.5 1.1"/><path d="m348.2 85.3c-.8-1.2-3-.4-3.3 1s.9 4.7 1.9 5.8"/><path d="m347.8 85.2c.2 0 .3.1.4.2.5.5.9 1.2 1 2 .3 1 .4 2.1.2 3.1s-1.2 1.8-2.3 1.7"/><path d="m330.1 86.8c-1.6-1-3.3 1.3-3.3 3.1s-.8 3.3-.5 5c.3.3 3.1.8 3 .4"/><path d="m329.7 87h.3c.7.2 1.4.8 1.3 1.4s.1 1.4 0 2.4c-.1 1.3-1 2.7-2 4.5"/><path d="m253.3 41.6c.1-1.4 1.7-2.2 3.2-2.1.3 0 .6.1.9.2.7.3 1.3.7 1.7 1.3.7.7 1.2 1.6 1.7 2.5"/><path d="m327.6 103.3c-12.4-.4-21.1 8.8-25.8 20.3-.2.5-.4.9-.6 1.4-.2.6-.4 1.3-.6 2-2.2 8-2 16.6.6 24.5.4 1.4.9 2.7 1.5 4.1s1.2 2.7 1.8 3.9c1.9 4 4.6 7.5 8 10.3 2.2 1.6 4.6 2.9 7.1 3.8 3 .9 6 1.5 9.2 1.6 2.9.1 5.8.1 8.8-.1.8 0 1.5-.1 2.3-.2 1.4-.1 2.8-.3 4.2-.5 1.5-.2 2.9-.6 4.3-1 2.2-.6 4.3-1.7 6.2-3.2 3.2-2.6 5.1-6.4 6.7-10.2 2.6-5.8 4.9-11.7 5.6-17.9.9-9.5-1.9-18.9-7.8-26.3-.8-1-1.7-2-2.7-2.9-.3-.3-.6-.6-.9-.8-3-2.9-6.6-5.1-10.6-6.4-5.2-2.1-10.8-2.4-17.3-2.4"/><path d="m324.3 101.2c-.1-.1-.3-.1-.4-.2-1.8-.6-3.4.1-5.7 1.3-2.4 1.3-5 2.3-7.6 3-2 .5-4 .9-6 1.1l-1.1.1c-1.1.6-2.2 1.2-3.2 1.9-3.5 2.4-6.6 5.4-9.3 8.7-1.4 1.6-2.5 3.4-3.4 5.3-.4.9-.8 1.7-1.1 2.6-2.5 6.8-2.5 14.5-1.4 21.7.5 4.1 1.8 8.1 3.8 11.7 2.2 3.5 5.2 6.4 8.8 8.4 2.2 1.3 4.5 2.4 6.9 3.2 3.9 1.3 7.9 2.4 12 3.1.5.1 1.1.2 1.6.3s.8.2 1.2.2"/><path d="m296.6 138.6c.2-4.5-2.2-4.4-3-3.5-.7 1-1.1 2.1-1.2 3.3-.2 1-.1 2 .4 2.9.5.8 3.6 1 3.8-2.7z"/><path d="m301.2 125c-.7-3-4.8-3.3-5.3-1.5s.9 4.7 4.5 3.4"/><path d="m301.1 151.5c-.8.2-5 1.2-5.8 1.4-.3 1.6.5 3.2 1.9 4 1.4.7 4.2-.2 5.3-1.3"/><path d="m290.8 122.6c.2.1.3.3.4.5.8 1.2.8 2.8 0 3.9-.9-.5-3.1-1.3-4-1.7"/><path d="m288.7 152.7c-1.7-2.4 1.8-3.2 2.6-2s-.2 3.7-2.6 2z"/><path d="m284.5 93.3c-5.7.7-11.4.7-17.1.1-3.3-.5-6.8-1.2-9.9.1"/><path d="m254.1 93.7c-1.4-.7-3-.3-4 .9-.6 1.2-.8 2.4-.7 3.7l.1 22.2"/><path d="m249.8 126.6c-.1 2.7-.2 5.4-.3 8.1 0 .6-.1 1.3-.1 1.9-.1.6 0 1.2.4 1.7 1 1 4.8-.7 6.1 0"/><path d="m259.8 138.5c7.4 1 14.9 1.3 22.4.8"/><path d="m269.7 109.9c-1 0-2-.1-3-.3h-.2c-1.1-.3-2.2-.1-3.2.5-.5.4-.8 1-.8 1.6 0 .5.2.9.6 1.2.5.3 1.1.4 1.6.3l5-.1c.1-.9.9-3 0-3.2"/><path d="m265.7 96.3c-.6 4.4-.3 8.9.9 13.3 2.1-3.6 2.5-9.2 1.5-13.3"/><path d="m257.9 96.1c2.4-.1 5-.1 7.9 0 .8 0 1.6 0 2.4.1 4.1.1 8.4.5 12 .9.7.1 1.5.2 2.1.3h.2"/><path d="m279.3 102.6c-.1 0-.1 0-.2 0"/><path d="m279.3 102.6c-.4.1-.8.2-1.1.5-.5.7-.4 1.7.3 2.2.1.1.3.2.4.2.9.2 1.8-.3 2.1-1.2 0-.1 0-.2 0-.3.1-.8-.7-1.4-1.7-1.4z"/><path d="m280.2 97.1v2.8 2.6c-.3 0-.5.1-.8.1"/><path d="m251.5 121.2c-.6 0-1.3-.1-1.9-.1-.7 0-1.5.1-2.1.4-1.2.6-2.1 2.1-1.6 3.3s2.2 1.4 3.7 1c.6-.1 1.2-.3 1.7-.6"/><path d="m259.8 134.6c.9 0 2.6 0 3.6-.1 5.8-.1 13.1-.1 18.7.7"/><path d="m255.7 134.6h-6.2"/><path d="m356.6 94.7c3.6-1.8 7.8-2.2 11.6-1.1.4.1.8.3 1.1.6.3.4.5 1 .5 1.5.2 1.4.3 2.8.5 4.2"/><path d="m370.3 100.9 2.4.1c.1.2.2.5.2.7 0 1-.7 1.8-1.6 2-.2 0-.3 0-.5 0-1-.2-1.7-1.2-1.5-2.2"/><path d="m370.7 103.8c.4 1.3 1.2 4.7 1.6 6-.7.1-1.5.2-2.2.3l-1.3.2c-2.2.4-4.4.8-6.6 1.3-.7.1-1.3.3-2 .5"/><path d="m360.5 100.6c-1.2 1-1.7 2.7-1 4.2.2.6.8 1.1 1.5 1.1.9-.1 1.5-.9 1.4-1.8s-.5-1.7-1.1-2.3"/><path d="m361 106.9c.2 1.4.4 2.7.6 4.1"/><path d="m362.2 111.8c-1.7.8-3.7 1-5.5.6"/><path d="m351.8 102.4.9 3c-.9 0-1.8-.4-2.5-1"/><path d="m351.8 102.2c-.8-.6-2-.5-2.6.4-.3.4-.4.8-.4 1.3.3.7 1.1 1.2 1.9 1"/><path d="m333.6 78.5v.2"/><path d="m333.6 78.4c-.4 2.1.4 3.1.8 5.2.7.4 1.6.3 2-.4 0-.1.1-.1.1-.2.3-.8.4-1.7.2-2.5-.2-1.8-.4-3.6-.7-5.5-1.4.6-2.4 1.9-2.4 3.4"/><path d="m309 86.8c.4-1.3-2.8-2.5-4-1.9-.3 3.1.2 6.2 1.3 9.1"/><path d="m309 86.8c.3 2.5.3 5 0 7.5"/><path d="m288.7 86.5c-1.5 2-1.2 5.8-.3 8.2"/><path d="m288.7 86.5c.1-.7 1.9.1 2.3.7.3.6.4 1.3.2 2-.3 2.1-.7 2.7-1 4.8"/><path d="m304.7 106.8c1 0 3.2.2 4.2.3v3c-2.9.1-5.8-.4-8.4-1.5"/><path d="m291.3 123.3c0-.1-.1-.2-.2-.2-.7-.9-2.5-1.4-3.1-.5"/><path d="m299.1 105.6c-8.8 7.1-14.8 18.3-16.4 29.7-.2 1.3-.3 2.6-.4 3.9-.3 5.3.5 10.5 2.3 15.5 1 3.1 2.8 5.8 5.1 8 2 1.7 4.3 3 6.9 3.7.4.1.7.2 1.1.4 2.1.8 3.8 1.9 6.1 2.6"/><path d="m327.6 99.1-.1.1c-.9.8-1.9 1.4-2.9 1.9h-.2c-.1 0-.2.1-.3.1 0-.1-.1-.2-.1-.3s-.1-.2-.1-.3c-.3-1.1-.4-2.2-.2-3.2"/><path d="m326.6 72.5c-.6 1.7-2.7 3.2-3.3 4.9"/><path d="m344.1 100.6c.2 1 .7 3.3.9 4.3"/><path d="m312 115.9c-5.3 8.1-8.7 17.7-8.1 27.4s5.3 19.3 13.4 24.5c9.4 6 22.4 5.2 31.5-1.3s14.1-18 13.5-29.1c-.2-4-1.1-7.9-2.7-11.6-6.8-15.5-24.8-22.6-40.3-15.8-1.4.6-2.7 1.3-3.9 2.1-2.3 1.3-2.1 1.7-3.4 3.8z"/><path d="m368.6 110.6c0-.1.1-.2.2-.3.4-.3.8-.4 1.3-.2.7.1 1.2.8 1 1.5-.3.7-1 1.2-1.7 1.4-3.2 1.3-6.7 2.1-10.2 2.4"/><path d="m284.5 71.3h-.1c-1.1.4-2.1-1.1-1.7-2.3.6-1.2 1.5-2.1 2.6-2.8 6.3-4.3 13.5-5 20.8-4.3 1.9.2 3.8-.4 5.7-.2 5.3.7 9.7 4.3 11.4 9.3"/><path d="m323 73.2c.8-1.9 2.8-3.1 4.7-3.7 2.9-.8 5.8-1.6 8.8-2.5 4.2-1.2 8.6-2.4 12.7-1.2s7.4 4.7 6.9 8.8"/><path d="m375.4 81.9 2.7.3 3.3.4c4.9.6 10.3 1.1 14.3-1.7-5.8-2.7-12-5.4-18.2-5.2-.7 0-1.4.1-2 .2l-.5.1"/><path d="m375 76c-5.1-1-12.2 1.3-16.8 3.6l17.2 2.2"/><path d="m375.4 75.8c-.2-4.5.3-8.9 1.4-13.2.2 4.9.4 8.3.6 13.2"/><path d="m375.4 81.8c-.2 5.9.4 13.1.8 19.6.1 2.2.2 4.4.3 6.3.1 3.3-.6 21.8-.6 27.8"/><path d="m378.1 82.2c-.5 15.9.9 36.5.4 52.4"/><path d="m378.5 134.6c8.6 9.8 16.4 20.1 23.6 30.9.7 1 1.4 2.1 1.9 3.2 1.5 3.6 1.4 3.9 2.8 7.6l.1.4"/><path d="m378.5 139.6c7.4 8.8 12.9 15.7 19.7 24.9 1.4 1.9 2.1 4.2 2.9 6.4.9 2.4 1.6 2.7 2.4 5.6"/><path d="m376.5 139.6c-1.8 3-3.7 7.4-5.4 10.5"/><path d="m375.8 135.6c-3.5 7.1-11.1 20.8-14.3 28.4 0 .1-.1.2-.1.2 0 .1-.1.2-.1.3"/><path d="m371.3 149.7-.2.4-.1.2c-1.9 3.7-3.7 7.4-5.6 11.1l-.2.3"/><path d="m365.5 161.5c-2.6 5.5-4 7.2-5.3 13.2v.1"/><path d="m361.5 164.1c0 .1-.1.2-.1.2-1.8 3.7-2.8 6-3.3 10.1v.2"/><path d="m378.5 139.6c-.3 7.4-.3 17.8-.1 25.2-1.2-.9-3.2 0-4.2-1.2-.4-.7-.6-1.5-.5-2.3.5-7.3 1.4-14.6 2.7-21.8"/><path d="m323 75.2-.1.9-3.3 22.4-.3 1.8"/><path d="m113 430.6c-.5 7.5 1.8 14.9 6.5 20.7 1.5 1.9 3.3 3.6 5.2 5.2 8.2 6.7 19.9 9.8 29.6 5.6 4.9-2.1 8.8-5.8 12.6-9.6 5.7-5.7 11.5-12.9 10.7-20.8 0-.4-.1-.8-.2-1.1"/><path d="m186.7 436.5c.1-1.4.1-2.8 0-4.3"/><path d="m100.9 428.5v.5c.9 8.4 2.4 16.8 5.8 24.4 3.5 7.8 9.3 14.9 17 18.6 6.5 3.1 14.1 3.7 21.3 2.8 10.7-1.3 21.1-5.8 28.7-13.4 6.6-6.6 12.1-15.6 12.9-24.9"/><path d="m138.6 431.8-8.4 1.2c-1.6.1-3.2.5-4.7 1.2s-2.6 2.1-2.8 3.8c0 1 .2 2 .7 2.9 1.6 3.7 3.5 7.3 5.9 10.6 2.9-3.2 5.5-6.7 7.6-10.4.7-1 1.2-2.1 1.4-3.2.2-1.3 2.9-5.5.3-6.1z"/><path d="m145.3 434.6c-1.1 5.2-1.4 12-2.5 17.2-.3.9-.3 2 .2 2.9.7 1.1 2.3 1.1 3.5.9 3.5-.5 6.8-1.6 9.9-3.3.6-.3 1-.7 1.4-1.2.3-1 .2-2-.3-2.9-2.3-5.2-9.7-14.2-11.8-13.6"/><path d="m149.6 431.3c3 3 6.3 5.7 9.9 8 1.6 1 3.7 1.9 5.4 1 .8-.5 1.5-1.3 1.9-2.2 1.2-2.4 1.6-5 1.4-7.6"/><path d="m113.2 429.8c-.7-6.2 1-12.4 4.8-17.4 3.8-4.9 8.9-8.7 14.8-10.8 3.4-1.3 7-2 10.6-2 3.9.2 7.8 1 11.4 2.5 6.4 2.4 12.1 6.3 16.5 11.5 4.3 5.2 6.8 11.4 6.2 18.2"/><path d="m101.4 428.7c0-.1 0-.2 0-.2-1.7-12.4 4.5-25.3 14.6-32.8s23.7-9.8 36.1-7.4c3.5.6 6.9 1.8 10 3.5 4.6 2.6 8.2 6.6 11.4 10.7 6.7 8.6 12.2 18.6 13.2 29.3.2 1.6.2 3.1.2 4.7v.1"/><path d="m168.3 430.2c-.7-3-1.7-6.4-4.5-7.8-3.1-1.5-6.8.1-9.8 1.8-1.4.7-2.8 1.6-3.9 2.7-1.1 1.2-.8 2.8-.5 4.3"/><path d="m127.6 413.9c-.1.1-.1.2-.2.3-2.3 3.3-3.9 7.1-4.7 11.1-.2 1-.2 2.3.7 2.8.6.2 1.2.3 1.8.1 4.3-.8 8.5-1.7 12.6-2.9.5-.1.9-.3 1.3-.7.3-.4.4-.8.4-1.2-.1-1.5-.8-3-1.8-4.1-1.2-1.7-2.6-3.2-4-4.7-.8-1.1-2-1.9-3.3-2.3-1.3-.3-3 .4-3.2 1.8"/><path d="m140.1 410.8c1.4 3.9 2.7 7.8 4.1 11.8.1.4.3.7.6 1 .3.2.7.3 1.1.2 4.6-.2 8.5-3.7 10.7-7.8.2-.3.3-.7.3-1-.2-.5-.5-.9-1-1.2-2.6-1.8-5.5-3.3-8.4-4.6-1.6-.9-3.5-1.3-5.3-1.1-1.9.3-2.3.8-2.1 2.7z"/><path d="m483.2 435.8c-.5 7.5 1.8 14.9 6.5 20.7 1.5 1.9 3.3 3.6 5.2 5.2 8.2 6.7 19.9 9.8 29.6 5.6 4.9-2.1 8.8-5.9 12.6-9.6 5.8-5.8 11.7-13.2 10.6-21.2 0-.2 0-.5-.1-.7"/><path d="m557.1 439.3c0-.6 0-1.3-.1-1.9"/><path d="m471.2 433.7c.9 8.5 2.3 17.1 5.9 24.9s9.3 14.9 17 18.6c6.5 3.1 14 3.7 21.2 2.8 10.7-1.3 21.1-5.8 28.7-13.4 6.9-7 12.7-16.6 13-26.4"/><path d="m508.9 437c-1.4-1.6-5.6.8-8.4 1.2-1.6.1-3.2.5-4.7 1.2s-2.6 2.1-2.8 3.8c0 1 .2 2 .7 2.9 1.6 3.7 3.5 7.3 5.9 10.6 3.1-3 5.3-6.8 7.6-10.4.9-1.4 1.6-2.9 2.1-4.5.1-1.3 0-4.5-.4-4.8z"/><path d="m515.9 440.2c-1.9.9-1.7 11.5-2.7 16.7-.3.9-.3 2 .2 2.9.7 1.1 2.3 1.1 3.6.9 3.5-.5 6.8-1.6 9.9-3.3.6-.3 1-.7 1.4-1.2.3-1 .2-2-.3-2.9-2.6-5.1-8.5-14-12.1-13.1z"/><path d="m519.1 432.9c-1.8 3.8 6.9 7.7 10.8 10.1 1.6 1 4.3 2 6 1.1.9-.5 1.7-2.5 2.1-3.4 1.2-2.3 1-2.5.7-5"/><path d="m483.2 435.8c-.8-6.1 1.3-13.3 5-18.3 3.8-4.9 8.9-8.7 14.8-10.8 3.4-1.3 7-2 10.6-2 3.9.2 7.8 1 11.4 2.5 6.4 2.4 12.1 6.3 16.5 11.5 4.2 4.9 6.5 11.3 6.2 17.7"/><path d="m471.3 434c0-.1 0-.2 0-.3-.7-5.3 0-10.7 2-15.7 2.6-6.8 7-12.8 12.8-17.2 4.2-3.1 9-5.3 14-6.7 4.8-1.3 9.8-1.8 14.8-1.6 2.5.1 4.9.4 7.3.9.1 0 .3 0 .4.1 3 .6 6 1.6 8.8 3 .3.1.5.3.8.4 4.6 2.6 10.5 4.8 13.7 9l.4.6c7.2 9.4 11 21 10.7 32.8v.8"/><path d="m538.6 435.4c-.7-3-1.7-6.4-4.5-7.8-3.1-1.5-6.8.1-9.8 1.8-1.4.8-4.9 1.7-5.1 3.3"/><path d="m497.8 419c-.1.1-.1.2-.2.3-2.3 3.3-3.9 7.1-4.7 11.1-.2 1-.2 2.3.7 2.8.6.3 1.2.3 1.8.1 4.3-.8 8.5-1.7 12.6-2.9.5-.1.9-.3 1.3-.7.3-.4.4-.8.4-1.2-.1-1.5-.8-3-1.8-4.1-1.2-1.7-2.6-3.2-4-4.7-.8-1.1-2-1.9-3.3-2.3-1.3-.3-2.9.4-3.2 1.8"/><path d="m510.3 415.1 4.1 11.8c.1.4.3.7.6 1 .3.2.7.3 1.1.2 4.6-.2 8.5-3.7 10.7-7.8.2-.3.3-.7.3-1-.2-.5-.5-.9-1-1.2-2.6-1.8-5.5-3.3-8.4-4.6-1.6-.9-3.5-1.3-5.3-1.1-1.8.3-2.3.8-2.1 2.7z"/><path d="m515.2 271.9c5.5 4.7 11.4 8.9 17.6 12.7"/><path d="m508.9 277c9.5 8.9 19.3 17.4 29.4 25.5"/></g></svg>