<svg xmlns="http://www.w3.org/2000/svg" viewBox="0 0 362.26 261.27"><defs><style>.cls-1{fill:none;stroke:#000;stroke-linecap:round;stroke-linejoin:round;stroke-width:0.75px;}</style></defs><title>van</title><g id="Van"><path d="M376.85,820.11c-9.38,1.16-18.8,2.13-28.15,3.49-7,1-13.26,3.18-18.81,7.71-13.08,10.7-17.32,27.79-21,43.48-.11.47.61.67.72.2,3.56-15.07,7.52-31.52,19.68-42.16C336,827,343.48,825,352.1,823.91c8.24-1.06,16.5-2,24.75-3,.47-.06.48-.81,0-.75Z" transform="translate(-303.31 -705.51)"/><path d="M310.14,876.07l-1.25-1.72a.38.38,0,0,0-.7.19c-1.47,24.06-2.79,48.22.67,72.18.06.48.79.28.72-.2a241.4,241.4,0,0,1-2.18-37.81c.08-5.86.3-11.72.59-17.58q.22-4.39.48-8.79c.08-1.3.16-2.6.23-3.9s-.39-3.62.79-2c.28.39.93,0,.65-.38Z" transform="translate(-303.31 -705.51)"/><path d="M329.05,945.57c-2.7-1.38-6.73-.49-9.67-.48-3.79,0-8.1-.6-11.81,0-3.45.6-5.42,6.84-3.53,9.73,2.23,3.4,11.4.74,14.43.3,4.66-.66,9.42-2.23,10.29-7.45a.38.38,0,0,0-.26-.46l-2.28-.44c-.47-.09-.67.63-.2.72,3.88.74.18,3.85-1.68,5a13.86,13.86,0,0,1-5.92,1.84c-2.78.4-8.1,1.92-10.88,1.18-7.12-1.89-1.15-8.87,2.08-9.72,1.71-.45,4.05,0,5.86,0,3.56,0,10-1.24,13.19.37.43.22.81-.43.38-.65Z" transform="translate(-303.31 -705.51)"/><path d="M337.85,835.87c.43,6,.72,12,.81,18q.07,4.27,0,8.55c0,1.28.51,9.79-.06,10.15.41-.26,0-.9-.38-.65l-.18.11a.38.38,0,0,0-.14.51l.17.25a.38.38,0,0,0,.59.07c.79-.68.52-1.88.56-2.84q.22-5.7.22-11.4c0-7.6-.31-15.19-.85-22.77,0-.48-.79-.49-.75,0Z" transform="translate(-303.31 -705.51)"/><path d="M336.09,879.52q.53,28.83-.61,57.66c0,.48.73.48.75,0q1.14-28.81.61-57.66a.38.38,0,0,0-.75,0Z" transform="translate(-303.31 -705.51)"/><path class="cls-1" d="M320,870.29c-2.23-.59-4.66-1.16-6.79-.27s-3.45,3.94-1.83,5.59c1,1,2.55,1.07,3.95,1.08l81.48.38,72,.33,79.73.37" transform="translate(-303.31 -705.51)"/><path d="M320,870.28c38.42,1.52,76.92,3.05,115.35.94,9.36-.51,18.74-1.4,28.13-.94s18.56,2.2,27.91,2.41c18.92.43,37.76-3.8,56.57-.22.48.09.68-.64.2-.73-18-3.41-35.92.23-54,.23-9.67,0-19.15-1.7-28.77-2.33-9.38-.61-18.74.17-28.1.72-39.08,2.27-78.25.72-117.32-.83-.49,0-.48.73,0,.75Z" transform="translate(-303.31 -705.51)"/><path d="M375.4,821.88c1.8-.49,4.24-1.27,5.8.3.25.25,0,1,.3,1.3,1.12,1.27,1.49,2,3.22,2.46,2.8.81,6.33.24,9.21.23l12,0,47.75-.15,45.36-.15c7.27,0,14.52-.1,21.76.55s14.29,1.45,21.42-.28c.47-.11.27-.84-.2-.72-6.76,1.64-13.44,1-20.28.34-6.29-.57-12.56-.67-18.88-.65l-39.17.12-38.79.13-20,.06-10,0c-2.41,0-14.05,1.22-12.73-4.22a.38.38,0,0,0-.26-.47,16.15,16.15,0,0,0-6.74.43.37.37,0,0,0,.2.72Z" transform="translate(-303.31 -705.51)"/><path d="M542.79,825.43c0-1.37-.43-2.85.84-3.7.82-.54,3.7-.15,4.71-.17,3.14-.07,6.27,0,9.41.13.48,0,.48-.72,0-.75a147.12,147.12,0,0,0-15.29.11.39.39,0,0,0-.38.38l0,4a.38.38,0,0,0,.75,0Z" transform="translate(-303.31 -705.51)"/><path d="M556.81,821.53l37.6,3.61c6.34.6,12.88.82,19.13,2,6.65,1.29,11.67,4.85,16.22,9.73.33.36.86-.17.53-.53-3.35-3.59-7.06-6.79-11.69-8.59-5.74-2.23-12.36-2.26-18.4-2.84l-43.39-4.16c-.48,0-.48.7,0,.75Z" transform="translate(-303.31 -705.51)"/><path d="M338.81,882.14q11.07,0,22.15.45c.48,0,.48-.73,0-.75q-11.07-.44-22.15-.45a.38.38,0,0,0,0,.75Z" transform="translate(-303.31 -705.51)"/><path d="M338.16,886.08h11.72c1.32,0,10.13.88,10.87,0-.32.36.21.89.53.53l.59-.67a.38.38,0,0,0-.27-.64l-23.44,0a.38.38,0,0,0,0,.75Z" transform="translate(-303.31 -705.51)"/><path d="M339.43,889.38a104.73,104.73,0,0,1,20.57-.16c.48,0,.47-.71,0-.75a104.73,104.73,0,0,0-20.57.16c-.48,0-.48.8,0,.75Z" transform="translate(-303.31 -705.51)"/><path d="M339.12,892.51a112.06,112.06,0,0,1,20.55-.77c.48,0,.48-.72,0-.75a112.06,112.06,0,0,0-20.55.77c-.47.06-.48.81,0,.75Z" transform="translate(-303.31 -705.51)"/><path d="M340.59,895.78a71.31,71.31,0,0,1,11.29-1.06c1.69,0,3.37.09,5.05.25,1.32.13,5.39,1.47,6.5.87.42-.23,0-.88-.38-.65-.91.49-1.07,1.11-.44,1.93a.39.39,0,0,0,.43.17c.69-.17,1-.27,1.16-1.1.21-1.42-2.3-1.28-3-1.4a63.2,63.2,0,0,0-20.81.26c-.48.08-.28.8.2.73Z" transform="translate(-303.31 -705.51)"/><path d="M339.79,898.91l18.89-.89c.48,0,.48-.77,0-.75l-18.89.89c-.48,0-.48.78,0,.75Z" transform="translate(-303.31 -705.51)"/><path d="M339.46,902.14q10.76-.43,21.5-.45a.38.38,0,0,0,0-.75q-10.75,0-21.5.45c-.48,0-.48.77,0,.75Z" transform="translate(-303.31 -705.51)"/><path d="M339.78,905.29a94.14,94.14,0,0,1,22.38.35c.47.06.68-.66.2-.72a94.25,94.25,0,0,0-22.58-.38c-.47.05-.48.8,0,.75Z" transform="translate(-303.31 -705.51)"/><path d="M371,892.82a3.11,3.11,0,0,0-2.24-.25.38.38,0,0,0-.27.36,4.29,4.29,0,0,0,.06,1.29,2.39,2.39,0,0,0,.42,1.13,1.62,1.62,0,0,0,1.7.06,1.66,1.66,0,0,0-.12-2.95c-.43-.21-.81.44-.38.64a.91.91,0,0,1,0,1.7,1,1,0,0,1-.53.05c-.23-.08-.26-.28-.33-.5a3.58,3.58,0,0,1-.11-1.42l-.28.37a2.27,2.27,0,0,1,1.66.17c.43.22.81-.43.38-.65Z" transform="translate(-303.31 -705.51)"/><path d="M373,885.57a4.45,4.45,0,0,0-6.79,4.78c.1.47.83.28.72-.2a3.7,3.7,0,0,1,5.69-3.93c.41.26.78-.39.38-.65Z" transform="translate(-303.31 -705.51)"/><path d="M382,886.69l.29,7.23a21.81,21.81,0,0,1,.14,3.61c.33,1.4-.24,2.47-1.72,3.22a29.4,29.4,0,0,1-2.93.39c-2.24.2-5.38.53-7.46-.5-3.22-1.59-2.9-6-3.22-9.06,0-.48-.79-.48-.75,0,.28,2.69-.08,6.84,2.12,8.88s6,1.67,8.7,1.48c2.06-.14,5.32,0,6-2.36.4-1.35-.09-3.65-.15-5.06l-.31-7.83c0-.48-.77-.48-.75,0Z" transform="translate(-303.31 -705.51)"/><path d="M374.33,886.19c2-.13,4-.29,6-.4,1.11-.06,1.27.7,1.48,1.64a1.31,1.31,0,0,0,.42.76c.34.34.88-.19.53-.53-.85-.85.31-2.2-1.33-2.61a10.44,10.44,0,0,0-3,.12l-4.09.27c-.48,0-.49.78,0,.75Z" transform="translate(-303.31 -705.51)"/><path d="M328,836.14c84.5-3.34,169,2,253.53,1a.38.38,0,0,0,0-.75c-84.52,1-169-4.37-253.53-1a.38.38,0,0,0,0,.75Z" transform="translate(-303.31 -705.51)"/><path d="M581.22,836.94a279.68,279.68,0,0,0,48.51.16c.48,0,.48-.79,0-.75a279.68,279.68,0,0,1-48.51-.16c-.48,0-.48.71,0,.75Z" transform="translate(-303.31 -705.51)"/><path d="M548.6,871.69c1.68,25.72,3.27,51.5,1,77.24,0,.48.71.48.75,0,2.26-25.74.67-51.52-1-77.24,0-.48-.78-.48-.75,0Z" transform="translate(-303.31 -705.51)"/><path d="M552.19,919c7.79.54,15.6.78,23.41.62q5.85-.12,11.7-.52c4.25-.29,9-1.27,13.1.35,10.82,4.32,8.71,21.57,21.06,24.18.47.1.67-.62.2-.72-12.88-2.72-10-22.39-23.17-24.83-6.62-1.24-14.23.55-20.94.74-8.46.24-16.92,0-25.36-.57-.48,0-.48.72,0,.75Z" transform="translate(-303.31 -705.51)"/><path d="M639.35,878.89a1.89,1.89,0,0,0-1.57-.35.36.36,0,0,0-.27.26,6.13,6.13,0,0,0,1,5,.38.38,0,0,0,.65,0,3.3,3.3,0,0,0,0-3.18c-.22-.43-.87,0-.65.38a2.51,2.51,0,0,1,0,2.42h.65a5.39,5.39,0,0,1-1-2.16,4.91,4.91,0,0,1-.1-1.21,3.94,3.94,0,0,1,.08-.77.86.86,0,0,1,.8.25c.39.28.76-.37.38-.65Z" transform="translate(-303.31 -705.51)"/><path d="M644.59,931.16a1.6,1.6,0,0,0-2.17-.42c-1,.57-1.1,1.86-1.07,2.89,0,1.84,1,4.92,3.46,3.51a3.17,3.17,0,0,0,1.45-2.92c0-1.08-.31-3.06-1.32-3.71-2.45-1.57-1.51,5.61-1.49,6.35a.38.38,0,0,0,.75,0c-.05-1.57-.11-3.13-.14-4.7,0-.29-.14-1.23.72-.74.19.11.3.73.36.94a5,5,0,0,1,.27,2.84,1.81,1.81,0,0,1-2,1.42,1.86,1.86,0,0,1-1.19-1.64,9.15,9.15,0,0,1-.12-1.89c0-.81,1-2.74,1.86-1.55.27.39.92,0,.64-.38Z" transform="translate(-303.31 -705.51)"/><path d="M563.5,889.91c-2.4-1.54-4.77,0-6.7,1.54l.58.07c-1.15-1.53-3.92-2.44-4.93-.19a2.42,2.42,0,0,0,.18,2.36c1,1.33,3,.57,4.34.91,1.58.4,2.88,1.28,4.54.67a3.72,3.72,0,0,0,2.26-2.23c1-2.68-1.65-3.68-3.82-3.32-.48.08-.28.8.2.72,1.3-.21,1.59-.16,2.34,1.06.77.56.87,1.12.31,1.69a1.51,1.51,0,0,1-.73.89c-1.33,1.11-2.86.51-4.28,0a11.91,11.91,0,0,0-2.35-.4l-.68,0L553,892.3c.15-1.22.73-1.67,1.76-1.33a1.7,1.7,0,0,1,2,.93.39.39,0,0,0,.59.08c1.64-1.33,3.66-2.79,5.79-1.43.41.26.78-.38.38-.64Z" transform="translate(-303.31 -705.51)"/><path d="M576.5,841.05q1.14,14,1.16,28a.38.38,0,0,0,.75,0q0-14-1.16-28c0-.47-.78-.48-.75,0Z" transform="translate(-303.31 -705.51)"/><path d="M578.52,841.08q1.1,13.81,1.39,27.68a.38.38,0,0,0,.75,0q-.28-13.86-1.39-27.68c0-.48-.79-.49-.75,0Z" transform="translate(-303.31 -705.51)"/><path d="M555.48,841a96.43,96.43,0,0,0,20.8.22c.48-.05.48-.8,0-.75a96.43,96.43,0,0,1-20.8-.22c-.48-.06-.48.69,0,.75Z" transform="translate(-303.31 -705.51)"/><path d="M579.26,841.36c8.86-1,19.14-2.07,23.94,7,3.76,7.12,7.1,14.49,10.42,21.82.2.44.85.06.65-.38-2.15-4.73-4.34-9.45-6.61-14.13-1.87-3.84-3.5-8.45-6.37-11.68-5-5.63-15.44-4.15-22-3.39-.47.06-.47.81,0,.75Z" transform="translate(-303.31 -705.51)"/><path d="M554.2,841.1c1,9.84,1.82,19.65.52,29.5a.38.38,0,0,0,.64.27l1-1.22c.3-.37-.22-.9-.53-.53.54-.66.28-4.87.32-5.86.1-2.46.08-4.93,0-7.39-.18-4.94-.68-9.86-1.17-14.77,0-.48-.79-.48-.75,0Z" transform="translate(-303.31 -705.51)"/><path d="M587.73,845.63A86.12,86.12,0,0,0,598,853.06c.41.25.79-.4.38-.65a84.32,84.32,0,0,1-10.11-7.31c-.37-.31-.9.22-.53.53Z" transform="translate(-303.31 -705.51)"/><path d="M584.1,848.61q8.28,7.7,17.09,14.81c.37.3.91-.23.53-.53q-8.81-7.11-17.09-14.81c-.36-.33-.89.2-.53.53Z" transform="translate(-303.31 -705.51)"/><path d="M513.23,847.29l14.33,8.14a.38.38,0,0,0,.38-.65l-14.33-8.14a.38.38,0,0,0-.38.65Z" transform="translate(-303.31 -705.51)"/><path d="M509,850.18q6.78,4.59,14,8.49c.43.23.81-.41.38-.64q-7.21-3.9-14-8.5c-.4-.27-.78.38-.38.65Z" transform="translate(-303.31 -705.51)"/><path d="M475.31,858.72a.38.38,0,0,0,0-.75.38.38,0,0,0,0,.75Z" transform="translate(-303.31 -705.51)"/><path d="M452.94,845.36q14,8.16,28.7,14.93c.44.2.82-.44.38-.65q-14.72-6.76-28.7-14.93a.38.38,0,0,0-.38.65Z" transform="translate(-303.31 -705.51)"/><path d="M456,854l2.87,1.42c.44.21.82-.43.38-.65l-2.87-1.42c-.43-.21-.81.44-.38.65Z" transform="translate(-303.31 -705.51)"/><path d="M653.37,908.7c-1.37,4.36-2.58,10.16-1.31,14.69.44,1.55,1.26,2.82,3,1.71,2.46-1.61,3.5-7.1,3.42-9.79a8.29,8.29,0,0,0-4.07-7.17.38.38,0,0,0-.38.65,7.59,7.59,0,0,1,3.7,6.52,14.53,14.53,0,0,1-.76,4.52l-.4,1.12c-.07,2.09-.87,2.65-2.39,1.66-2-.58-1.6-1-1.66-2.9,0-1,0-2.05.07-3.08a32.83,32.83,0,0,1,1.55-7.73c.14-.46-.58-.66-.73-.2Z" transform="translate(-303.31 -705.51)"/><path d="M655.79,907.08c-7.55-4.39-7,11.86-6.86,15.06.09,1.78,0,6.12,2.84,6.14s1.75-3.38,3-4.8c.32-.36-.21-.89-.53-.53a3.3,3.3,0,0,0-.86,1.52c-.08.25,0,1.62-.24,1.73l-3.3-1.89c-.07-.72-.12-1.45-.15-2.17q-.13-2.91,0-5.81c.06-1.16.16-2.32.31-3.47.26-2,.89-7.76,5.41-5.13a.38.38,0,0,0,.38-.65Z" transform="translate(-303.31 -705.51)"/><path d="M615,840c8.44,13.14,19.44,25.16,22.33,41,.09.47.81.27.72-.2-2.9-15.9-13.93-28-22.4-41.18-.26-.4-.91,0-.65.38Z" transform="translate(-303.31 -705.51)"/><path d="M638.49,883.55c3,15.34,7.27,30.38,5.38,46.09-.06.48.69.48.75,0,1.9-15.82-2.33-30.84-5.41-46.28-.09-.48-.82-.28-.72.19Z" transform="translate(-303.31 -705.51)"/><path d="M643.06,938.06a8.88,8.88,0,0,0-.33,3.36c0,.47.79.48.75,0a8.24,8.24,0,0,1,.31-3.16c.14-.46-.59-.66-.73-.2Z" transform="translate(-303.31 -705.51)"/><path d="M624.29,942.41c-7.67-1.44-6.91,8.45-1.34,11,5.23,2.42,12.11.93,17.66,1.95a16.94,16.94,0,0,0,6.25.39,67.8,67.8,0,0,1,12-.7c6.67.07,9.59-8.92,3.08-12.08-2.53-1.22-5.7-1-8.43-1.13l-11-.34c-6.5-.2-13.47-1.23-19.74.87-.46.15-.26.88.2.73,6.65-2.23,14.46-1,21.38-.79,3.66.11,7.35.14,11,.34,2.77.15,4.63.37,7,2q4.21,1.55,1.91,6.31a4,4,0,0,1-3.59,2.82c-2.91,1-6.22,0-9.3.33-4,.45-7.22,1.25-11.29.37a35,35,0,0,0-8.18-.67,26.37,26.37,0,0,1-6.46-.33l-2.79-1q-6.57-3.65,1.47-9.34c.47.09.67-.64.2-.73Z" transform="translate(-303.31 -705.51)"/><path d="M622.86,946.78c.75-2.66,16.36-.8,18.52-.66a99.07,99.07,0,0,0,18,0c.47-.06.47-.81,0-.75-8.25,1-16.38-.1-24.63-.39-2.55-.09-11.7-1.59-12.6,1.6a.38.38,0,0,0,.73.19Z" transform="translate(-303.31 -705.51)"/><path d="M626.16,951.42a334.81,334.81,0,0,0,34.85.11c.48,0,.49-.77,0-.75a334.81,334.81,0,0,1-34.85-.11c-.48,0-.48.73,0,.75Z" transform="translate(-303.31 -705.51)"/><path d="M552.2,879.3l43.7.86c13.85.27,28.7-.55,41.2,6.42.42.24.8-.41.38-.64-11.54-6.44-24.87-6.2-37.7-6.46l-47.58-.93a.38.38,0,0,0,0,.75Z" transform="translate(-303.31 -705.51)"/><path d="M639.82,888.18c7.39,3.8,10.58,11.56,14.48,18.43.24.42.88,0,.65-.38-4-7-7.23-14.83-14.76-18.7-.42-.22-.8.43-.37.65Z" transform="translate(-303.31 -705.51)"/><path d="M626.26,837.24c1,6.18,4.27,11.17,7.72,16.28q6.1,9,12.38,18c.27.39.92,0,.64-.38q-5.7-8.16-11.31-16.38c-3.74-5.52-7.59-11-8.71-17.67-.08-.47-.8-.27-.72.2Z" transform="translate(-303.31 -705.51)"/><path d="M648.56,874.21a112.77,112.77,0,0,1,10.59,68c-.07.47.65.67.73.2a113.66,113.66,0,0,0-10.67-68.58c-.22-.43-.87-.05-.65.38Z" transform="translate(-303.31 -705.51)"/><path d="M657.9,921.94a128.55,128.55,0,0,1,1.31,14.92c0,.48.77.48.75,0a129.82,129.82,0,0,0-1.34-15.12c-.07-.47-.79-.27-.72.2Z" transform="translate(-303.31 -705.51)"/><path d="M327.81,946.18l2.61,2.06-.26,1.61a19.21,19.21,0,0,1-.8,2.65c-.5,1.37-.73,2.27-2,3s-1.87.54-3.2.6a44.26,44.26,0,0,0-8.86,1.36.38.38,0,0,0,.2.73,44,44,0,0,1,6.44-1.18c1.68-.17,3.64.16,5.26-.24,1.85-.45,2.31-2.48,2.88-4.1.65-1.82,1.85-4.77.5-6.57a2.26,2.26,0,0,0-3.15-.59.37.37,0,0,0,.38.64Z" transform="translate(-303.31 -705.51)"/><path d="M331.05,950.6c3-4.77,6.1-13,12.37-13.64,4.23-.43,8.81.23,13.06.36q14.17.4,28.36.85c4.87.15,9.8.12,14.67.46,6,.43,8.89,6.88,11.87,11.48,1.13,1.76,2.22,4.32,4.15,5.4,3.08,1.72,8.13,1.41,11.53,1.85.48.07.47-.68,0-.75-2.38-.31-4.77-.6-7.16-.93-4.47-.62-6.1-3.19-8.36-6.69-1.91-3-3.67-7-6.34-9.32s-7.14-1.83-10.58-1.94L378,937.21c-10.75-.33-21.51-.7-32.27-1-2.73-.07-5.31-.2-7.4,1.79-3.31,3.14-5.5,8.33-7.92,12.17-.26.41.39.78.65.38Z" transform="translate(-303.31 -705.51)"/><path d="M416,954.29c16,3.29,32.52.28,48.72,1.87,8.69.85,17.23,1.69,26,1.28s17.76-1.36,26.62-2.12,17.87-1.41,26.79-2.3c6.28-.62,6.44-3.92,9.07-9.19,3.3-6.57,8.27-12.7,14.91-16.09,8.69-4.45,19-2.84,28.19-.81,6.17,1.37,8.78,5.45,12.08,10.35l8.27,12.27c.9,1.33,4.72,7.33,6.13,2.94.14-.46-.58-.66-.73-.2-.67,2.1-5-3.45-5.3-3.93l-3.31-4.91c-2.46-3.66-4.83-7.4-7.4-11-3.4-4.71-7.26-5.88-12.87-6.89-12.72-2.31-24.73-1.91-34,8.14a46.94,46.94,0,0,0-8.2,13.15c-1.62,3.65-4,4.85-7.87,5.49-1.94.32-4,.34-5.95.51L524.3,954c-16.91,1.45-34,3.9-51,2.31-9.17-.85-18.16-1.72-27.38-1.48-10,.26-19.86.78-29.68-1.24-.47-.09-.67.63-.2.73Z" transform="translate(-303.31 -705.51)"/><path d="M575.83,924.86a18.36,18.36,0,0,0-7.65,8.55c-.19.44.45.82.65.38a17.62,17.62,0,0,1,7.38-8.28.38.38,0,0,0-.38-.65Z" transform="translate(-303.31 -705.51)"/><path d="M549.28,872.3c13.47,2.76,27.54.15,41.15-.26a381.91,381.91,0,0,1,43.84,1.23c.48,0,.47-.71,0-.75a382.83,382.83,0,0,0-41.89-1.29c-14.13.36-28.92,3.21-42.9.34-.47-.09-.67.63-.2.73Z" transform="translate(-303.31 -705.51)"/><path d="M434.89,838.61c-8.93-.53-17.87-.7-26.81-.42-3.42.11-10.72-1.25-13,2.13-1.66,2.41-.49,7.26-.36,9.83.21,4.17.39,8.33.64,12.5.27,4.44,1.57,6.11,6,6.63,8.12.94,16.6.68,24.75.32,4.07-.18,9.29.8,10.19-4.13.6-3.32-.18-7.31-.28-10.69-.13-4.12.22-8.57-.43-12.66-.44-2.71-2.2-5.32-5.14-3.68a.38.38,0,0,0,.38.65c3.08,1.43,4.46,3.54,4.15,6.35l.11,3.74.24,7.47c.06,2.14.79,5.43.23,7.47-1.37,5-4.12,4.46-7.55,4.64-5.07.27-10.16.36-15.24.27-5.74-.1-15.11,1.22-16.7-6.38-.94-4.52-.5-9.81-.74-14.42-.18-3.5-1.31-7,3.19-8.83,1.71-.71,4.82-.28,6.69-.35a293.84,293.84,0,0,1,29.68.31c.48,0,.48-.72,0-.75Z" transform="translate(-303.31 -705.51)"/><path d="M486.31,838.54a172.7,172.7,0,0,0-25.32-1c-3.67.13-11.17-.9-13.44,3-1.25,2.18-.67,5.54-.66,7.92l0,13c0,6.25.15,6.62,6.26,7.28a219.3,219.3,0,0,0,25.1,1.26c4.34,0,9.89,1,11.32-4.12,1.78-6.39.53-15-.23-21.52-.16-1.37-.08-3.41-1.21-4.46-2.13-2-7.14-1.75-9.81-2.23-.47-.09-.67.64-.2.72,1.92.35,6.15.29,7.71,1.4,3,2.16,3,6.92,3.22,10.22q.26,4.24.21,8.5c0,1.26,0,2.52-.09,3.78-.17,3,0,3.16-2.72,5.11-4.36,3.13-11.59,1.91-16.9,1.74s-11.16-.08-16.4-1.15c-1.81-.37-4.49-1-5.5-2.81-.4-.71,0-2.89,0-3.72l0-7.45c0-2.48,0-5,0-7.45a11.26,11.26,0,0,1,0-3.28c.89-2.36,4.51-4.27,6.77-4.71,5-1,10.85-.54,15.95-.44,5.33.11,10.64.5,15.93,1.08.48.05.48-.7,0-.75Z" transform="translate(-303.31 -705.51)"/><path d="M538.49,839.88,511.85,839c-3.9-.14-11.36-2.57-12.81,2.29-2.16,7.24-1.77,16.41-1.48,23.88.2,5.33,3.05,5.13,8.14,5.63,8.53.83,17.26.29,25.82.26,4.69,0,9.35.48,10.18-5.18.47-3.18,0-6.61,0-9.81-.06-3.88.42-8.16-.3-12-.6-3.14-2.77-5.92-6.22-4.57-.44.18-.25.9.2.73l5.4,5.26,0,1.44a23.25,23.25,0,0,1,0,3.64l.1,7.29c0,2.45.6,5.45-.07,7.82-1.18,4.22-6.54,4.59-10.31,4.6-4.89,0-9.79.05-14.69.06-4.22,0-15.74,1.33-17.54-3.36-.72-1.89-.13-5.32-.1-7.34q0-3.68.3-7.34c.16-2.44.4-4.88.7-7.3.28-2.25.43-4.78,3.06-5.61,1-.31,2.77.09,3.81.13l32.35,1.12c.49,0,.49-.73,0-.75Z" transform="translate(-303.31 -705.51)"/><path d="M578.22,868.44v2.93a.38.38,0,0,0,.75,0v-2.93a.38.38,0,0,0-.75,0Z" transform="translate(-303.31 -705.51)"/><path d="M614.1,840.69c-1.79,0-9.24-1.21-10.51.42s.28,4.79.84,6.23c2,5.19,4.77,10.17,7.17,15.18,1.3,2.7,2.37,7.26,5.65,8.25,2.45.74,9.2.33,11.6-.56a2.78,2.78,0,0,0,2-3.37c-.51-3.55-4.63-7.38-6.47-10.42a127.11,127.11,0,0,1-8.24-16.15c-.19-.45-.84-.06-.65.37a127.24,127.24,0,0,0,8.24,16.16c1.42,2.35,4.13,5,5,7.58,2.29,6.71-4.56,5.46-8.22,5.67-6.63.37-9.63-10.65-12-15.68-1.62-3.38-4.12-7.09-3.78-10.87.27-3,1.4-2,3.85-2h5.5a.38.38,0,0,0,0-.75Z" transform="translate(-303.31 -705.51)"/><path d="M624.19,838l-3.53.44c-.19,0-.39.15-.38.38.25,3.29,2,6,3.47,8.85l7.36,14.12c1.21,2.32,2.48,6.93,5.06,8.16,2.32,1.11,6.27-.36,8.64-.74.48-.07.28-.79-.19-.72-4.21.66-8,.89-10.7-2.93-1.9-2.74-3.21-6.18-4.76-9.14l-4.33-8.3c-1.27-2.44-5.65-8.74-.64-9.37.47-.06.48-.81,0-.75Z" transform="translate(-303.31 -705.51)"/><path d="M579.78,868.48c1.37.58,1.56,1.4,3.09,1.83,3.32.94,7.54.83,11,1.17,6.37.63,13,1.06,19.07-1.24.45-.17.26-.9-.2-.72-9.46,3.56-23.7,2.05-32.75-1.76-.45-.19-.64.53-.2.72Z" transform="translate(-303.31 -705.51)"/><path d="M555.52,869.59a8.55,8.55,0,0,0,7.1,2.37c4.87-.45,9.41-1.08,14.32-.81.48,0,.48-.72,0-.75a59.11,59.11,0,0,0-10.13.23c-3.95.45-7.47,1.46-10.76-1.57-.35-.33-.88.2-.53.53Z" transform="translate(-303.31 -705.51)"/><path d="M414.8,898.42c.53,9.86,1.28,22.2,6.3,30.92a.37.37,0,0,0,.64-.38c-4.92-8.55-5.67-20.93-6.19-30.54,0-.48-.78-.48-.75,0Z" transform="translate(-303.31 -705.51)"/><path d="M416.06,898.12a30.43,30.43,0,0,1,15.72-8.72,15.7,15.7,0,0,1,4.27-.44q8.42.82,3.54,5.58c-.23,1.9-1.1,3-2.61,3.2-2.51,1.33-6.35,1.82-9.07,2.6a.37.37,0,0,0,.2.72c3.29-.94,6.65-1.75,9.89-2.83,1.46-.49,3.19-.9,4.1-2.3,1.46-2.24.25-5.15-1.81-6.55-7.33-5-19.76,3.15-24.76,8.21a.38.38,0,0,0,.53.53Z" transform="translate(-303.31 -705.51)"/><path d="M426.8,902.24a7.48,7.48,0,0,0,2.92,7.41c.39.29.77-.36.38-.65a6.7,6.7,0,0,1-2.58-6.57c.08-.47-.64-.67-.72-.19Z" transform="translate(-303.31 -705.51)"/><path d="M430.64,911.07c2.4-2.2,5.9-4.29,9.29-4.24,2.72,0,3.54,1.45,3.89,3.66l.35,2.26a2.18,2.18,0,0,1-1.23,3c-1.6,1.74-1.65,1.56-3.72,1.38a21.72,21.72,0,0,0-4-.11,17.66,17.66,0,0,0-6.26,1.88c-.43.22-.05.86.38.65a16.87,16.87,0,0,1,9.07-1.76c1.48.12,3.19.53,4.62-.11,2.56-1.14,2-4,1.64-6.25-.5-3.35-.92-5.53-4.79-5.34a16.07,16.07,0,0,0-9.82,4.46c-.36.32.17.85.53.53Z" transform="translate(-303.31 -705.51)"/><path d="M428.46,918.76c1.57,3.1,5.1,10.26,2.14,13.35a4.68,4.68,0,0,1-6.53-.18c-1.75-1.68-2.23-4.16-2.27-6.47a.38.38,0,0,0-.75,0c.08,4.47,3.25,10.56,8.69,8.25,5.71-2.44,1.21-11.71-.63-15.33-.22-.43-.87,0-.65.38Z" transform="translate(-303.31 -705.51)"/><path d="M467.74,899.3A12.88,12.88,0,0,0,464,911.17c.59,2.78,3.44,7.4,6.75,4.68,2.94-2.41,4.22-8.76,2.31-12-2.47-4.2-6.39-2.87-9.34-.12-.36.33.18.86.53.53,1.56-1.46,3.88-2.87,6.19-2,1.84.67,2.72,3.14,2.79,4.94a11.45,11.45,0,0,1-.85,4.24,24.09,24.09,0,0,1-1.22,2.69q-4.14,2.28-5.42-.35c-3.14-4.07-.61-10.81,2.57-13.91.35-.34-.18-.87-.53-.53Z" transform="translate(-303.31 -705.51)"/><path d="M460.79,890.07c-6.64,7.68-7.89,19.1-4.75,28.6,2.47,7.5,10.39,15.13,18.81,10.86,16.61-8.42-.17-48.87-14.18-38.36-.38.28,0,.93.38.64,8.71-6.53,17,8.78,18.77,15.34,2.07,7.51,1.62,21-8.2,22.53-9.36,1.44-14.62-7.77-15.93-15.69-1.35-8.23.06-17,5.63-23.39.31-.36-.22-.89-.53-.53Z" transform="translate(-303.31 -705.51)"/><path d="M488.29,889.29c-.06,7,2.59,13.94,4.55,20.54,1.12,3.75,2.28,7.48,3.51,11.2.62,1.88,1.07,4.47,2.32,6.1,1.75,2.27,4.4,2,6.29,0,3.09-3.38,1.37-8.24-.32-11.79-.21-.43-.85-.05-.65.38.76,1.6,3.72,8.37,1.09,9.95l-6.77-1.12c-.31-.93-.63-1.86-.93-2.78q-1.69-5.12-3.25-10.25C492,904.45,489,896.72,489,889.29a.38.38,0,0,0-.75,0Z" transform="translate(-303.31 -705.51)"/><path d="M489.72,889.38c5.68-3.5,12.76-6.58,19.59-6.67,1.61,0,3.92-.09,5.32.76q5.11,3.19.75,7.16c-.09,2.28-1,3.54-2.63,3.8-2.64,1.44-8.56.79-11.46.61-.48,0-.48.72,0,.75,4.29.26,11.27,1,14.83-2.23a6.68,6.68,0,0,0,.84-9c-2.37-3-6.05-2.82-9.5-2.4a44.84,44.84,0,0,0-18.12,6.59c-.41.25,0,.9.38.64Z" transform="translate(-303.31 -705.51)"/><path d="M500.41,895.4c-.46,2.06-.92,6.42,1.23,7.87.68.45,2.13,0,2.78-.06,1.34-.17,2.68-.37,4-.56s4.12-.91,5.1-.68l4.2,3q1.5,3.38-3.26,5.46c-1.53.34-3.67-.5-5.15-.8-1.64-.33-3.4-.88-5-.06a4.14,4.14,0,0,0-1.78,5.1c.14.46.87.27.72-.19-2.36-7.41,10.17-2.19,13.55-3.75,2.55-1.17,2.41-3.59,1.63-6-.84-2.57-2.19-3.56-4.92-3.53a53.2,53.2,0,0,0-6.64.89c-1.89.27-4.32,1.1-5.7-1.13-.82-1.32-.35-4.08-.06-5.38.1-.47-.62-.67-.73-.2Z" transform="translate(-303.31 -705.51)"/><path d="M449.12,925.58a1.26,1.26,0,0,0,.22,2.37c.68.07,1.15-.76,1-1.36a1.12,1.12,0,0,0-1.67-.59c-.41.25,0,.9.38.65.24-.15.63,0,.57.3s-.26.29-.39.09-.17-.64.11-.73c.45-.16.26-.89-.2-.73Z" transform="translate(-303.31 -705.51)"/><path d="M490.55,924.74a1.68,1.68,0,0,0-1.63-.23.38.38,0,0,0-.27.36v1.19a.39.39,0,0,0,.28.36.91.91,0,0,0,1.15-1.13c-.15-.46-.87-.26-.72.2.05.17-.09.26-.23.21l.27.36v-1.19l-.28.36a1,1,0,0,1,1.05.16c.38.29.76-.36.38-.65Z" transform="translate(-303.31 -705.51)"/><path d="M522.82,921.4c-.57-.76-1.8-.73-1.94.35a1.58,1.58,0,0,0,1.56,1.79,1.71,1.71,0,0,0,1.47-2.11,1.82,1.82,0,0,0-2.37-1.09c-.44.18-.25.91.2.73,1-.4,2.11.85,1,1.57a.7.7,0,0,1-1.06-.27.82.82,0,0,1-.11-.57c.08-.27.38-.25.56,0s.94,0,.64-.38Z" transform="translate(-303.31 -705.51)"/><path d="M403.69,847.92v-.33a.38.38,0,0,0-.75,0v.33a.38.38,0,0,0,.75,0Z" transform="translate(-303.31 -705.51)"/><path d="M403,847.27a5.77,5.77,0,0,0,1.77,1.81l1.68,1.34,3.38,2.68,6.75,5.37c.38.29.91-.23.53-.53l-8.86-7c-1.4-1.11-2.75-2.34-4.22-3.36-.5-.34-.68-.62-1.28-.62a.38.38,0,0,0-.36.28l-.06.27a.38.38,0,0,0,.27.46l.2.07c.46.15.65-.57.2-.73Z" transform="translate(-303.31 -705.51)"/><path d="M401.59,853.48A18.07,18.07,0,0,1,406,856c.37.3.91-.23.53-.53a19.45,19.45,0,0,0-4.72-2.72c-.45-.18-.64.55-.2.73Z" transform="translate(-303.31 -705.51)"/><path d="M421,844.06a64.4,64.4,0,0,1,8.45,7.37c.33.35.86-.18.53-.53a65.86,65.86,0,0,0-8.6-7.49c-.39-.28-.76.37-.38.65Z" transform="translate(-303.31 -705.51)"/><path d="M560.66,856a21.6,21.6,0,0,1,5,5.42c.26.41.91,0,.65-.38a22.17,22.17,0,0,0-5.1-5.57c-.37-.29-.91.23-.53.53Z" transform="translate(-303.31 -705.51)"/></g><g id="Microphone"><path d="M545.15,754a2.09,2.09,0,0,0-2.14,3.58,2.15,2.15,0,0,0,2.94-.7,2.19,2.19,0,0,0-.85-3.09.37.37,0,0,0-.37.64,1.44,1.44,0,0,1,.62,2,1.39,1.39,0,0,1-2,.51,1.33,1.33,0,0,1,1.38-2.28c.43.23.81-.42.38-.65Z" transform="translate(-303.31 -705.51)"/><path d="M544.49,757.94l3.52,4.28c.3.38.83-.16.53-.53L545,757.41c-.31-.38-.84.16-.53.53Z" transform="translate(-303.31 -705.51)"/><path d="M546,755.91a56.84,56.84,0,0,0,4,6.62c.16.24.33.47.5.7-.22.52-.54.41-1-.34a10.24,10.24,0,0,1-.51-1,2.25,2.25,0,0,0-1.24-1c-.45-.16-.65.56-.19.72.89.33,2.42,4.38,3.89,2.13a.37.37,0,0,0,0-.38,59.25,59.25,0,0,1-4.8-7.79c-.22-.43-.87,0-.65.38Z" transform="translate(-303.31 -705.51)"/><path d="M548.62,760.38a1.34,1.34,0,0,0-.09,1.23c.12.29.4.66.75.67.6,0,1.13-.82.6-1.25-.37-.3-.91.23-.53.53v-.07l0,0c.19.1.09.07,0-.06a.62.62,0,0,1,0-.7.38.38,0,0,0-.65-.38Z" transform="translate(-303.31 -705.51)"/><path d="M549.64,762.42l.69,1.21c.24.42.87,0,.65-.38l-.45-.84c-.23-.43-.87,0-.65.38l.45.84.65-.38-.69-1.21a.38.38,0,0,0-.65.38Z" transform="translate(-303.31 -705.51)"/><path d="M546.64,761.59l.78,53.74a.38.38,0,0,0,.75,0l-.78-53.74a.38.38,0,0,0-.75,0Z" transform="translate(-303.31 -705.51)"/><path d="M547.7,762.56q1,27.84,1.27,55.71a.38.38,0,0,0,.75,0q-.32-27.87-1.27-55.71c0-.49-.77-.49-.75,0Z" transform="translate(-303.31 -705.51)"/><path d="M547.34,814.58l-.39,3.89c-.05.48.7.48.75,0l.39-3.89c0-.48-.7-.48-.75,0Z" transform="translate(-303.31 -705.51)"/><path d="M548,815.3l.69-.32-.36-.28.65,4.55.55-.43-1.67-.8c-.44-.21-.82.44-.38.65l1.67.8a.38.38,0,0,0,.55-.42L549,814.5a.37.37,0,0,0-.36-.27,2,2,0,0,0-1.22.54c-.36.33.17.86.53.53Z" transform="translate(-303.31 -705.51)"/><path d="M542.05,820.24c3.87-1.86,9.8-1.58,13.41,1v-.64c-1.68.8-4.27.38-6.09.39l-2.65,0c-.67,0-6.16,0-4.49-2,.3-.37-.23-.9-.53-.53-1.39,1.72.23,3,2,3.31,2.13.34,4.58,0,6.74,0,1.8,0,3.75.31,5.41-.49a.37.37,0,0,0,0-.64c-3.87-2.75-10-3-14.17-1-.44.21-.06.86.38.65Z" transform="translate(-303.31 -705.51)"/><path d="M523.21,789.62c-22.48-1.06-45-1.76-67.48-2.34-10.8-.28-21.59-.59-32.38-.77-10.13-.18-20.19.15-30,3a.38.38,0,0,0,.2.73c10.32-3,21-3.12,31.62-2.9q16.27.35,32.53.79c21.84.57,43.68,1.26,65.5,2.29.48,0,.48-.73,0-.75Z" transform="translate(-303.31 -705.51)"/><path d="M392.78,790.26q2,17.67,4.44,35.3c.06.48.78.28.72-.2q-2.38-17.52-4.41-35.1c0-.48-.8-.48-.75,0Z" transform="translate(-303.31 -705.51)"/><path d="M523.22,790.37c2-.16,6.6,1.84,7.53,3.57s-.07,5-.39,6.86c-.48,2.79-1.05,5.56-1.57,8.34l-3.14,16.68c-.09.47.64.68.72.2,1.72-9.14,4.16-18.43,5.19-27.67.7-6.28-2.11-9.21-8.34-8.73-.48,0-.48.78,0,.75Z" transform="translate(-303.31 -705.51)"/><path d="M409.9,793.31c-4.82-.53-8.49,5.1-8.32,9.45.17,4.56,4.56,9.55,9.41,8.92,4.65-.61,7.15-7.56,6.44-11.58-.86-4.86-5.56-7.91-10.19-5.78-.44.2-.06.84.38.64,12.32-5.64,11.5,19.76.29,15.46a8.79,8.79,0,0,1-5.58-8.13c0-3.77,3.26-8.7,7.57-8.23.48.05.48-.7,0-.75Z" transform="translate(-303.31 -705.51)"/><path d="M409.3,801.22a1.69,1.69,0,0,1,2.32,1,1.64,1.64,0,0,1-2,1.88.38.38,0,0,0-.2.73,2.32,2.32,0,1,0-.52-4.23c-.43.22-.05.87.37.65Z" transform="translate(-303.31 -705.51)"/><path d="M408.55,801.16a2.72,2.72,0,0,0,.26,3.47c.34.35.87-.18.53-.53a2,2,0,0,1-.14-2.56c.29-.39-.36-.77-.65-.38Z" transform="translate(-303.31 -705.51)"/><path d="M403.47,816c-1.72-.81-2,1.65-1.84,2.76.19,1.36,1.49,2.3,2.68,1.27a3.13,3.13,0,0,0,.59-4,1.37,1.37,0,0,0-2.44.57c-.06.48.69.47.75,0s.63-.44.9-.29a1.31,1.31,0,0,1,.51,1.06,2.63,2.63,0,0,1-.62,1.94c-.65.73-1.44.39-1.61-.52-.08-.45-.18-2.54.7-2.12.43.21.81-.44.38-.65Z" transform="translate(-303.31 -705.51)"/><path d="M416.6,816.25a2.47,2.47,0,0,0-2.21,2.4,2,2,0,0,0,2,1.88,1.65,1.65,0,0,0,1.81-1.83,1.8,1.8,0,0,0-2.2-1.58c-.46.15-.26.87.2.73a1.06,1.06,0,0,1,1.27,1c.07.69-.62,1-1.22.92-1.74-.26-1.15-2.57.35-2.76.47,0,.48-.81,0-.75Z" transform="translate(-303.31 -705.51)"/><path d="M513.75,802.53a1.52,1.52,0,0,0-1.17,2.22,1.89,1.89,0,0,0,2.88.28,2.65,2.65,0,0,0,.31-3.4,1.47,1.47,0,0,0-2.55.3c-.18.45.55.64.72.2.37-.92,1.37,0,1.5.53a2,2,0,0,1-.37,1.69,1.21,1.21,0,0,1-1.49.35c-.56-.31-.59-1.34.17-1.42.47,0,.48-.8,0-.75Z" transform="translate(-303.31 -705.51)"/><path d="M514.4,795.05c-5,.22-8,4.51-8.51,9.23-.48,4.42.26,8,5.17,8.23,5.28.21,8.8-2.73,9.76-8a7.19,7.19,0,0,0-6.7-8.77c-.49,0-.48.72,0,.75,10.13.81,6.23,16.49-3.06,15.29-5-.64-5.1-5.5-4.1-9.31,1-3.61,3.54-6.48,7.44-6.65.48,0,.48-.77,0-.75Z" transform="translate(-303.31 -705.51)"/><path d="M503.33,816.92a7.19,7.19,0,0,0-1.23.06c-.31.07-.38.27-.5.55a3.64,3.64,0,0,0-.21,2.09.36.36,0,0,0,.26.26,2.51,2.51,0,0,0,3-1.29,1.89,1.89,0,0,0-1.22-2.48.38.38,0,0,0-.2.73,1.13,1.13,0,0,1,.69,1.57,1.8,1.8,0,0,1-2.06.75l.26.26a2.92,2.92,0,0,1,.31-1.88l-.32.19,1.23-.06c.48,0,.49-.78,0-.75Z" transform="translate(-303.31 -705.51)"/><path d="M520.87,816.49a1.86,1.86,0,0,0-2.67.84,1.63,1.63,0,0,0,1.35,2.28,1.86,1.86,0,0,0,2.26-1.6,2.21,2.21,0,0,0-2.32-2.26c-.47,0-.48.79,0,.75a1.46,1.46,0,0,1,1.57,1.3,1.07,1.07,0,0,1-1.28,1.09c-.62-.06-1.2-.56-.91-1.22a1.11,1.11,0,0,1,1.62-.53c.39.29.76-.36.38-.65Z" transform="translate(-303.31 -705.51)"/><path d="M508.48,795.54c-3.23,3.21-5,10.8-3.13,15.09,2.13,4.79,9.09,3.59,12.51,1.13a11.35,11.35,0,0,0,3.68-13.55c-2.76-6.49-8.42-5.64-13.33-2.11-.39.28,0,.93.38.65,2.57-1.85,5.59-4.09,9-2.19a8.55,8.55,0,0,1,3.65,5,10.53,10.53,0,0,1-4.74,12.14c-4.76,2.74-11.06,1.65-10.87-5,.11-3.84.51-7.79,3.37-10.63a.38.38,0,0,0-.53-.53Z" transform="translate(-303.31 -705.51)"/><path d="M403.2,794.07a11.56,11.56,0,0,0-.75,15.43c3,3.87,9.33,6.13,13.06,1.82,3.26-3.78,4.43-13,1-16.91s-11.25-4.7-14,.18c-.23.43.42.8.65.38,3.9-7.05,14-1.13,14.4,4.78.21,3-.15,7.73-2.07,10.19-4.15,5.29-11,2.43-13.71-2.68a10.73,10.73,0,0,1,1.87-12.66c.34-.35-.19-.88-.53-.53Z" transform="translate(-303.31 -705.51)"/><path d="M425.35,786.63c-4.85.38-2.36,8.58-2.14,11.57l2,26.78c0,.48.79.49.75,0l-1.34-18.17c-.18-2.47-2.8-19.15.75-19.43.48,0,.48-.79,0-.75Z" transform="translate(-303.31 -705.51)"/><path d="M425.64,787.33c17.36-.33,34.71-.87,52.06.2,4.38.27,8.77.62,13.14,1,1.88.17,3.76.34,5.63.55q4.92-.63,6,4.82a25.37,25.37,0,0,1-.18,3c-.87,9-3.93,18-6.19,26.71a.37.37,0,0,0,.72.2c2.39-9.24,6.07-19.07,6.37-28.69.25-8-7.09-6.88-13.3-7.45-21.42-1.94-42.78-1.55-64.26-1.14a.38.38,0,0,0,0,.75Z" transform="translate(-303.31 -705.51)"/><path d="M424.79,806.64c12.35,0,24.71-.08,37,.14,6,.11,11.88,1,17.85,1.5,6.83.53,13.69.49,20.53.45a.38.38,0,0,0,0-.75c-6.52,0-13.05.08-19.56-.38-6.29-.45-12.5-1.45-18.82-1.57-12.34-.22-24.7-.1-37-.14a.38.38,0,0,0,0,.75Z" transform="translate(-303.31 -705.51)"/><path d="M426.12,808.12h-.81a.38.38,0,0,0,0,.75h.81a.38.38,0,0,0,0-.75Z" transform="translate(-303.31 -705.51)"/><path d="M424.5,808.78c12.56.74,25-.71,37.52.77,12.36,1.46,25,1.53,37.39,2.14.48,0,.48-.73,0-.75-12.43-.61-25-.68-37.39-2.14-12.56-1.48-25,0-37.52-.77-.49,0-.48.72,0,.75Z" transform="translate(-303.31 -705.51)"/><path d="M464.37,812.45a20.51,20.51,0,0,0-5.91-.51c-.54,0-1.89,0-1.46,1s2.89.57,3.68.59,3,.58,3.17-.76c.07-.48-.65-.68-.73-.2s-2.5.21-3,.2l-1.32,0c-.3,0-1.48,0-.63,0a20.13,20.13,0,0,1,6,.48c.46.15.66-.58.2-.72Z" transform="translate(-303.31 -705.51)"/><path d="M492.17,789.75c5.06,2.92.4,13.26-.72,17.58a.37.37,0,0,0,.72.2c1.05-4,2.68-8.33,3.07-12.49.23-2.51-.46-4.65-2.69-5.94a.38.38,0,0,0-.38.65Z" transform="translate(-303.31 -705.51)"/><path d="M495.71,789.61c3.78,2.62,1.89,7.93,1.24,11.43l-.67,3.53L496,806a1.38,1.38,0,0,0,.25,2.06c.19-.44-.45-.82-.64-.38a1.45,1.45,0,0,0-.14,1.34.38.38,0,0,0,.72,0c.84-4.48,2.11-9.09,2.5-13.63.23-2.7-.36-4.84-2.63-6.41-.39-.27-.77.38-.37.65Z" transform="translate(-303.31 -705.51)"/><path d="M488,789.71c3.25,1.93,1.42,7.26.9,10.17-.48,2.66-1.1,5.28-1.79,7.89a.37.37,0,0,0,.72.2,92.36,92.36,0,0,0,2.52-12.66c.31-2.54.41-4.83-2-6.24a.37.37,0,0,0-.38.64Z" transform="translate(-303.31 -705.51)"/><path d="M429.43,786.76c-2.41-.1-2.86,1.86-3,3.92a42.07,42.07,0,0,0,1.94,15c.07.24.44.41.62.17l.31-.39c.29-.37-.24-.91-.53-.53.25-.33-.71-3.15-.76-3.42a43.75,43.75,0,0,1-.7-5.35c-.13-1.8-1.2-8.83,2.09-8.69.49,0,.48-.73,0-.75Z" transform="translate(-303.31 -705.51)"/><path d="M435.58,787.07c-2.51,1.36-4,1.56-3.93,4.64,0,4.41,1.44,9.17,2.6,13.38a.38.38,0,0,0,.68.09l.31-.4c.3-.38-.35-.76-.64-.38.71-.93-1.38-7-1.57-8.09-.37-2.22-.9-3.95-.06-6,.73-1.79,1.4-1.71,3-2.57.42-.23,0-.88-.38-.65Z" transform="translate(-303.31 -705.51)"/><path d="M441.12,787.2c-7.3,2.86-4.82,13.24-3.43,19,.11.47.84.27.73-.2-1.26-5.22-3.84-15.48,2.9-18.11.45-.18.25-.9-.2-.73Z" transform="translate(-303.31 -705.51)"/><path d="M447.25,787.39c-4.63,4-3.05,13.17-2.8,18.51,0,.48.77.49.75,0-.24-5.09-1.72-14.24,2.58-18,.36-.32-.17-.84-.53-.53Z" transform="translate(-303.31 -705.51)"/><path d="M453.27,788.21a13.71,13.71,0,0,0-.45,6.88,77.08,77.08,0,0,1,.62,10.95c0,.4.49.46.69.19l.44-.59c.29-.38-.36-.76-.65-.37,1.12-1.49.13-6.06-.06-7.91-.33-3.06-1-6,.13-9,.17-.45-.56-.65-.72-.2Z" transform="translate(-303.31 -705.51)"/><path d="M461.39,789.5c1.36,1.43.45,6.81.45,8.7l0,7.69h.75l-.11-.87c-.06-.47-.81-.48-.75,0l.11.87a.38.38,0,0,0,.75,0l0-10.9c0-1.82.69-4.59-.68-6-.33-.35-.86.18-.53.53Z" transform="translate(-303.31 -705.51)"/><path d="M468.21,788.49c.24,3.33.42,6.66.47,10,0,1.54,0,3.08,0,4.62,0,.77,0,1.54-.05,2.31a1.87,1.87,0,0,0,.71,2.42c.23-.43-.41-.81-.65-.38a1.1,1.1,0,0,0-.16,1.13.38.38,0,0,0,.74-.09,173.51,173.51,0,0,0-.32-20c0-.47-.79-.48-.75,0Z" transform="translate(-303.31 -705.51)"/><path d="M473.36,789c4.49,3.68.77,14.59-.08,19.74-.08.47.63.67.72.2l.16-.81c.08-.47-.64-.67-.73-.2l.82-.46.36-2.19.48-2.93c.37-2.21.87-4.45,1.09-6.68.29-2.88,0-5.29-2.29-7.2-.37-.3-.91.23-.53.53Z" transform="translate(-303.31 -705.51)"/><path d="M480.29,789.16c3.24,2.49,1.6,8.28,1.08,11.57a48.43,48.43,0,0,0-.8,8.24.38.38,0,0,0,.74.1l.17-.71c.12-.47-.61-.67-.72-.2a25.8,25.8,0,0,0,.8-3.59c.17-1.47.42-2.92.65-4.38a42.21,42.21,0,0,0,.71-6c0-2.28-.39-4.22-2.25-5.65-.39-.29-.76.36-.38.65Z" transform="translate(-303.31 -705.51)"/><path d="M484.17,789.21c2.63,2.93,1.72,5.75,1.31,9.26-.2,1.66-.34,3.32-.58,5-.11.94-.26,1.87-.46,2.8a3.23,3.23,0,0,0,0,3c.35-.33-.18-.86-.53-.53l-.23.23a.38.38,0,0,0,.37.62c1.74-.55,1.87-8.68,2.06-10.32.48-4.15,1.5-7.22-1.45-10.51-.32-.36-.85.17-.53.53Z" transform="translate(-303.31 -705.51)"/></g><g id="Instruments"><path d="M404.29,756.82c6.72-3.94,12.13,2.53,14,8.34.7,2.12.6,5.31,2.17,7,2.08,2.28,6,3.2,8.39,5.36a34.5,34.5,0,0,1,6.91,9.61c.23.42.88,0,.65-.38-2.13-4-4.51-7.77-8.05-10.64a49.56,49.56,0,0,0-4.93-3.09c-3.19-2-3.34-4.69-4.41-8.09-2-6.37-8.13-12.89-15.14-8.79a.38.38,0,0,0,.38.65Z" transform="translate(-303.31 -705.51)"/><path d="M389.8,764c-.76,3.49-1.32,7.22.23,10.6a10.47,10.47,0,0,0,2.35,3.18c2.53,2.49,2.78,3.89,3.48,7.42.1.47.82.27.73-.2-.48-2.42-.53-4.91-2.14-6.77-1.75-2-3.51-2.56-4.3-5.49s-.23-5.75.38-8.55c.1-.47-.62-.67-.73-.19Z" transform="translate(-303.31 -705.51)"/><path d="M404.09,766.16c-1,3.62,1.34,6.55,4,8.68,1.6,1.26,4.79,2.8,5.42-.24a9.31,9.31,0,0,0-3.09-8.34c-1.85-1.49-4.68-1.49-5.88.79-.22.42.42.8.65.38,1.44-2.73,4.59-1.21,5.94.67a9.39,9.39,0,0,1,1.72,5.66c-.18,4-4.59.37-5.73-.74-1.83-1.78-3.05-4.07-2.34-6.66a.38.38,0,0,0-.73-.2Z" transform="translate(-303.31 -705.51)"/><path d="M387.79,730.56l8.74,15.86c1.73,3.12,3.15,7.9,6.32,9.85.41.25.79-.4.38-.65-3.57-2.19-5.92-9.34-7.89-12.92l-6.9-12.52a.38.38,0,0,0-.65.38Z" transform="translate(-303.31 -705.51)"/><path d="M380.63,719.83a14.33,14.33,0,0,0-5.14-.31.39.39,0,0,0-.36.48c.16.52-2,1.52-2.23,2.25a4.4,4.4,0,0,0,.46,2.8,8,8,0,0,0,2.58,3.33c1.45,1.1,3.43,1.5,4.26,3.29.2.44.85.06.65-.38-1.26-2.72-4.83-3-6.38-5.69-.84-1.45-1.38-2.64.09-3.88.18-.15.5-.11.67-.29.58-.6.87-.78.63-1.63l-.37.47a13.7,13.7,0,0,1,4.94.29c.47.11.67-.62.2-.73Z" transform="translate(-303.31 -705.51)"/><path d="M379.77,719.89a3.12,3.12,0,0,1,2.91,1.34c.61,1,.28,1.17.48,1.95a6.1,6.1,0,0,0,1,2.14c1.21,1.73,3.15,2.94,4,4.93.18.44.91.25.72-.2-1.12-2.69-4.28-4.12-4.91-7-.48-2.24-1.51-4.08-4.15-3.88-.48,0-.49.78,0,.75Z" transform="translate(-303.31 -705.51)"/><path d="M383.42,719.57l-1.2,1.12c-.36.33.18.86.53.53l1.2-1.12c.36-.33-.17-.86-.53-.53Z" transform="translate(-303.31 -705.51)"/><path d="M384.77,718.52a1.27,1.27,0,0,0-1-1,.38.38,0,0,0-.42.55,6.77,6.77,0,0,0,2.37,2.77.38.38,0,0,0,.56-.33c0-1.09-.05-2.53-1.17-3.1a1.56,1.56,0,0,0-2.23.72c-.16.46.56.65.72.2s1.1-.4,1.44-.06a3.17,3.17,0,0,1,.49,2.24l.57-.32a5.93,5.93,0,0,1-2.1-2.5l-.43.55a.54.54,0,0,1,.45.46c.1.47.83.27.72-.2Z" transform="translate(-303.31 -705.51)"/><path d="M385.59,721.72a2.6,2.6,0,0,0-2.27,1.37c-.24.42.41.8.64.38a1.85,1.85,0,0,1,1.63-1c.48,0,.48-.77,0-.75Z" transform="translate(-303.31 -705.51)"/><path d="M385.16,721.73a2.58,2.58,0,0,0,1.95,2.52.38.38,0,0,0,.46-.27,2.65,2.65,0,0,0-2.86-3.4c-.48.08-.28.8.2.73a1.89,1.89,0,0,1,1.93,2.47l.47-.26a1.82,1.82,0,0,1-1.4-1.79.38.38,0,0,0-.75,0Z" transform="translate(-303.31 -705.51)"/><path d="M387.24,724.54l-1.49,1.62c-.33.35.2.88.53.53l1.49-1.62c.32-.35-.21-.88-.53-.53Z" transform="translate(-303.31 -705.51)"/><path d="M387.17,724.83a2.57,2.57,0,0,0,2.07,2.73.38.38,0,0,0,.43-.17,2.47,2.47,0,0,0-2.14-3.4.38.38,0,0,0,0,.75A1.71,1.71,0,0,1,389,727l.42-.17a1.84,1.84,0,0,1-1.52-2c.05-.48-.7-.47-.75,0Z" transform="translate(-303.31 -705.51)"/><path d="M372.42,725a4,4,0,0,1-1.76,1.87c-.42.23,0,.88.38.65a4.6,4.6,0,0,0,2-2.14c.21-.44-.44-.82-.64-.38Z" transform="translate(-303.31 -705.51)"/><path d="M369,725.31a6.67,6.67,0,0,0,2.33,3.67.38.38,0,0,0,.64-.26,3.09,3.09,0,0,0-1.66-3.08c-.43-.22-.81.43-.38.65a2.38,2.38,0,0,1,1.29,2.43l.64-.27a6,6,0,0,1-2.14-3.34.37.37,0,0,0-.72.2Z" transform="translate(-303.31 -705.51)"/><path d="M374.52,727.61l-2.28,1.27c-.42.23,0,.88.38.64l2.28-1.26a.38.38,0,0,0-.38-.65Z" transform="translate(-303.31 -705.51)"/><path d="M371.19,729.23a9,9,0,0,0,2,3.37.39.39,0,0,0,.53,0,3.07,3.07,0,0,0-1.66-5c-.47-.07-.67.65-.2.73a2.31,2.31,0,0,1,1.33,3.75h.53a8.12,8.12,0,0,1-1.84-3c-.15-.46-.88-.26-.72.2Z" transform="translate(-303.31 -705.51)"/><path d="M377.49,729.69l-1.16,1.56c-.29.38.36.76.65.38l1.16-1.56c.29-.38-.36-.76-.65-.38Z" transform="translate(-303.31 -705.51)"/><path d="M376.08,731.62c-.73-.58-1.28.3-1.21,1,.14,1.42,1.7,3,2.68,4,.19.18.59.13.63-.16a5.58,5.58,0,0,0-2.87-5.79c-.42-.22-.8.42-.38.65a4.81,4.81,0,0,1,2.53,4.94l.63-.17a10.1,10.1,0,0,1-1.49-1.71,7.71,7.71,0,0,1-.49-.77c-.17-.29-.48-1.39-.56-1.46.37.3.9-.23.53-.53Z" transform="translate(-303.31 -705.51)"/><path d="M380.13,722.11v-.39a.38.38,0,0,0-.75,0v.39a.38.38,0,0,0,.75,0Z" transform="translate(-303.31 -705.51)"/><path d="M380.92,724.43a.38.38,0,0,0,0-.75.38.38,0,0,0,0,.75Z" transform="translate(-303.31 -705.51)"/><path d="M382.87,727.15a.38.38,0,0,0,0-.75.38.38,0,0,0,0,.75Z" transform="translate(-303.31 -705.51)"/><path d="M375.87,723.27a.38.38,0,0,0,0-.75.38.38,0,0,0,0,.75Z" transform="translate(-303.31 -705.51)"/><path d="M378.19,725.22v-.39a.38.38,0,0,0-.75,0v.39a.38.38,0,0,0,.75,0Z" transform="translate(-303.31 -705.51)"/><path d="M380.15,727.93a.38.38,0,0,0,0-.75.38.38,0,0,0,0,.75Z" transform="translate(-303.31 -705.51)"/><path d="M380.15,727.93a.38.38,0,0,0,0-.75.38.38,0,0,0,0,.75Z" transform="translate(-303.31 -705.51)"/><path d="M380.15,731.83l0,1.07a.38.38,0,0,0,.27.36c3.88.54,6.27,9.42,7.87,12.39a132.41,132.41,0,0,0,7.23,11.85c.27.4.92,0,.65-.38a131.37,131.37,0,0,1-9.22-15.7c-1.15-2.33-2-5.21-3.56-7.26-.44-.57-2.51-1.88-2.52-2.33s-.77-.49-.75,0Z" transform="translate(-303.31 -705.51)"/><path d="M394,754.62a8.35,8.35,0,0,0-.79,4c0,.48.78.49.75,0a7.5,7.5,0,0,1,.69-3.64c.2-.43-.44-.81-.65-.38Z" transform="translate(-303.31 -705.51)"/><path d="M393.84,757.29a54.65,54.65,0,0,0-3.59,9c-.14.46.59.66.73.2a52,52,0,0,1,3.51-8.82c.22-.43-.43-.81-.65-.38Z" transform="translate(-303.31 -705.51)"/><path d="M398.36,760.73a15,15,0,0,0-.94,13.28c.85,2,2.49,3.55,3.26,5.56.92,2.38.79,4.88,1.89,7.31.2.44.85.06.65-.38-1.09-2.4-.48-5.18-1.47-7.38a19.16,19.16,0,0,0-1.85-2.42,14.14,14.14,0,0,1-.89-15.59.38.38,0,0,0-.65-.38Z" transform="translate(-303.31 -705.51)"/><path d="M394.84,756.16l2.06,4.22c.21.43.85,0,.64-.38l-2.05-4.22c-.21-.43-.86,0-.65.38Z" transform="translate(-303.31 -705.51)"/><path d="M383,730.21l33.06,59.06c.23.42.88.05.64-.38l-33.06-59.06c-.23-.42-.88-.05-.64.38Z" transform="translate(-303.31 -705.51)"/><path d="M383.57,727.61a544,544,0,0,0,38.58,61.12c.28.39.94,0,.65-.37a543.63,543.63,0,0,1-38.58-61.13c-.23-.43-.88-.05-.65.38Z" transform="translate(-303.31 -705.51)"/><path d="M382.67,729.61l36.75,60.92a.37.37,0,0,0,.64-.38l-36.74-60.92a.38.38,0,0,0-.65.38Z" transform="translate(-303.31 -705.51)"/><path d="M382.79,728.73a4.48,4.48,0,0,0-1.41-1.33,1.93,1.93,0,0,0-1.59-.37c-1.08.47.33,1.82.71.8.17-.45-.56-.64-.72-.2.07-.21,1.27.44,1.43.55a3.58,3.58,0,0,1,.93.93c.28.39.93,0,.65-.38Z" transform="translate(-303.31 -705.51)"/><path d="M384.22,727.42a9.94,9.94,0,0,1-1.79-1.7l-.27.64h.51c.49,0,.49-.73,0-.75h-.51a.38.38,0,0,0-.26.64,10.8,10.8,0,0,0,1.94,1.82c.39.29.76-.36.38-.65Z" transform="translate(-303.31 -705.51)"/><path d="M379.88,723.13c-1.23.38-.38,1.49.17,2.06,1.51,1.57,3.07,3.09,4.6,4.64a.38.38,0,0,0,.53-.53l-2.63-2.65-1.31-1.33c-.08-.08-1.38-1.4-1.16-1.46.46-.14.26-.87-.2-.73Z" transform="translate(-303.31 -705.51)"/><path d="M396.1,784.65a5,5,0,0,0,1,3.52c.28.38.93,0,.64-.38a4.41,4.41,0,0,1-.87-3.14c0-.48-.7-.47-.75,0Z" transform="translate(-303.31 -705.51)"/><path d="M423.86,779.34a16.38,16.38,0,0,1,3.94,3.94c.28.4.93,0,.65-.37a17.26,17.26,0,0,0-4.22-4.22c-.39-.28-.77.37-.37.65Z" transform="translate(-303.31 -705.51)"/><path d="M437.33,706.36c-2.69-.53-15.25-2.72-14.37,3.06.42,2.76,4.82,4.58,6.84,5.78,1.49.88,5,3.93,6.9,2.89.43-.23.05-.88-.38-.65-1.18.65-5.1-2.27-6.14-2.89-1.5-.89-3.56-1.8-4.76-3.06a3,3,0,0,1,1.24-4.87,14.49,14.49,0,0,1,3.62-.24,33,33,0,0,1,6.86.71c.47.09.67-.63.19-.73Z" transform="translate(-303.31 -705.51)"/><path d="M436.49,706.66c3.9,1.29,7.86,2.6,11.33,4.85a8.42,8.42,0,0,1,2.69,2.06c1.46,2.37-1.48,4.52-3.6,4.64-2.45.15-5.46-.87-7.79-1.52a.38.38,0,0,0-.2.73c2.37.65,14.89,4.05,13.32-2.6-.51-2.15-3.64-3.78-5.36-4.75a57.12,57.12,0,0,0-10.19-4.14c-.46-.15-.66.57-.2.73Z" transform="translate(-303.31 -705.51)"/><path d="M437.37,710.41a72.19,72.19,0,0,1-.8,17.74c-.08.47.64.68.72.2a72.36,72.36,0,0,0,.83-17.94c0-.47-.79-.48-.75,0Z" transform="translate(-303.31 -705.51)"/><path d="M438.88,711c-.56,5-1,10-1.14,15-.08,2.5-.12,5-.09,7.52,0,1.25,0,2.51.07,3.76a2.11,2.11,0,0,0,.78,2.65c-.06-.48-.81-.48-.75,0l.12,1.11c.05.47.77.49.75,0a189.73,189.73,0,0,1,1-30c.06-.48-.69-.47-.75,0Z" transform="translate(-303.31 -705.51)"/><path d="M436.42,728.25a409.9,409.9,0,0,0,1,41.77c0,.48.78.49.75,0a409.9,409.9,0,0,1-1-41.77c0-.48-.73-.48-.75,0Z" transform="translate(-303.31 -705.51)"/><path d="M438.45,740a206,206,0,0,0,.69,29.81c0,.47.79.48.75,0A206,206,0,0,1,439.2,740c0-.48-.72-.48-.75,0Z" transform="translate(-303.31 -705.51)"/><path d="M436.8,770.17A85.31,85.31,0,0,0,422,788.29c-.13.22,0,.6.32.56,2.76-.35,3.85-2.65,5.25-4.81A89.27,89.27,0,0,1,437,772.49c.33-.36-.2-.89-.53-.53-2.27,2.48-4.54,5-6.61,7.6-.91,1.16-1.79,2.35-2.6,3.58-.32.47-3.61,5.34-4,4.48-.21-.5,2.37-3.6,2.73-4.1,1.17-1.65,2.41-3.25,3.7-4.81a83.8,83.8,0,0,1,7.64-8c.36-.33-.18-.86-.53-.53Z" transform="translate(-303.31 -705.51)"/><path d="M439.57,773.25c3.83,4.37,10.06,6,14,10.28.65.69,2.75,5.91,4.46,4.77,2.83-1.89-3.23-6.1-4.12-6.75a112.67,112.67,0,0,1-15.09-13.36c-.34-.35-.87.19-.53.53a112.75,112.75,0,0,0,9.17,8.72c1.26,1.06,2.54,2.1,3.85,3.1.92.7,1.85,1.38,2.78,2.06.47.33.93.67,1.38,1,1.16.58,1.55,1.62,1.18,3.11-.73-.23-1.63-2.64-2.2-3.32a14.54,14.54,0,0,0-3-2.55c-3.69-2.56-8.33-4.75-11.3-8.16-.32-.36-.85.17-.54.54Z" transform="translate(-303.31 -705.51)"/><path d="M436.13,773.57c-.34,2.73-1.07,5.68-1,8.42,0,.87.4,2.17,1.56,2,1.57-.21,1.41-3.06,1.57-4.16a59.71,59.71,0,0,0,.55-8.34.38.38,0,0,0-.75,0c0,1.74-.05,3.48-.2,5.21-.07.85-.17,1.7-.28,2.55s0,2.37-.46,3c0,.79-.43.72-1.24-.22l.05-.57a12.51,12.51,0,0,1,.32-2.62l.65-5.23c.06-.48-.7-.48-.75,0Z" transform="translate(-303.31 -705.51)"/><path d="M431,779.56l4.18,2.65c.41.25.79-.39.38-.65l-4.19-2.65c-.41-.25-.78.39-.37.65Z" transform="translate(-303.31 -705.51)"/><path d="M432.94,778.13l.05,0a.39.39,0,0,0,.05-.46.51.51,0,1,0-.86.55,4.93,4.93,0,0,0,1.33,1.15l1.64,1.31c.38.3.91-.23.53-.53l-1.46-1.16-.73-.59-.37-.29a.5.5,0,0,0-.72-.06l.06-.45,0,.05c-.29.38.24.91.53.53Z" transform="translate(-303.31 -705.51)"/><path d="M444.72,777.52a30.93,30.93,0,0,0-6.59,3.15c-.41.26,0,.91.37.65a30.32,30.32,0,0,1,6.42-3.08c.46-.15.26-.88-.2-.72Z" transform="translate(-303.31 -705.51)"/><path d="M445.7,779.27l0-.11-.26.46a1.45,1.45,0,0,0-1.3,0c-.31.11-.63.22-.94.35-.49.19-1,.4-1.47.61a32.15,32.15,0,0,0-3.52,1.88.37.37,0,0,0,.38.64,31.74,31.74,0,0,1,4.58-2.32c.85-.34,2.34-.47,2.78-1.35a.38.38,0,0,0-.05-.45c-.25-.19-.36-.25-.66-.13a.38.38,0,0,0-.26.46l0,.11c.11.47.83.27.72-.2Z" transform="translate(-303.31 -705.51)"/><path d="M454.5,729.14c4.59-5.61,16.61-5.51,21.09.23.3.38.82-.16.53-.53-4.77-6.11-17.26-6.21-22.16-.23-.3.38.23.91.54.53Z" transform="translate(-303.31 -705.51)"/><path d="M478.73,729.89a16.18,16.18,0,0,1,14.54-1.52c.45.17.65-.55.2-.72a16.9,16.9,0,0,0-15.12,1.59c-.41.25,0,.9.38.65Z" transform="translate(-303.31 -705.51)"/><path d="M456.57,728.78c.09.59,0,1,.18,1.53.1.4.19.8.26,1.21a17.39,17.39,0,0,1,.21,2.79l.64-.27c-1.34-1.38-1.41-3.33-1.44-5.15a.38.38,0,0,0-.75,0c0,2,.18,4.15,1.66,5.68a.38.38,0,0,0,.64-.26,17.65,17.65,0,0,0-.24-3,8.06,8.06,0,0,0-.69-2.62c-.39-.64-1.34-.59-1.2.28.08.48.8.28.73-.2Z" transform="translate(-303.31 -705.51)"/><path d="M466.86,725.2a10.86,10.86,0,0,0,.7,7.74.38.38,0,0,0,.68-.09,20.16,20.16,0,0,0,.35-5.48c-.08-.89-.18-1.85-1.16-2.13a.38.38,0,0,0-.2.73c1.45.4.47,5.74.29,6.68l.68-.09a10.08,10.08,0,0,1-.62-7.16.37.37,0,0,0-.72-.2Z" transform="translate(-303.31 -705.51)"/><path d="M472.58,728.17a8.09,8.09,0,0,0,.45,4.35.37.37,0,0,0,.55.22,3.5,3.5,0,0,0,.72-5.31c-.33-.35-.86.18-.53.53a2.75,2.75,0,0,1-.57,4.14l.55.22a7.53,7.53,0,0,1-.45-4c.08-.47-.64-.67-.72-.19Z" transform="translate(-303.31 -705.51)"/><path d="M486.8,728.37c.34,1.34-.36,2.8.56,4a1.44,1.44,0,0,0,2,.46,3.09,3.09,0,0,0,.86-2.61,6.39,6.39,0,0,0-1.25-3.59c-.28-.38-.93,0-.65.38a5.21,5.21,0,0,1,1,4.47.87.87,0,0,1-1.62,0,2.3,2.3,0,0,1-.12-1.25,7,7,0,0,0-.08-2.05.38.38,0,0,0-.73.2Z" transform="translate(-303.31 -705.51)"/><path d="M479,729.72c-.07.77-.5,5.87,1.45,4.6.77-.49.93-1.69,1-2.51a6.25,6.25,0,0,0-.83-3.49.38.38,0,0,0-.65.38c.64,1.15,1.23,3.26.42,4.5a.27.27,0,0,1-.3.3c-.25.13-.33,0-.26-.34a4.53,4.53,0,0,1-.13-1.27,15.69,15.69,0,0,1,.06-2.17c0-.48-.71-.48-.75,0Z" transform="translate(-303.31 -705.51)"/><path d="M453.82,729.43V745.2a.38.38,0,0,0,.75,0V729.43a.38.38,0,0,0-.75,0Z" transform="translate(-303.31 -705.51)"/><path d="M476,728.84l-.76,15.79c0,.48.73.48.75,0l.76-15.79c0-.48-.73-.48-.75,0Z" transform="translate(-303.31 -705.51)"/><path d="M453.78,746.58c2.54-2.17,6.35-1.69,9.45-1.64,1.54,0,9.11-.37,8,2.32-.36.88-3.77,1.18-4.55,1.26a21.8,21.8,0,0,1-5.47-.26c-2.87-.44-6.17-.85-8.32-3-.35-.34-.88.19-.53.53,3.1,3,9,3.67,13.14,3.56,2.25-.06,7.57-.6,7.83-3.52a.37.37,0,0,0-.18-.32c-3.07-1.74-8-1.34-11.35-1.36-3.09,0-6.11-.23-8.57,1.87-.37.31.16.84.53.53Z" transform="translate(-303.31 -705.51)"/><path d="M452.92,744.37c2.87-2,6.44-1.83,9.8-1.75,1.61,0,3.23.13,4.85.28l1.61.16q5.29-.88,2.63,4.41c-.43.22-.05.87.38.65,3.3-1.68,3.37-4.79-.5-5.49-5.55-1-14.19-2.38-19.15,1.09-.39.27,0,.92.38.65Z" transform="translate(-303.31 -705.51)"/><path d="M493.82,729.61c1,.16,1.32,1.16,1.31,2.08,0,.42-.08,2.12-.87,2l.36.28-.74-2.31c-.15-.45-.87-.26-.73.2l.75,2.31a.37.37,0,0,0,.36.27c1.26.13,1.5-1.51,1.59-2.42.13-1.35-.3-2.94-1.83-3.17-.47-.07-.68.65-.2.72Z" transform="translate(-303.31 -705.51)"/><path d="M494.69,734.69a47.94,47.94,0,0,1,.3,8.47c0,.48.73.48.75,0a47.94,47.94,0,0,0-.3-8.47c-.05-.47-.8-.48-.75,0Z" transform="translate(-303.31 -705.51)"/><path d="M479.13,745.14a25.42,25.42,0,0,1,7.14-2.47,24.42,24.42,0,0,1,3.72-.37c.55,0,1.1,0,1.65,0,1.21,1.39,1.26,2.13.16,2.21-1.41,1-5,1-6.63,1.1a15.32,15.32,0,0,1-6.9-1.1c-.44-.19-.64.54-.2.72a18.33,18.33,0,0,0,10.32.74c1.46-.24,5.42-.28,5.93-2.17.69-2.55-3.7-2.3-4.88-2.25a25.94,25.94,0,0,0-10.69,2.92c-.43.22-.05.87.38.65Z" transform="translate(-303.31 -705.51)"/><path d="M491.28,736.77A1.5,1.5,0,0,0,489,737c-.77,1,0,2.35.66,3.19.31.37.83-.16.53-.53-.43-.53-1-1.39-.66-2.1.22-.45.91-.71,1.26-.27s.82-.15.53-.53Z" transform="translate(-303.31 -705.51)"/><path d="M490.58,737.24c1,.49,1.23,3.42-.23,3.36-.48,0-.48.73,0,.75a1.8,1.8,0,0,0,1.76-2c0-.93-.23-2.34-1.15-2.8-.43-.22-.81.43-.38.65Z" transform="translate(-303.31 -705.51)"/><path d="M480.68,737.58a1.63,1.63,0,0,0-2.18.94c-.71,1.37.29,2.83-.16,4.24a.38.38,0,0,0,.17.43.76.76,0,0,0,1.13-.49c.15-.46-.58-.66-.73-.2l0,0,.17.42a4.27,4.27,0,0,0,.06-2.07,4.32,4.32,0,0,1-.11-1.6c.11-.49.6-1.38,1.29-1.06.44.2.82-.44.38-.65Z" transform="translate(-303.31 -705.51)"/><path d="M480.05,738.53c.83.19-.34,1.89-.48,2.38a3.89,3.89,0,0,0,0,2,.38.38,0,0,0,.73-.2,3,3,0,0,1,.18-2.21,4.65,4.65,0,0,0,.61-1.27,1.2,1.2,0,0,0-.88-1.45c-.47-.1-.67.62-.2.72Z" transform="translate(-303.31 -705.51)"/><path d="M436.26,711.72a1.35,1.35,0,0,1,2-.75,4.86,4.86,0,0,1,1.64,1.95.38.38,0,0,0,.65-.38c-.62-1-1.41-2.3-2.72-2.49a2,2,0,0,0-2.32,1.47c-.08.47.64.68.72.2Z" transform="translate(-303.31 -705.51)"/><path d="M480.77,747.35c-12.25.2-19.82,11.7-18.48,23.25.65,5.61,3.1,12.15,7.69,15.73s10.7,3.58,16.13,3c5.65-.56,9.59-2.29,12.19-7.5,2.76-5.52,4.82-11.72,3.63-17.93-2.23-11.68-13.26-18.68-24.76-16.88-.48.07-.27.8.2.72,11.07-1.73,21.76,5.1,23.84,16.36,1,5.6-.65,11-2.95,16-2.84,6.21-7.05,8.11-13.66,8.56-5.35.37-11.15,0-15.23-3.94-3.35-3.24-5.28-8.16-6.1-12.65-2.08-11.53,4.92-23.85,17.5-24a.38.38,0,0,0,0-.75Z" transform="translate(-303.31 -705.51)"/><path d="M473.9,748c-5.29-1.35-11.52,2.35-15.21,6-4,3.93-5.25,9.44-5,14.88.21,5,1.31,10.41,5.22,13.9,4.18,3.73,10,4.92,15.37,5.93.47.09.67-.63.2-.72-9-1.72-17.68-4.48-19.55-14.71-.91-5-.88-10.61,1.59-15.17,2.75-5.07,11.19-10.92,17.2-9.39a.37.37,0,0,0,.2-.72Z" transform="translate(-303.31 -705.51)"/><path d="M461.38,765.84a1.44,1.44,0,0,0-1.88-.49,2.75,2.75,0,0,0-1.24,2.32c-.11.84-.2,2,.72,2.44a1.11,1.11,0,0,0,1.57-.58c.16-.46-.57-.66-.73-.2-.08.23-.45.16-.59.07a1,1,0,0,1-.29-.77,5,5,0,0,1,.13-1.28,2.08,2.08,0,0,1,.48-1.14c.32-.3.92-.42,1.18,0s.9,0,.65-.38Z" transform="translate(-303.31 -705.51)"/><path d="M463.53,759.1a1.75,1.75,0,0,0-3-.4c-1.06,1.45.82,3.13,2.28,2.79.47-.11.27-.84-.2-.73-.81.19-2.18-.84-1.43-1.68.41-.47,1.45-.45,1.64.22a.37.37,0,0,0,.72-.2Z" transform="translate(-303.31 -705.51)"/><path d="M461.7,775.58l-1.46.31a.36.36,0,0,0-.27.26,2.53,2.53,0,0,0,4.3,2.23.38.38,0,0,0-.53-.53,1.77,1.77,0,0,1-3-1.5l-.27.26,1.47-.31c.47-.1.27-.82-.2-.72Z" transform="translate(-303.31 -705.51)"/><path d="M457.41,758.94a1.61,1.61,0,0,1,.18,2.1l.51-.13-1.67-.84c-.43-.22-.81.43-.38.65l1.67.84a.39.39,0,0,0,.51-.14,2.34,2.34,0,0,0-.29-3c-.35-.34-.88.19-.53.53Z" transform="translate(-303.31 -705.51)"/><path d="M456.52,775.37c0-.47.82-.51,1.08-.22.45.51-.15,1.27-.64,1.43s-.27.87.2.72c1.06-.34,1.89-1.86.9-2.75a1.39,1.39,0,0,0-2.29.82c0,.48.7.48.75,0Z" transform="translate(-303.31 -705.51)"/><path d="M452.74,741.43a37.31,37.31,0,0,1-8.58-.07c-2.05-.25-3.93-.56-5.94.08a.37.37,0,0,0,.2.72c2.45-.77,4.78-.09,7.26.13a35.44,35.44,0,0,0,7.06-.11c.48,0,.48-.8,0-.75Z" transform="translate(-303.31 -705.51)"/><path d="M436.1,741.49c-1.77-.51-2.54.71-2.77,2.34-.61,4.34,0,9.26.05,13.65a.38.38,0,0,0,.75,0l0-7.62c0-1.26-.83-8.41,1.8-7.65a.37.37,0,0,0,.2-.72Z" transform="translate(-303.31 -705.51)"/><path d="M433.5,761l-.13,3.68a10.07,10.07,0,0,0,0,2.74c.42,1.61,1.85.42,2.9.7a.37.37,0,0,0,.2-.72,2.94,2.94,0,0,0-1,0c-.59,0-.27.3-1-.22s-.46-.66-.43-1.41l.16-4.73c0-.48-.73-.48-.75,0Z" transform="translate(-303.31 -705.51)"/><path d="M440.18,768.28a66.53,66.53,0,0,0,12.54.44c.47,0,.48-.78,0-.75a66.53,66.53,0,0,1-12.54-.44c-.48-.06-.47.69,0,.75Z" transform="translate(-303.31 -705.51)"/><path d="M445.12,752c-1.37.06-4.27-1.06-4.55,1.2a1.24,1.24,0,0,0,1.05,1.42,17.7,17.7,0,0,0,3.49,0,.37.37,0,0,0,.37-.37,1.58,1.58,0,0,0-1.12-1.54c-.45-.16-.65.56-.2.72a.82.82,0,0,1,.57.82l.38-.38-2,0c-.55,0-2,.22-1.73-.76.41-1.29,2.83-.34,3.77-.38.48,0,.48-.77,0-.75Z" transform="translate(-303.31 -705.51)"/><path d="M442.79,744.34a16.69,16.69,0,0,0,.5,6.85.39.39,0,0,0,.69.09,10.24,10.24,0,0,0,1.09-7.31c-.1-.47-.82-.27-.72.2a9.41,9.41,0,0,1-1,6.73l.68.09a16.4,16.4,0,0,1-.47-6.65c.06-.48-.69-.47-.75,0Z" transform="translate(-303.31 -705.51)"/><path d="M439.59,743.65c2.09-.07,4.18-.06,6.26.07,1.18.08,6.15,0,6.56,1.08.17.44.9.25.73-.2-.55-1.43-2.6-1.17-3.93-1.33a65.71,65.71,0,0,0-9.62-.37c-.48,0-.48.77,0,.75Z" transform="translate(-303.31 -705.51)"/><path d="M451.19,745.2l-.06,1.78.38-.38c-.74.08-1.59.31-1.68,1.18A1.3,1.3,0,0,0,451,749.2a1.4,1.4,0,0,0,1.46-1.28,1.51,1.51,0,0,0-1.46-1.49c-.48,0-.48.7,0,.75s.8.38.69.81a.63.63,0,0,1-.81.41.58.58,0,0,1-.2-.72c.15-.25.63-.3.88-.33a.38.38,0,0,0,.37-.37l.06-1.78a.38.38,0,0,0-.75,0Z" transform="translate(-303.31 -705.51)"/><path d="M434.87,757.45a4,4,0,0,0-2.89.47,1.91,1.91,0,0,0-.77,2c.47,1.67,2.63,1.14,3.76.64.44-.19.06-.84-.38-.65-.66.29-2.35.87-2.66-.19-.17-.6.39-1.19.91-1.38a4.49,4.49,0,0,1,2-.1c.48,0,.48-.71,0-.75Z" transform="translate(-303.31 -705.51)"/><path d="M440.14,765.82c3.78.29,7.57,1.1,11.32,1.68.47.08.67-.65.19-.72-3.81-.59-7.66-1.42-11.51-1.71-.48,0-.48.71,0,.75Z" transform="translate(-303.31 -705.51)"/><path d="M436.66,765.28h-.88a.38.38,0,0,0,0,.75h.88a.38.38,0,0,0,0-.75Z" transform="translate(-303.31 -705.51)"/><path d="M496.12,742.8a9.43,9.43,0,0,1,4.46-.94,5.16,5.16,0,0,1,2,.32c.9.55.86,2.38,1,3.31.06.47.81.48.75,0a12.48,12.48,0,0,0-.41-3.12c-.33-.8-1.09-.94-1.88-1.09a10.11,10.11,0,0,0-6.26.88c-.44.2-.06.85.38.64Z" transform="translate(-303.31 -705.51)"/><path d="M503.87,746.46l1.41,0-.36-.27a.78.78,0,0,1-.35,1c-.48.24-1-.28-1-.78s-.65-.67-.72-.2a1.46,1.46,0,1,0,2.76-.22.4.4,0,0,0-.36-.28l-1.41,0c-.49,0-.48.73,0,.75Z" transform="translate(-303.31 -705.51)"/><path d="M503.91,749.07l.73,2.31.26-.46a69.54,69.54,0,0,0-7,1.35.37.37,0,0,0,.2.72,66.83,66.83,0,0,1,7-1.34.37.37,0,0,0,.26-.46l-.73-2.32a.37.37,0,0,0-.72.2Z" transform="translate(-303.31 -705.51)"/><path d="M497.9,745.66c-1,.85-1.38,3.17.2,3.69a1.19,1.19,0,0,0,1.47-.81,2.33,2.33,0,0,0-.69-2.16c-.29-.38-.82.15-.53.53a1.72,1.72,0,0,1,.54,1.28c-.12.62-.72.5-1,0a1.7,1.7,0,0,1,.5-2c.37-.32-.17-.85-.53-.53Z" transform="translate(-303.31 -705.51)"/><path d="M498.09,749.67l.32,2.37c.06.48.79.28.72-.2l-.32-2.37c-.06-.48-.79-.27-.72.2Z" transform="translate(-303.31 -705.51)"/><path d="M499,752.1a2.63,2.63,0,0,1-2,.17c-.46-.14-.66.58-.2.73a3.46,3.46,0,0,0,2.62-.25c.43-.23.05-.87-.38-.65Z" transform="translate(-303.31 -705.51)"/><path d="M492.73,747.05l.54,1.72.36-.47a2.12,2.12,0,0,1-1.18-.45c-.37-.29-.91.24-.53.54a3.12,3.12,0,0,0,1.71.66.38.38,0,0,0,.36-.48l-.54-1.72c-.14-.46-.87-.26-.72.2Z" transform="translate(-303.31 -705.51)"/><path d="M491.68,746.29a1.3,1.3,0,0,0,.88,2.43c.47-.07.27-.8-.2-.72a.56.56,0,0,1-.31-1.06c.43-.23.05-.88-.37-.65Z" transform="translate(-303.31 -705.51)"/><path d="M482.59,732.22c-.15.94-.79,5,1.2,4.33a1.6,1.6,0,0,0,1-1.65,29.72,29.72,0,0,0-.44-3.75c0-.21-.22-.46-.48-.36a2.46,2.46,0,0,0-1.65,2.43.38.38,0,0,0,.75,0,1.7,1.7,0,0,1,1.1-1.71l-.47-.36c.14,1.14.36,2.3.42,3.45,0,.21.08.61,0,.78-.52.43-.75.39-.7-.09a4.88,4.88,0,0,1-.06-.52,10.39,10.39,0,0,1,.13-2.36c.07-.47-.65-.67-.73-.19Z" transform="translate(-303.31 -705.51)"/><path d="M467.7,738a1.4,1.4,0,0,0-1.86-1.57.42.42,0,0,0-.28.36,9.36,9.36,0,0,0,.63,4.68c.18.44.91.25.72-.2a8.79,8.79,0,0,1-.6-4.48l-.27.37c.38-.17,1,.09.94.64s.64.67.72.2Z" transform="translate(-303.31 -705.51)"/><path d="M467.41,738a14.93,14.93,0,0,1,.12,3.72c0,.48.7.47.75,0a15.58,15.58,0,0,0-.15-3.92c-.08-.48-.8-.28-.72.2Z" transform="translate(-303.31 -705.51)"/><path d="M456,737.55a5,5,0,0,0-.59,4.5c.16.45.89.26.73-.2a4.27,4.27,0,0,1,.51-3.93c.27-.39-.38-.77-.65-.37Z" transform="translate(-303.31 -705.51)"/><path d="M457.18,738.38a1,1,0,0,1,.33,1l-.09.55-.15.91-.33,2c-.07.47.65.67.73.2l.47-2.93a3.91,3.91,0,0,0,.11-1.86.94.94,0,0,0-1.72-.24c-.21.44.44.82.65.38Z" transform="translate(-303.31 -705.51)"/><path d="M466.46,750l1.71,0-.37-.38,0,1.74.37-.38a7.14,7.14,0,0,1-3.6-.49c-.45-.18-.64.54-.2.72a7.61,7.61,0,0,0,3.8.52.38.38,0,0,0,.38-.37l0-1.74a.38.38,0,0,0-.38-.37l-1.71,0a.38.38,0,0,0,0,.75Z" transform="translate(-303.31 -705.51)"/><path d="M458.64,758.74a1.44,1.44,0,0,0-2.28-.29c-.33.36.2.89.53.53a.68.68,0,0,1,1.1.13c.23.43.88,0,.65-.37Z" transform="translate(-303.31 -705.51)"/><path d="M461.58,749a26.24,26.24,0,0,0-9.21,22.15c.3,3.38,1.17,7.4,3.46,10.06,2.51,2.93,7,3.61,10.52,4.68.46.14.66-.58.2-.73-3.85-1.18-8.49-1.93-10.91-5.5-2.09-3.08-2.69-7.74-2.6-11.32a25.52,25.52,0,0,1,9.07-18.81c.37-.31-.17-.84-.53-.53Z" transform="translate(-303.31 -705.51)"/><path d="M478.86,744.9a6.09,6.09,0,0,1-2,1l.47.26a3.92,3.92,0,0,1-.26-2c.07-.47-.65-.68-.72-.2a4.69,4.69,0,0,0,.25,2.43.39.39,0,0,0,.46.26,6.64,6.64,0,0,0,2.18-1.08c.38-.29,0-.94-.38-.65Z" transform="translate(-303.31 -705.51)"/><path d="M477.71,729.29l-1.08,3c-.16.46.56.65.73.2l1.07-3c.16-.45-.56-.65-.72-.2Z" transform="translate(-303.31 -705.51)"/><path d="M488.48,746.79l.38,1.74c.1.47.82.27.72-.2l-.38-1.74c-.1-.47-.82-.27-.72.2Z" transform="translate(-303.31 -705.51)"/><path d="M469.66,754.61c-5.4,8.79-7.39,21.08.94,28.87,7.22,6.76,19,4.83,24.8-2.74,6.2-8.1,5.47-20.45-2.53-27.08-6-5-20.6-6.83-24.12,2.24-.17.45.55.64.73.2,2.13-5.5,10.67-6.51,15.54-5.46a17.7,17.7,0,0,1,9.35,5.51c6.41,7.1,5.72,19.15-1,25.82-7.11,7-19.28,6.5-24.83-2.16-5-7.86-2.8-17.37,1.78-24.82.25-.41-.4-.79-.65-.38Z" transform="translate(-303.31 -705.51)"/><path d="M503.13,752c.78-.31.88-.07.32.71l-.69.28a16.43,16.43,0,0,1-1.68.54,20.4,20.4,0,0,1-3.64.64c-.48,0-.48.79,0,.75A21.59,21.59,0,0,0,502,754c.79-.25,2.28-.56,2.63-1.47.47-1.19-1.28-2-2-1.1-.31.37.22.9.53.53Z" transform="translate(-303.31 -705.51)"/><path d="M454,728.53a4.58,4.58,0,0,1,3.22-2.64c.83-.27,1.68-.52,2.53-.73,1.41-.38,2.85-.69,4.29-.93,5-.83,9.85-.55,12.11,4.75.19.44.84.06.65-.38-3.25-7.62-11.58-5.74-18.1-3.93-1.23.34-5.81,1.05-6.13,2.9a1.34,1.34,0,0,0,1.43,1.71c.48,0,.48-.72,0-.75Z" transform="translate(-303.31 -705.51)"/><path d="M477.22,730.2c.43-2.27,6-3,7.81-3.51,3.34-.89,11.3-1.75,10,4.66-.1.47.63.68.72.2.84-4-2.79-6.44-6.44-6.39-3,0-6,1.22-8.86,2.05-1.73.5-3.53.82-3.9,2.79-.09.47.63.67.72.2Z" transform="translate(-303.31 -705.51)"/><path d="M505.6,732.08a15.92,15.92,0,0,0-9,1.33c-.39.17-.13.66.19.7,4.7.6,9.39,1.28,14.1,1.79,2.85.31,5.35.32,7.9-1.08a.38.38,0,0,0,0-.65,37.17,37.17,0,0,0-6.74-2.58c-.62-.15-6.49-.35-6.09.07s.86-.18.53-.53l-.12-.13a.39.39,0,0,0-.53,0l-.17.18a.38.38,0,0,0,.07.59c1.27.9,3.8.06,5.35.35.74.14,5.73,1.28,5.88,2,.35,1.76-3.86,1.19-4.84,1.12-3.15-.24-6.31-.77-9.44-1.17l-2.53-.32c-1.86.06-2.22-.1-1.07-.49.74-1.35,5.12-.65,6.49-.47.48.07.47-.68,0-.75Z" transform="translate(-303.31 -705.51)"/><path d="M507.2,731.49a28.5,28.5,0,0,1,.82-7.59l-.74-.1.42,8.56c0,.48.77.48.75,0L508,723.8a.37.37,0,0,0-.73-.1,29.14,29.14,0,0,0-.85,7.79.38.38,0,0,0,.75,0Z" transform="translate(-303.31 -705.51)"/><path d="M507.12,736.43c-.1,2.93-.16,5.85-.14,8.78,0,2.62,1,7.75-1.65,9.53a.38.38,0,0,0,0,.65c3.39,2.11,1.41,7.29,1.36,10.85a.38.38,0,0,0,.75,0,85,85,0,0,1,.79-10.44.38.38,0,0,0-.36-.47c-2.18.06-.2-2.73-.06-4.06.5-4.83-.1-10,.06-14.84a.38.38,0,0,0-.75,0Z" transform="translate(-303.31 -705.51)"/><path d="M509.06,737.9l-.79,27.75c0,.49.73.49.75,0l.79-27.75a.38.38,0,0,0-.75,0Z" transform="translate(-303.31 -705.51)"/><path d="M509,766.36a127.33,127.33,0,0,1,8.89,11.41c1,1.49,2.07,3,3.09,4.51.55.79,1.08,1.6,1.61,2.41q2.68,4.42-.34,6.41c-.33-.35-.86.18-.53.53l.82.88a.37.37,0,0,0,.62-.16c1.76-5.21.42-7.59-2.56-12a147.64,147.64,0,0,0-11.07-14.56c-.32-.37-.85.17-.53.53Z" transform="translate(-303.31 -705.51)"/><path d="M507.48,767.61c3.08,3.69,6.1,7.44,9,11.26a48.94,48.94,0,0,1,3.26,4.36c1.73,2.92,1.24,5,.67,8-.08.47.64.68.73.2,1-5.34,1.07-6.21-2.37-10.8s-7.07-9.15-10.78-13.59c-.31-.37-.84.16-.53.53Z" transform="translate(-303.31 -705.51)"/><path d="M507,769.26l-3.11,5.32c-.25.41.4.79.65.38l3.11-5.32a.38.38,0,0,0-.65-.38Z" transform="translate(-303.31 -705.51)"/><path d="M505.93,767q-3.17,6.38-5.9,12.94c-.18.45.54.64.73.2q2.69-6.48,5.81-12.76c.22-.43-.43-.81-.64-.38Z" transform="translate(-303.31 -705.51)"/><path d="M504.09,774.22l-3.54,7c-.21.43.43.81.65.37l3.54-7c.21-.43-.43-.81-.65-.38Z" transform="translate(-303.31 -705.51)"/><path d="M501.46,779.77a31.71,31.71,0,0,0-4,10.05c-.1.47.63.68.73.2a30.81,30.81,0,0,1,4-9.88c.25-.41-.39-.78-.65-.37Z" transform="translate(-303.31 -705.51)"/><path d="M498.28,783a25.13,25.13,0,0,0-2.15,7.49c-.06.48.69.47.75,0a24.07,24.07,0,0,1,2-7.11c.21-.44-.44-.82-.64-.38Z" transform="translate(-303.31 -705.51)"/><path d="M508.31,770.33c-.1,2.34-.16,4.69-.17,7,0,1,.53,5.16-.48,5.24-2.25.15-1.12-5.11-1-6.24.27-2.67.64-5.33,1.06-8,.08-.47-.65-.67-.72-.2-.64,4-1.18,8-1.42,12-.19,3.11.46,2.48,2.93,3.44a.38.38,0,0,0,.48-.36q-.18-6.45.08-12.9c0-.48-.73-.48-.75,0Z" transform="translate(-303.31 -705.51)"/></g><g id="VanTireBack"><path d="M354.05,937.54c-.2,10.28,7.86,19.54,18.46,19.77,9.18.2,20.45-10.45,19.69-19.78,0-.48-.79-.49-.75,0,.71,8.77-10.36,19.21-18.94,19-10.18-.21-17.91-9.16-17.71-19a.38.38,0,0,0-.75,0Z" transform="translate(-303.31 -705.51)"/><path d="M347.07,936.31c1.55,13.7,7.61,28.06,23.65,27.45,13.34-.51,27.33-11,26.94-25.31,0-.48-.77-.48-.75,0,.38,13.9-13.26,24.06-26.19,24.56-15.67.6-21.4-13.49-22.9-26.7-.05-.48-.81-.48-.75,0Z" transform="translate(-303.31 -705.51)"/><path d="M369.23,937.89c-2.59.35-8.25,0-9.36,3.18a3.6,3.6,0,0,0,.29,2.59,29.57,29.57,0,0,0,3.41,6.15.38.38,0,0,0,.59.07c1.92-2,4.19-4.71,5.1-7.34a2.88,2.88,0,0,0,.13-2c-.15-.38-1.54-1.57-1.49-1.67.19-.43-.46-.82-.65-.37-.76,1.74,2,1.62,1.07,4.24-.77,2.28-3.07,4.89-4.69,6.57l.59.08c-1.25-1.78-4.67-6.23-3.46-8.48s6.53-2,8.67-2.34c.48-.06.27-.78-.2-.72Z" transform="translate(-303.31 -705.51)"/><path d="M373.31,940.67l-1.5,7.23c-.21,1-.88,2.65-.28,3.68,1.1,1.87,4.82.39,6.2-.14,2.08-.8,3.82-1.48,2.91-3.89a18.77,18.77,0,0,0-6.35-7.77c-.39-.29-.76.36-.38.65a19.51,19.51,0,0,1,5,5.47,8.74,8.74,0,0,1,1.25,2.5c0,1.64-2.22,2.2-3.36,2.58-.67.22-2.8,1-3.43.71-1.43-.72-1.09-2.41-.85-3.59l1.5-7.23c.1-.47-.63-.67-.72-.2Z" transform="translate(-303.31 -705.51)"/><path d="M374.9,938a40.85,40.85,0,0,0,4.37,3.61c1.22.86,2.78,2.17,4.37,2.15,2.83,0,3.31-4.17,3.21-6.26,0-.48-.78-.48-.75,0,.06,1.26,0,3.12-.76,4.21-1.62,2.21-3.37.8-4.71-.08a38.55,38.55,0,0,1-5.2-4.16c-.35-.34-.88.19-.53.53Z" transform="translate(-303.31 -705.51)"/><path d="M354.93,937c-.75-10.61,10.16-19.1,20.4-16.77,8.7,2,16.49,8.92,16.24,18.31a.38.38,0,0,0,.75,0c.27-10.16-8.83-18.19-18.56-19.36-10.25-1.22-20.31,7.41-19.58,17.82,0,.48.78.48.75,0Z" transform="translate(-303.31 -705.51)"/><path d="M348.06,936.41c-1.43-14,11-24.06,24.32-23.61,7.14.24,12.49,3.14,16.84,8.68S397,933.59,397,941a.38.38,0,0,0,.75,0c-.07-13.94-10.94-28.48-25.39-28.92-13.73-.42-26.55,9.9-25.07,24.36.05.48.8.48.75,0Z" transform="translate(-303.31 -705.51)"/><path d="M387,937.22c-.66-2.68-2-5.49-5.22-5.09-2.82.35-7.16,2.53-7,5.81,0,.48.78.49.75,0-.14-2.52,3.47-4.5,5.68-5,3.22-.64,4.39,1.79,5,4.43a.38.38,0,0,0,.73-.2Z" transform="translate(-303.31 -705.51)"/><path d="M362.58,927.63a18.7,18.7,0,0,0-2.38,4.8c-.3.91-1,2.65-.35,3.59s1.94.46,2.85.29c2-.39,4.8-.6,6.64-1.6,2.33-1.26-.68-4.49-1.66-5.64-1.17-1.35-4.16-4.21-5.32-1.2-.18.45.55.65.72.2.9-2.32,3.58,1,4.07,1.53a13.32,13.32,0,0,1,1.67,2.15c1.12,2.09.18,2.32-1.54,2.77-.86.22-1.71.42-2.57.61a9.13,9.13,0,0,1-2.58.53c-2.32-.33-1.69-1.44-1.31-2.72a18.47,18.47,0,0,1,2.4-4.93c.28-.4-.37-.77-.64-.38Z" transform="translate(-303.31 -705.51)"/><path d="M369.8,926.11a54.08,54.08,0,0,0,2.38,6.83c.3.6.48.87,1.18,1,2.57.36,5.83-2.49,6.72-4.73.35-.87.13-1.14-.53-1.74a18.21,18.21,0,0,0-5-2.7c-2.09-.87-5.34-1.13-5.57,1.89,0,.48.71.48.75,0,.29-3.77,5.67-.72,7,0,1.06.58,2.59,1.1,2.3,2.73-.14.81-1.33,1.72-2,2.23a6.53,6.53,0,0,1-2.52,1.37c-1.5.4-1.69-.12-2.13-1.37l-2-5.7c-.16-.46-.88-.26-.72.2Z" transform="translate(-303.31 -705.51)"/></g><g id="VanTireFront"><path d="M569.05,940.54c-.2,10.28,7.86,19.54,18.46,19.77,9.18.2,20.45-10.45,19.69-19.78,0-.48-.79-.49-.75,0,.71,8.77-10.36,19.21-18.94,19-10.18-.21-17.91-9.16-17.71-19a.38.38,0,0,0-.75,0Z" transform="translate(-303.31 -705.51)"/><path d="M562.07,939.31c1.55,13.7,7.61,28.06,23.65,27.45,13.34-.51,27.33-11,26.94-25.31,0-.48-.77-.48-.75,0,.38,13.9-13.26,24.06-26.19,24.56-15.67.6-21.4-13.49-22.9-26.7-.05-.48-.81-.48-.75,0Z" transform="translate(-303.31 -705.51)"/><path d="M584.23,940.89c-2.59.35-8.25,0-9.36,3.18a3.6,3.6,0,0,0,.29,2.59,29.57,29.57,0,0,0,3.41,6.15.38.38,0,0,0,.59.07c1.92-2,4.19-4.71,5.1-7.34a2.88,2.88,0,0,0,.13-2c-.15-.38-1.54-1.57-1.49-1.67.19-.43-.46-.82-.65-.37-.76,1.74,2,1.62,1.07,4.24-.77,2.28-3.07,4.89-4.69,6.57l.59.08c-1.25-1.78-4.67-6.23-3.46-8.48s6.53-2,8.67-2.34c.48-.06.27-.78-.2-.72Z" transform="translate(-303.31 -705.51)"/><path d="M588.31,943.67l-1.5,7.23c-.21,1-.88,2.65-.28,3.68,1.1,1.87,4.82.39,6.2-.14,2.08-.8,3.82-1.48,2.91-3.89a18.77,18.77,0,0,0-6.35-7.77c-.39-.29-.76.36-.38.65a19.51,19.51,0,0,1,5,5.47,8.74,8.74,0,0,1,1.25,2.5c0,1.64-2.22,2.2-3.36,2.58-.67.22-2.8,1-3.43.71-1.43-.72-1.09-2.41-.85-3.59l1.5-7.23c.1-.47-.63-.67-.72-.2Z" transform="translate(-303.31 -705.51)"/><path d="M589.9,941a40.85,40.85,0,0,0,4.37,3.61c1.22.86,2.78,2.17,4.37,2.15,2.83,0,3.31-4.17,3.21-6.26,0-.48-.78-.48-.75,0,.06,1.26,0,3.12-.76,4.21-1.62,2.21-3.37.8-4.71-.08a38.55,38.55,0,0,1-5.2-4.16c-.35-.34-.88.19-.53.53Z" transform="translate(-303.31 -705.51)"/><path d="M569.93,940c-.75-10.61,10.16-19.1,20.4-16.77,8.7,2,16.49,8.92,16.24,18.31a.38.38,0,0,0,.75,0c.27-10.16-8.83-18.19-18.56-19.36-10.25-1.22-20.31,7.41-19.58,17.82,0,.48.78.48.75,0Z" transform="translate(-303.31 -705.51)"/><path d="M563.06,939.41c-1.43-14,11-24.06,24.32-23.61,7.14.24,12.49,3.14,16.84,8.68S612,936.59,612,944a.38.38,0,0,0,.75,0c-.07-13.94-10.94-28.48-25.39-28.92-13.73-.42-26.55,9.9-25.07,24.36.05.48.8.48.75,0Z" transform="translate(-303.31 -705.51)"/><path d="M602,940.22c-.66-2.68-2-5.49-5.22-5.09-2.82.35-7.16,2.53-7,5.81,0,.48.78.49.75,0-.14-2.52,3.47-4.5,5.68-5,3.22-.64,4.39,1.79,5,4.43a.38.38,0,0,0,.73-.2Z" transform="translate(-303.31 -705.51)"/><path d="M577.58,930.63a18.7,18.7,0,0,0-2.38,4.8c-.3.91-1,2.65-.35,3.59s1.94.46,2.85.29c2-.39,4.8-.6,6.64-1.6,2.33-1.26-.68-4.49-1.66-5.64-1.17-1.35-4.16-4.21-5.32-1.2-.18.45.55.65.72.2.9-2.32,3.58,1,4.07,1.53a13.32,13.32,0,0,1,1.67,2.15c1.12,2.09.18,2.32-1.54,2.77-.86.22-1.71.42-2.57.61a9.13,9.13,0,0,1-2.58.53c-2.32-.33-1.69-1.44-1.31-2.72a18.47,18.47,0,0,1,2.4-4.93c.28-.4-.37-.77-.64-.38Z" transform="translate(-303.31 -705.51)"/><path d="M584.8,929.11a54.08,54.08,0,0,0,2.38,6.83c.3.6.48.87,1.18,1,2.57.36,5.83-2.49,6.72-4.73.35-.87.13-1.14-.53-1.74a18.21,18.21,0,0,0-5-2.7c-2.09-.87-5.34-1.13-5.57,1.89,0,.48.71.48.75,0,.29-3.77,5.67-.72,7,0,1.06.58,2.59,1.1,2.3,2.73-.14.81-1.33,1.72-2,2.23a6.53,6.53,0,0,1-2.52,1.37c-1.5.4-1.69-.12-2.13-1.37l-2-5.7c-.16-.46-.88-.26-.72.2Z" transform="translate(-303.31 -705.51)"/></g></svg>