<svg id="Layer_1" data-name="Layer 1" xmlns="http://www.w3.org/2000/svg" viewBox="0 0 179.845 96.698"><title>wws_van</title><path d="M189.7,125.717l-10.77-25.644c-3.351-7.976-6.38-16.2-10.154-23.982-3.211-6.626-8.356-9.952-15.554-11.093-8.323-1.318-16.942-1.564-25.352-1.856-18.412-.64-36.761.486-55.144,1.358-9.042.429-18.094.754-27.148.654-9-.1-18.12-1.38-27.115-.9-2.666.143-5.289.858-6.678,3.332-1.633,2.909-1.345,6.906-1.5,10.11q-.657,13.717-.209,27.459.223,6.862.724,13.713c.254,3.48-.091,8.187,1.515,11.389,1.209,2.411,3.8,3.267,6.291,3.708,4.083.724,8.231,1.189,12.345,1.7a527.993,527.993,0,0,0,54.884,3.977q13.761.278,27.523-.162c4.549-.145,9.106-.3,13.646-.615,2.544-.175,5.086-.625,6.762-2.726,3.306-4.143,1.377-10.3,4.4-14.551,2.913-4.085,8.722-2.39,12.2-.048a17.058,17.058,0,0,1,6.754,9.83c.718,2.519,1.539,5.021,4.189,6.055,3.361,1.312,7.933.408,11.439.31,5.492-.154,14.019.558,16.45-5.814a5.666,5.666,0,0,0-1.108-6.211c-.452-.46-1.159.248-.707.707,3.587,3.642-.567,8.314-4.251,9.449-3.7,1.14-7.993.8-11.827.909-3.677.1-9.869,1.4-12.059-2.414-1.587-2.761-1.734-6.043-3.53-8.775-2.826-4.3-8.31-8.193-13.7-7.391-4.968.74-6.147,5.486-6.776,9.73-.375,2.527-.579,5.472-2.235,7.545-2.482,3.107-7.717,2.506-11.295,2.677q-12.52.6-25.059.6-25.069.007-50.063-2.364-12.657-1.2-25.245-3.014a26.417,26.417,0,0,1-4.807-.932c-2.582-.886-3.7-2.91-4.034-5.513-.524-4.126-.744-8.316-.993-12.466q-.749-12.484-.582-25,.085-6.377.409-12.745c.2-4.009-.2-9.84,4.681-11.131,3.69-.977,8.111-.348,11.876-.158,4.251.215,8.5.5,12.751.624,8.39.246,16.786.077,25.172-.252,16.608-.652,33.2-1.913,49.825-1.884q12.477.021,24.934.885c7.213.5,16.287.207,22.259,4.928,2.939,2.323,4.625,5.718,6.087,9.086,1.779,4.1,3.468,8.241,5.2,12.362l9.809,23.354,4.808,11.449c.246.584,1.214.327.964-.266Z" transform="translate(-9.895 -50.996)"/><path d="M134.042,134.474c-4.256,6.4,5.5,11.291,10.4,12.014,3.673.543,7.81.509,10.911-1.8a10.548,10.548,0,0,0,4.188-8.091c.029-.644-.971-.642-1,0-.323,7.015-6.635,9.692-12.863,9.038a16.905,16.905,0,0,1-7.822-2.556c-2.519-1.726-4.953-5.081-2.945-8.1.357-.537-.509-1.039-.864-.505Z" transform="translate(-9.895 -50.996)"/><path d="M26.93,135.44c-2.029,9.117,11.529,11.216,17.675,11.96,7.219.874,18.583.231,21.559-7.923.221-.6-.745-.866-.965-.266-2.574,7.054-12.466,7.871-18.8,7.373-5.717-.451-20.425-2.256-18.506-10.878.139-.627-.825-.895-.965-.266Z" transform="translate(-9.895 -50.996)"/><path d="M37.8,135.083c-2.934,4.025,3.309,6.208,6.079,6.956,4.171,1.126,9.592,1.07,11.228-3.769.206-.611-.759-.873-.964-.265-1.326,3.92-5.745,4.074-9.129,3.3a31.7,31.7,0,0,1-3.269-.945c-1.844-.639-4.81-2.4-3.082-4.767.38-.521-.487-1.021-.863-.5Z" transform="translate(-9.895 -50.996)"/><path d="M152.865,127.883c-1.724-5.069-7.673-7.569-12.271-4.435-5.108,3.48-4.3,10.9-.5,15.072,3.692,4.055,10.44,5,14.227.526a7.069,7.069,0,0,0-3.079-11.324c-.614-.2-.877.766-.266.964,5.014,1.633,5.235,8.085,1.232,10.951-3.636,2.6-8.553,1.327-11.407-1.824-3.336-3.681-4.234-10.37.3-13.5a7.147,7.147,0,0,1,10.8,3.838c.206.606,1.173.346.965-.266Z" transform="translate(-9.895 -50.996)"/><path d="M160.829,74.136c4.761.484,5.728,7.293,6.937,10.962l4.04,12.265a9.687,9.687,0,0,1,.819,2.57c-.017,2.364-2.656,2.308-4.179,2.459-1.922.19-3.864.161-5.793.171-4.168.022-8.337.039-12.5-.027s-8.331-.212-12.487-.514c-2.1-.153-4.63-.108-6.384-1.429-1.934-1.456-2.125-4.2-2.4-6.433a121.608,121.608,0,0,1-.7-13.221,11.963,11.963,0,0,1,.559-4.795c1.168-2.778,4.156-2.465,6.7-2.556l14.212-.507c4.685-.167,9.495-.651,14.071.616a.5.5,0,0,0,.265-.964c-4.97-1.377-10.23-.8-15.317-.617-5.542.2-11.253.017-16.763.628-3.183.354-4.422,2.76-4.685,5.731a76.85,76.85,0,0,0,.777,16.657c.5,3.64,1.506,6.6,5.433,7.439,4.885,1.038,10.3.837,15.267.939,5.551.113,11.118.144,16.669.031,2.333-.047,8.447.426,8.323-3.171a16.411,16.411,0,0,0-1.237-4.216l-1.554-4.718L167.8,82c-1.215-3.687-2.41-8.4-6.969-8.865-.64-.065-.635.935,0,1Z" transform="translate(-9.895 -50.996)"/><path d="M117.866,77.444l-9.95.545-5.473.3c-.719.039-1.947-.084-2.574.382-1.285.956-.885,3.945-.718,5.228.26,1.991.655,4.8,2.445,6.044,1.633,1.139,4.181,1.095,6.07,1.251,2.865.237,6.171.633,9.028.149,1.858-.314,2.294-2.221,2.494-3.891a72.757,72.757,0,0,0,.075-9.928.505.505,0,0,0-.633-.482,1.611,1.611,0,0,0-.918.533c-.466.445.241,1.152.707.707l.477-.276-.633-.482c.038,1.969.06,3.937.051,5.905-.011,2.72.388,5.767-2.742,6.97-1.471.565-4.383.015-5.933-.07-2.4-.13-5.259-.007-7.263-1.386-1.928-1.327-2.359-4.557-2.35-6.817.008-2.1.241-2.494,2.417-2.837.969-.153,2-.11,2.985-.164l12.438-.681c.64-.035.644-1.035,0-1Z" transform="translate(-9.895 -50.996)"/><path d="M88.814,79.981a106.74,106.74,0,0,1-12.773.156c-1.992-.088-4.454-.138-5.612,1.828-.674,1.144-.447,2.5-.351,3.755a37.386,37.386,0,0,0,.446,5.236c.441,1.975,2,2.533,3.848,2.787a79.606,79.606,0,0,0,11.17.278c1.642-.008,5.673.794,6.952-.681.849-.98.55-2.791.564-3.932a41.38,41.38,0,0,0-.185-5.72c-.274-2.112-1.178-3.934-3.508-3.974a.5.5,0,0,0,0,1c3.274.056,2.678,5.19,2.7,7.336.008.936.312,2.765-.068,3.62-.741,1.67-1.949,1.329-3.271,1.336-4.323.021-8.713.24-13.025-.132-2.045-.176-3.447-.106-4.268-2.729a15.37,15.37,0,0,1-.247-3.1,14.844,14.844,0,0,1-.224-3.016c.376-2.62,1.856-2.936,3.95-2.942,4.665-.013,9.234.244,13.9-.108.637-.049.643-1.049,0-1Z" transform="translate(-9.895 -50.996)"/><path d="M157.611,73.058c3.02,9.683,3.535,19.8,3.971,29.87.028.641,1.028.645,1,0-.44-10.153-.96-20.369-4.006-30.136-.191-.613-1.157-.351-.965.266Z" transform="translate(-9.895 -50.996)"/><path d="M102.245,79.456c-1.61-1.448-4.05.068-5.592-1.282-2.458-2.154.942-2.321,2.4-2.427,1.437-.105,2.876-.189,4.315-.284,2.652-.174,5.3-.4,7.96-.512a25.549,25.549,0,0,1,3.456.03,8.559,8.559,0,0,1,3.02.662q1.1.047.4.983.059,1.026-.888.812c-.635.061-.641,1.062,0,1,1.013-.1,2.336.315,2.846-.877a2,2,0,0,0-.961-2.38c-3.619-2.5-9.886-1.109-13.914-.844-2.6.171-5.238.208-7.82.523-.921.113-2.548.382-2.961,1.415s.461,1.785,1.181,2.423a5,5,0,0,0,1.809,1.149c1.109.327,3.158-.481,4.043.316.478.429,1.187-.276.708-.707Z" transform="translate(-9.895 -50.996)"/><path d="M72.426,80.632c-.644.015-2.235.559-2.689.393q-.27-2.243,1.519-2.453.841-.266,1.693-.49a37.275,37.275,0,0,1,15.467-.734,11.478,11.478,0,0,1,3.325.722c3.821,2.1.283,1.809-.908,1.9-.638.049-.643,1.049,0,1l3.216-.245a.511.511,0,0,0,.5-.5c0-3.348-4.206-3.611-6.739-3.974a38.343,38.343,0,0,0-12.114.209c-2.014.356-7.293.794-7.889,3.412-.673,2.95,3.233,1.794,4.619,1.761a.5.5,0,0,0,0-1Z" transform="translate(-9.895 -50.996)"/><path d="M81.379,80.556c-.4,4.567.537,9.076.554,13.639l.982-.133-.213-.511c-.245-.585-1.213-.328-.965.266l.214.511c.2.485.984.478.982-.133-.017-4.563-.954-9.072-.554-13.639.056-.641-.944-.637-1,0Z" transform="translate(-9.895 -50.996)"/><path d="M83.072,80.307a61.206,61.206,0,0,1,.464,8.927c.02,1.714-.34,4.464.552,5.974a.508.508,0,0,0,.785.1l.111-.09a.5.5,0,0,0,.078-.606L85,94.52c-.345-.542-1.21-.041-.863.5l.026-.422.785.1c-.527-.893-.345-2.643-.38-3.65-.047-1.365-.036-2.731-.047-4.1a46.511,46.511,0,0,0-.488-6.916c-.1-.634-1.064-.365-.964.266Z" transform="translate(-9.895 -50.996)"/><path d="M107.811,79.235A59.953,59.953,0,0,1,107.6,90.5c-.072.638.928.633,1,0a59.953,59.953,0,0,0,.212-11.263c-.048-.638-1.049-.643-1,0Z" transform="translate(-9.895 -50.996)"/><path d="M110.727,78.678c-.888-.8-1.194.395-1.244,1.086-.256,3.535,0,7.189,0,10.735a.5.5,0,0,0,1,0V84.917c0-1.27.543-4.619-.462-5.531.475.431,1.184-.274.707-.708Z" transform="translate(-9.895 -50.996)"/><path d="M155.2,73.219l2.89,29.481c.063.635,1.063.641,1,0L156.2,73.219c-.062-.635-1.062-.641-1,0Z" transform="translate(-9.895 -50.996)"/><path d="M11.928,104.908c21.139-6.415,43.312-2.492,64.973-3.361,5.4-.216,10.763-.927,16.161-1.138A78.1,78.1,0,0,1,110.6,102c5.192.976,10.346,2.162,15.58,2.908a129.782,129.782,0,0,0,15.942.843c12.829.244,24.745,4.324,36.67,8.687.606.222.867-.744.266-.964-10.248-3.75-20.658-7.532-31.612-8.474-5.648-.485-11.329-.094-16.976-.591a163.616,163.616,0,0,1-17.316-2.93,97.812,97.812,0,0,0-15.316-2.093c-5.771-.212-11.5.574-17.25.961-10.962.739-21.946.044-32.913-.164-12.124-.229-24.33.212-36.011,3.757-.615.187-.353,1.152.265.965Z" transform="translate(-9.895 -50.996)"/><path d="M181.993,110.144c-3.029-.558-4.554,3.78-4.074,6.2.513,2.584,4.781,3.528,6.68,2.025.505-.4-.207-1.1-.707-.707-1.465,1.159-4.895-.039-5.035-1.878-.118-1.551.823-5.05,2.871-4.673.629.116.9-.848.265-.964Z" transform="translate(-9.895 -50.996)"/><path d="M180.51,113.084a4.942,4.942,0,0,0,1.593,1.648.5.5,0,0,0,.735-.3l.268-1.089c.155-.625-.81-.891-.964-.266l-.268,1.09.734-.3a3.839,3.839,0,0,1-1.235-1.29.5.5,0,0,0-.863.505Z" transform="translate(-9.895 -50.996)"/><path d="M179.677,114.486a3.749,3.749,0,0,0,2,2.1c.4.176,1-.224.684-.684-.119-.17.046-.3.217-.248.1.029.216.261.283.335a1.67,1.67,0,0,0,.559.438.516.516,0,0,0,.684-.179,1.858,1.858,0,0,0,.325-.973c.053-.641-.947-.638-1,0a.725.725,0,0,1-.188.468l.684-.179c-.7-.318-.927-1.333-1.9-.9a1.2,1.2,0,0,0-.531,1.74l.684-.684a2.8,2.8,0,0,1-1.542-1.5c-.243-.586-1.211-.329-.964.266Z" transform="translate(-9.895 -50.996)"/><path d="M40,137.393c2.847,3.574,9.4,3.63,12.716.583.476-.436-.233-1.142-.707-.707-2.932,2.69-8.857,2.487-11.3-.583-.4-.5-1.1.208-.707.707Z" transform="translate(-9.895 -50.996)"/><path d="M148.649,127.12c-3.126-2.374-8.516-1.753-9.866,2.445-1.16,3.606,3.4,7.823,6.137,9.407,1.689.978,4.032,2,5.943,1.038,1.55-.783,2.169-2.584,2.542-4.165a6.492,6.492,0,0,0-1.246-5.873c-1.09-1.442-2.485-3.245-4.455-3.066-.635.058-.641,1.059,0,1,1.478-.134,3.3,2.031,4.022,3.164a6,6,0,0,1,.6,4.953c-.542,2.073-2.345,3.744-4.578,3.133a11.335,11.335,0,0,1-3.82-2.069c-1.885-1.473-4.314-4.03-4.132-6.558.3-4.161,5.616-4.616,8.343-2.546.512.389,1.011-.479.5-.863Z" transform="translate(-9.895 -50.996)"/><path d="M25.171,69.122a.926.926,0,0,0-1.491-.067c-.53.572-.138,1.356.374,1.776.532.439,1.3.774,1.859.176.605-.647.25-1.5-.19-2.119-.37-.519-1.238-.021-.863.5.134.188.7,1.093.105.867a1.41,1.41,0,0,1-.49-.422c-.083-.089-.1-.131-.036-.125.067-.035.023-.063-.132-.086.343.542,1.209.041.864-.5Z" transform="translate(-9.895 -50.996)"/><path d="M67.47,68.024a1.431,1.431,0,0,0,.728,2.665,1.474,1.474,0,0,0,.569-2.812c-.584-.256-1.093.605-.5.864.455.2.56.918-.064.948a.425.425,0,0,1-.224-.8c.564-.311.06-1.175-.5-.864Z" transform="translate(-9.895 -50.996)"/><path d="M26.077,68.788h-.188a.5.5,0,0,0,0,1h.188a.5.5,0,0,0,0-1Z" transform="translate(-9.895 -50.996)"/><path d="M26.077,69.788a.5.5,0,0,0,0-1,.5.5,0,0,0,0,1Z" transform="translate(-9.895 -50.996)"/><path d="M26.418,69.1l.31-7.433c.066-1.592-.341-3.577,1.576-4.408,1.117-.484,3.129-.355,4.365-.483,4.8-.5,9.605-.943,14.424-1.2,4.568-.248,9.84-.889,14.369.018,5.53,1.108,6.357,8.512,6.707,13.14.048.638,1.048.643,1,0-.31-4.1-.926-10.4-4.653-12.995-1.968-1.37-4.526-1.354-6.824-1.393-3.373-.056-6.749.031-10.118.2-6.319.327-12.976.547-19.206,1.7a2.591,2.591,0,0,0-2.524,2.632c-.425,3.338-.286,6.856-.426,10.22-.026.643.974.642,1,0Z" transform="translate(-9.895 -50.996)"/><path d="M31.814,65.143c.126-2.436.064-4.97.381-7.388.3-2.3.8-3.588,3.071-4.244a20.948,20.948,0,0,1,3.8-.461c4.865-.456,9.738-.882,14.625-1.011,4.659-.123,10.038-.412,14.562.922,5.523,1.628,6.284,6.818,6.516,11.807.03.641,1.03.644,1,0-.2-4.223-.645-9.17-4.6-11.631a15.291,15.291,0,0,0-6.759-1.812,89.835,89.835,0,0,0-10.721-.286c-3.419.09-6.834.328-10.242.616A53.715,53.715,0,0,0,35,52.547,4.473,4.473,0,0,0,31.375,56c-.659,2.876-.409,6.206-.561,9.147-.033.643.967.642,1,0Z" transform="translate(-9.895 -50.996)"/><path d="M38.01,56.437l2-2.031.944-.956c.082-.084.992-.976.849-1.037l-.23-.565-.017.09c-.121.629.842.9.964.266l.017-.09a.509.509,0,0,0-.229-.564c-.9-.382-1.5.628-2.061,1.193L37.3,55.73c-.452.458.255,1.166.708.707Z" transform="translate(-9.895 -50.996)"/><path d="M48.592,55.952,52.1,52.7c.473-.439-.235-1.145-.707-.708l-3.507,3.255c-.473.439.236,1.145.707.708Z" transform="translate(-9.895 -50.996)"/><path d="M59.735,55.651a12.811,12.811,0,0,1,3.208-3.374c.516-.374.017-1.242-.5-.863a14.137,14.137,0,0,0-3.567,3.732c-.353.54.513,1.042.864.505Z" transform="translate(-9.895 -50.996)"/></svg>