<svg id="Layer_1" data-name="Layer 1" xmlns="http://www.w3.org/2000/svg" viewBox="0 0 130.41 87.729"><title>wws_royce</title><path d="M12.655,101.844q3.483-27.525,4.713-55.268.3-6.867.458-13.74.078-3.436.122-6.874c.021-1.64-.065-1.708,1.464-2.089a20.758,20.758,0,0,1,3.391-.235L50.41,21.723l-.483-.633Q44.218,61.8,41.142,102.821l.633-.482a68.724,68.724,0,0,0-14.5-1.147c-4.9.15-10.466,2-15.242.618a.5.5,0,0,0-.266.964c4.413,1.28,9.176-.235,13.646-.5a67.232,67.232,0,0,1,16.1,1.029.51.51,0,0,0,.633-.483Q45.2,61.96,50.892,21.356c.041-.3-.122-.658-.482-.633L17.475,23.008a.509.509,0,0,0-.5.5,676.319,676.319,0,0,1-5.32,78.336c-.081.637.92.631,1,0Z" transform="translate(-11.415 -15.585)"/><path d="M45.768,68.225c.073-1-.189-2.739.749-3.331.729-.46,3-.156,3.887-.207q3.886-.222,7.77-.506,8.009-.585,15.994-1.428,15.313-1.615,30.5-4.171l-.633-.482.025,4.227c.005.806.373,2.941-.2,3.473-.651.6-3.033.107-4,.132-1.258.031-2.515.113-3.768.226-5.26.475-10.437,1.568-15.636,2.452a104.241,104.241,0,0,1-16.932,1.5c-2.706.016-5.413-.05-8.117-.154q-1.909-.075-3.819-.171c-.45-.022-7.175-.273-5.811-1.953.4-.5-.3-1.207-.707-.707-2.738,3.373,3.992,3.533,5.563,3.612a178.085,178.085,0,0,0,18.134.231c12.012-.618,23.728-4.754,35.816-3.911a.5.5,0,0,0,.5-.5l-.05-8.453a.508.508,0,0,0-.633-.482,505.011,505.011,0,0,1-58.861,6.324.511.511,0,0,0-.5.5l-.277,3.783c-.047.642.953.639,1,0Z" transform="translate(-11.415 -15.585)"/><path d="M105.605,100.185c-.182-14.253-.514-28.514-.476-42.768.02-7.159.267-14.3.841-21.438.531-6.612,1.019-13.228-.406-19.766l-.483.633q14.689-.411,29.385-.178c1.284.021,5.6-.533,6.242.627.307.555-.379,3.251-.456,3.909q-.227,1.955-.453,3.91-.846,7.335-1.636,14.675c-2.077,19.551-3.656,39.193-3.453,58.868.01.958.486,2.805-.407,3.425-.6.416-3.668-.073-4.373-.1q-4.13-.137-8.25-.44c-5.773-.427-11.521-1.116-17.237-2.03-.63-.1-.9.863-.266.964a208.19,208.19,0,0,0,31.1,2.61.506.506,0,0,0,.5-.5c-.609-28.888,2.7-57.629,6.047-86.272a.5.5,0,0,0-.5-.5q-18.119-.478-36.241.028a.506.506,0,0,0-.482.632c1.508,6.919.806,13.925.258,20.911s-.724,14-.729,21.009c-.011,13.928.3,27.86.477,41.787a.5.5,0,0,0,1,0Z" transform="translate(-11.415 -15.585)"/><path d="M42.446,101.712a130.022,130.022,0,0,1,66.147-2.161c.626.144.893-.82.265-.964a131.093,131.093,0,0,0-66.678,2.161.5.5,0,0,0,.266.964Z" transform="translate(-11.415 -15.585)"/><path d="M44.9,63.405q7.128-6.2,14.67-11.885,3.522-2.646,7.131-5.173,1.9-1.329,3.823-2.625c1.807-1.218,2.32-1.187,4.1-.046A156.452,156.452,0,0,0,105.784,59c.606.22.868-.746.266-.964A156.971,156.971,0,0,1,72.843,41.316a.49.49,0,0,0-.5,0A268.922,268.922,0,0,0,44.2,62.7c-.487.423.223,1.128.707.707Z" transform="translate(-11.415 -15.585)"/><path d="M26.953,28.321c-.385-2.55-3.318-2.3-4.448-.392-.977,1.647-.792,4.087-.862,5.932a31.271,31.271,0,0,0,.374,7.01c.436,2.308,2.2,4.329,3.455,1.124a14.925,14.925,0,0,0,.686-5.123c.064-2.808.094-5.617.141-8.424a.5.5,0,0,0-1,0L25.189,35c-.018,1.1.283,6.863-.9,7.241-1.854.593-1.691-5.572-1.69-6.532,0-.924.042-1.849.087-2.772q.05-.922.107-1.844-.434-2.972,3.2-2.506c.1.634,1.059.365.964-.266Z" transform="translate(-11.415 -15.585)"/><path d="M34.539,26.224c-2.594-.036-2.427,5.1-2.454,6.893a23.985,23.985,0,0,0,.758,6.339c.212.822.428,2.547,1.432,2.878,2.147.709,2.029-3.463,2.075-4.438a33.914,33.914,0,0,0-1.837-12.5c-.2-.606-1.171-.346-.964.266a34.1,34.1,0,0,1,1.609,6.852c.2,1.685.713,4.64.137,6.278q.3,1.37-1.247,1.26l-.241-.863c-.66-1.036-.607-3.121-.68-4.283-.074-1.186-.274-7.706,1.412-7.683a.5.5,0,0,0,0-1Z" transform="translate(-11.415 -15.585)"/><path d="M43.966,26.16c-2.651-.11-3.13,4.358-3.405,6.2a23.5,23.5,0,0,0,1.476,12.194c.121.3.578.55.836.22a6.338,6.338,0,0,0,1.22-3.86c.185-2.761.256-5.535.384-8.3.037-.787,1.084-7.578-1.589-5.767-.53.36-.03,1.226.505.864.222-.151.164,3.19.152,3.438l-.181,3.906c-.117,2.523.44,6.913-1.2,9.011l.836.221A22.88,22.88,0,0,1,41.31,36.3c-.033-1.459.194-9.243,2.656-9.141.643.027.642-.973,0-1Z" transform="translate(-11.415 -15.585)"/><path d="M109.858,19.018c-.679.3-.613.416-.846,1.148a25.911,25.911,0,0,0-.565,5.89,28.876,28.876,0,0,0,1.082,10.374.513.513,0,0,0,.615.349c2.132-.43,1.554-4.825,1.588-6.367A54.934,54.934,0,0,0,110.7,18.749c-.122-.631-1.086-.364-.964.266a54.061,54.061,0,0,1,.988,8.5c.034,1.037.473,8.037-.84,8.3l.615.349a26.1,26.1,0,0,1-1.116-8.292c.019-1.174-.195-7.475.984-7.991.589-.257.08-1.119-.5-.863Z" transform="translate(-11.415 -15.585)"/><path d="M119.9,19.621c-2.874-1.972-5.443,1.033-5.542,3.856-.09,2.567.885,5.083.95,7.665.057,2.271.062,4.337,1.084,6.414a.505.505,0,0,0,.914-.119,54.009,54.009,0,0,0-.275-21.281c-.134-.629-1.1-.363-.964.266a52.63,52.63,0,0,1,.274,20.749l.914-.119c-1.305-2.654-.728-5.55-1.095-8.38-.149-1.151-.493-2.265-.667-3.411-.315-2.076.674-6.992,3.9-4.777.532.366,1.033-.5.5-.863Z" transform="translate(-11.415 -15.585)"/><path d="M123.093,20.126c-1.191,5.348-.755,12.287,1.693,17.226a.505.505,0,0,0,.914-.12,26.852,26.852,0,0,0-1.583-17.278c-.259-.588-1.121-.08-.864.5a25.751,25.751,0,0,1,1.483,16.509l.913-.12c-2.288-4.616-2.711-11.428-1.592-16.455.14-.627-.824-.895-.964-.266Z" transform="translate(-11.415 -15.585)"/><path d="M134.247,21.532c-2.762,1.638-1.67,6.837-1.672,9.442,0,2.808-1.111,8.116,2.456,9.211a.516.516,0,0,0,.565-.23c2.029-2.69,1.3-7.287,1.227-10.415a38.686,38.686,0,0,0-2.01-12.288c-.215-.6-1.182-.343-.965.265,2.053,5.738,2.21,11.99,1.947,18.026a11.336,11.336,0,0,1-.177,2.1c-.651,2.731-1.853-.61-2.041-1.6a23.257,23.257,0,0,1,0-4.139l0-4.648c0-1.5-.386-3.935,1.175-4.86a.5.5,0,0,0-.5-.864Z" transform="translate(-11.415 -15.585)"/><path d="M46.372,99.346c.029-4.246.054-8.5.3-12.736.224-3.812.36-9.69,4.961-10.9,8.118-2.127,6.07,17.718,5.7,21.9h1l.013-.627a.5.5,0,0,0-1,0l-.013.627c-.013.652.945.632,1,0a70.156,70.156,0,0,0-.221-16.632c-.472-3.063-2.052-6.692-5.738-6.418-3.9.289-5.765,4.15-6.306,7.546-.9,5.633-.666,11.552-.7,17.238a.5.5,0,0,0,1,0Z" transform="translate(-11.415 -15.585)"/><path d="M61.163,96.864c-.584-5.427-4.124-20.759,4.719-21.437,5.115-.392,5.1,6.1,5.567,9.631a68.188,68.188,0,0,1,.673,12.51c-.034.643.966.641,1,0a81.542,81.542,0,0,0-1.237-16.56c-.505-3.316-1.812-6.7-5.74-6.621-3.642.078-6,3.375-6.707,6.65-1.095,5.081.177,10.737.725,15.827.068.633,1.069.64,1,0Z" transform="translate(-11.415 -15.585)"/><path d="M79.185,96.312A99.189,99.189,0,0,1,76.478,85.8c-.465-2.353-.879-3.9,1.055-5.618,1.843-1.637,3.981-4.2,6.514-2.166,2.678,2.153,2.691,8.105,3.252,11.252l2.122,11.908c.112.632,1.076.364.964-.266q-1.529-8.574-3.056-17.148c-.522-2.919-1.4-7.677-5.336-7.616-1.454.022-2.549,1.033-3.582,1.935-1.071.935-2.946,2.062-3.387,3.515-.583,1.921.542,4.824.955,6.685.623,2.8,1.382,5.564,2.241,8.3.192.612,1.158.351.965-.266Z" transform="translate(-11.415 -15.585)"/><path d="M93.076,97.958c-1.165-1.991-1.1-4.657-1.283-6.9q-.233-2.789-.366-5.583C91.25,81.784,90.067,75,94.018,72.835c5.479-3,6.349,7.692,6.476,10.547a35.346,35.346,0,0,1-1.776,12.543c-.2.613.766.876.964.265a35.934,35.934,0,0,0,1.36-17.054c-.5-3.015-1.774-8.333-5.923-7.733-4.773.691-4.912,6.722-4.826,10.341q.115,4.895.54,9.776c.2,2.324.172,4.878,1.379,6.942a.5.5,0,0,0,.864-.5Z" transform="translate(-11.415 -15.585)"/></svg>