<svg id="Layer_1" data-name="Layer 1" xmlns="http://www.w3.org/2000/svg" viewBox="0 0 96.413 184.18"><title>wws_fox</title><path d="M34.09,155.16l-.072-1.647c-.024-.539-.858-.708-.982-.133-.322,1.491-3.7,17.527-3.449,17.547.642.051.638-.949,0-1l-.114-.009a.5.5,0,0,0-.483.367.678.678,0,0,0,.2.776.508.508,0,0,0,.606.078c.653-.409.623-.928.8-1.7.39-1.7.735-3.406,1.1-5.108L34,153.646l-.982-.133.072,1.647c.028.641,1.028.644,1,0Z" transform="translate(-28.947 -15.786)"/><path d="M32.677,157.111A407.9,407.9,0,0,1,82.2,154.29q12.285.054,24.552.855,6.129.4,12.245.986c1.449.139,4.555-.163,5.285,1.1.3.522-.186,2.294-.242,2.988l-.322,3.984.633-.482c-16.03-2.691-32.635-1.49-48.815-1.3-15.424.181-31.048.412-45.9,5.056-.612.192-.351,1.157.266.964,14.771-4.618,30.3-4.84,45.636-5.02,16.081-.188,32.617-1.409,48.55,1.265a.509.509,0,0,0,.632-.482l.644-7.968a.509.509,0,0,0-.5-.5,408.278,408.278,0,0,0-92.182.373c-.632.075-.639,1.076,0,1Z" transform="translate(-28.947 -15.786)"/><path d="M35.446,169.386l-1.152-.993c-.24-.378-1-.274-.932.252q2.064,15.4,3.849,30.836l.853-.354-.379-1.621c.207-.611-.759-.873-.964-.266a2.206,2.206,0,0,0,.636,2.595c.282.274.906.1.854-.354q-1.785-15.435-3.849-30.836l-.932.253a3.243,3.243,0,0,0,1.75,1.452c.594.247.853-.721.266-.964Z" transform="translate(-28.947 -15.786)"/><path d="M38.92,170.089l-.083-2.941a.5.5,0,0,0-1,0A93.748,93.748,0,0,0,40.5,185.911c.692,3.08,1.434,6.149,2.1,9.234.245,1.137.917,2.634-.585,3.433a4.856,4.856,0,0,1-1.794.094,6.7,6.7,0,0,1-5.015-1.656c-.466-.445-1.174.261-.708.707,2.049,1.96,5.5,2.451,8.218,1.785,2.375-.581,1.26-2.722.848-4.628-1.985-9.185-4.552-18.272-4.73-27.732h-1l.083,2.941a.5.5,0,0,0,1,0Z" transform="translate(-28.947 -15.786)"/><path d="M115.33,161.893l-.067-.121a.511.511,0,0,0-.684-.179c-1.05.5-.808,2.291-.915,3.227q-.5,4.415-.786,8.851c-.368,5.751-.444,11.512-.272,17.272h1l.319-1.73c.309-.565-.554-1.07-.863-.5a3.29,3.29,0,0,0-.456,2.234c.07.622,1.019.658,1,0-.142-4.772-.119-9.545.107-14.314q.164-3.453.46-6.9.149-1.72.329-3.44c.058-.546.051-3.585.582-3.836l-.684-.179.067.12c.312.563,1.176.059.863-.5Z" transform="translate(-28.947 -15.786)"/><path d="M120.388,162.126c-1.513,1.57-1.891,3.507-2.052,5.623-.254,3.349-.324,6.722-.483,10.076l-.489,10.333c-.1,2.1.06,5.029-3.251,4.327a26.857,26.857,0,0,0-3.243-.943c-.64-.058-.637.942,0,1,1.931.176,4.272,2.192,6.158.852,1.819-1.292,1.32-4.905,1.406-6.712l.559-11.809c.17-3.583-.578-9.259,2.1-12.04.447-.463-.26-1.171-.707-.707Z" transform="translate(-28.947 -15.786)"/><path d="M43.424,191.5c11.5-1.6,23.135-1.114,34.706-.812l34.948.912a.5.5,0,0,0,0-1l-35.946-.938c-11.339-.3-22.7-.69-33.974.873-.635.088-.365,1.052.266.965Z" transform="translate(-28.947 -15.786)"/><path d="M44.338,156.042c.113-10.782-.311-21.733.577-32.484C45.746,113.5,49.59,102.846,59.8,99.022c8.716-3.263,20.536-2.648,28.764,1.684,7.565,3.982,13.112,11.3,15.733,19.362,3.606,11.088,1.322,23.422.368,34.773-.054.642.946.638,1,0,.923-10.985,3.077-22.832.018-33.65a35.321,35.321,0,0,0-14.757-20.279c-8.07-5.068-19.164-5.968-28.316-3.782C53.3,99.354,47.42,106.6,45.146,115.666c-1.523,6.074-1.513,12.4-1.579,18.618q-.115,10.88-.229,21.758a.5.5,0,0,0,1,0Z" transform="translate(-28.947 -15.786)"/><path d="M57.133,100.275c.35-8.425.569-16.867,1.067-25.284.407-6.895,1.643-15.21,8.376-18.829,6.668-3.584,15.636-1.409,22.1,1.655,3.695,1.751,6.879,4.445,8.264,8.4,1.279,3.648,1.124,7.636.924,11.438-.5,9.429-1.194,18.959-4.681,27.829-.235.6.731.859.964.266,3.47-8.826,4.188-18.31,4.7-27.692.419-7.757-.177-15.331-7.339-19.838C85.47,54.42,76.7,52.2,69.67,53.922,62.41,55.7,58.941,62.149,57.814,69.054a111.766,111.766,0,0,0-.94,13.389l-.741,17.832c-.027.643.973.642,1,0Z" transform="translate(-28.947 -15.786)"/><path d="M72.406,51.985a23.87,23.87,0,0,1,1.1-7.851,9.551,9.551,0,0,1,2.084-3.965c1.867-1.8,4.484-1.435,5.3,1.377.684,2.362.491,5.316.389,7.747a46.786,46.786,0,0,1-1.113,8.18c-.139.627.825.9.964.266a46.8,46.8,0,0,0,1.1-13.111c-.138-2.2-.175-5.286-2.53-6.343-2.3-1.033-4.64.6-5.832,2.5-2.011,3.207-2.522,7.511-2.467,11.2a.5.5,0,0,0,1,0Z" transform="translate(-28.947 -15.786)"/><path d="M77.294,17.656l-2.11,9.074a.5.5,0,0,0,.914.385,11.448,11.448,0,0,0,1.541-5.763c-.023-1.436-.3-1.26.607-2.626.836-1.255.923-1.188,2.269-1.465a9.605,9.605,0,0,1,2.2-.361c.311.015,3.4-.082,2.023,1.09-.121.1-1.681-.018-1.992.05a5.85,5.85,0,0,0-2.048.909,5.478,5.478,0,0,0-2.3,3.506.508.508,0,0,0,.615.615,13.108,13.108,0,0,1,4.764.04v-.964a12.519,12.519,0,0,0-7.729,8.309l.836-.221a3.247,3.247,0,0,1-.469-3.642c.391-.511-.477-1.01-.863-.5a3.361,3.361,0,0,0,.625,4.855.508.508,0,0,0,.836-.221,11.449,11.449,0,0,1,7.03-7.611c.412-.156.534-.866,0-.964a14.912,14.912,0,0,0-5.3-.04l.615.615a4.634,4.634,0,0,1,5.761-3.606.517.517,0,0,0,.565-.23,1.826,1.826,0,0,0-.483-2.633c-1.381-.956-3.87-.2-5.349.13-1.285.286-2.757.537-3.253,1.937-.334.943.018,2.075.028,3.033a10.552,10.552,0,0,1-1.405,5.258l.914.386,2.11-9.074c.145-.627-.819-.894-.964-.266Z" transform="translate(-28.947 -15.786)"/><path d="M80.7,26.823c-.586-3.38-4.409-.941-5.766.345-2.217,2.1-4.031,5.758-1.743,8.493,1.86,2.224,5.327,2.042,7.414.3,3.258-2.722,3.043-7.239,2.059-10.969a.508.508,0,0,0-.615-.349A1.956,1.956,0,0,0,80.6,25.762c-.31.564.553,1.069.864.5l.856-.661-.615-.349c1.02,3.866.932,11.47-5.038,11.017C73.6,36.041,72.5,33.02,73.7,30.431a8.471,8.471,0,0,1,1.942-2.556c.418-.4,3.64-3.408,4.095-.787.109.633,1.073.365.964-.265Z" transform="translate(-28.947 -15.786)"/><path d="M79.824,29.139c-1.548-.221-3.289-.212-4.425,1.032a2.438,2.438,0,0,0-.083,3.415,2.365,2.365,0,0,0,3.151.225,2.479,2.479,0,0,0,.373-3.275c-.378-.513-1.246-.015-.864.5,1.129,1.532-1.14,3.274-2.157,1.59a1.709,1.709,0,0,1,.885-2.239,4.518,4.518,0,0,1,2.854-.288c.629.09.9-.873.266-.964Z" transform="translate(-28.947 -15.786)"/><path d="M70.182,37.1l5.691,3.856-.1-.785a37.3,37.3,0,0,0-5.441,5.166.506.506,0,0,0,.1.785c1.963.855,4.694,1.837,6.386-.1,1.12-1.279.693-3.649,3.465-1.785.839.563,1.222,1.481,2.385,1.523a2.514,2.514,0,0,0,2.366-3.043c-.565-2.847-4.05-3-6.3-2.876l.431.752,4.341-5.835a.506.506,0,0,0-.18-.684,4.127,4.127,0,0,0-4.646-.019c-1.263.9-2.306,4.233-4.637,2.381-.7-.552-.813-1.339-1.672-1.823a.521.521,0,0,0-.606.078,6.785,6.785,0,0,0-2.206,3.1c-.226.6.74.864.965.266,1.785-4.747,2.312.549,4.958.321,3.229-.278,3.093-6.087,7.34-3.442l-.18-.684L78.3,40.087a.5.5,0,0,0,.432.752c.748-.042,2.677-.338,3.321.173q.37,4.47-1.064,2.516l-.448-.494a3.107,3.107,0,0,0-2.4-1.011,1.609,1.609,0,0,0-1.318.926c-.216.4-.1.667-.263,1.1-1.1,2.873-3.473,2.14-5.622,1.2l.1.785a37.35,37.35,0,0,1,5.441-5.166.506.506,0,0,0-.1-.786l-5.691-3.856c-.534-.362-1.035.5-.5.864Z" transform="translate(-28.947 -15.786)"/><path d="M61.726,103.09c-3,6.047-2.3,13.278-2.393,19.831L59,146.373a.5.5,0,0,0,1,0l.308-21.5c.1-6.888-.865-14.932,2.284-21.28.285-.575-.577-1.082-.863-.5Z" transform="translate(-28.947 -15.786)"/><path d="M56.243,112.228l-.23-.215a.5.5,0,0,0-.486-.128c-2.16.706-1.925,4.723-2.1,6.594a64.735,64.735,0,0,0,.266,12.44c.84,8.366,2.413,16.675,1.732,25.114-.052.642.948.638,1,0C57,148.961,56,141.958,55.15,134.951c-.414-3.413-.79-6.837-.889-10.276a52.939,52.939,0,0,1,.095-5.315c.062-.861.156-1.718.274-2.573.048-.357.836-3.917.906-3.852.47.439,1.178-.266.707-.707Z" transform="translate(-28.947 -15.786)"/><path d="M70.743,104.2c-1.107,8.438.911,16.816,1.568,25.208a134.372,134.372,0,0,1-.4,24.839c-.069.639.932.634,1,0a133.852,133.852,0,0,0,.4-24.839c-.663-8.39-2.675-16.772-1.568-25.208.083-.636-.918-.63-1,0Z" transform="translate(-28.947 -15.786)"/><path d="M82.485,105.947A70.325,70.325,0,0,1,88.1,155.493a.5.5,0,0,0,.964.265,71.385,71.385,0,0,0-5.712-50.315c-.3-.572-1.158-.067-.863.5Z" transform="translate(-28.947 -15.786)"/><path d="M94.138,105.123c-1.109,1.98.877,5.12,1.465,7.081a103.02,103.02,0,0,1,2.55,10.512,103.756,103.756,0,0,1,1.674,22.343c-.02.644.98.643,1,0A105.422,105.422,0,0,0,99.67,125.7q-.753-4.883-1.972-9.678-.58-2.28-1.266-4.531c-.395-1.3-2.126-4.619-1.431-5.861.315-.562-.549-1.067-.863-.5Z" transform="translate(-28.947 -15.786)"/><path d="M70.8,59.5c-8.307,12.1-8.412,27.1-8.285,41.224a.5.5,0,0,0,1,0c-.125-13.954-.063-28.757,8.148-40.72.365-.532-.5-1.032-.863-.5Z" transform="translate(-28.947 -15.786)"/><path d="M79.293,60.766a329.076,329.076,0,0,0-2.081,33.8.5.5,0,0,0,1,0,329.076,329.076,0,0,1,2.081-33.8c.073-.638-.928-.633-1,0Z" transform="translate(-28.947 -15.786)"/><path d="M87.314,59.606a47.819,47.819,0,0,1,3.279,39.2c-.216.607.75.869.964.266A48.807,48.807,0,0,0,88.177,59.1c-.313-.562-1.177-.058-.863.505Z" transform="translate(-28.947 -15.786)"/><path d="M67.492,186.642a3.262,3.262,0,0,1,.534,2.794l.914-.12c-2.08-3.85-.882-8.156,1.491-11.571,2.045-2.944,6.112-8.459,10.112-6.273,3.357,1.834,4.693,6.363,5.275,9.874a55.1,55.1,0,0,1,.3,11.368l.982-.133-.49-1.7a.5.5,0,0,0-.964.266l.49,1.7a.5.5,0,0,0,.982-.133c.218-5.087.43-10.4-1.232-15.29-1.124-3.311-3.639-7.752-7.712-7.592-1.779.07-3.09,1.244-4.291,2.438a35.194,35.194,0,0,0-4.54,5.3c-2.446,3.67-3.443,8.222-1.268,12.248a.505.505,0,0,0,.914-.119,4.743,4.743,0,0,0-.635-3.565.5.5,0,0,0-.863.5Z" transform="translate(-28.947 -15.786)"/><path d="M74.415,167.856a100.1,100.1,0,0,1,1.761,14.905q.135,3.314.045,6.63c-.033,1.186-.687,3.364.132,4.33a.5.5,0,0,0,.606.078,1.464,1.464,0,0,0,.79-1.228c.089-.63-.875-.9-.964-.266q.77-.019.366-1.02.044-.946.07-1.894.037-1.421.036-2.842,0-3.315-.237-6.626a102.835,102.835,0,0,0-1.641-12.333c-.121-.631-1.085-.364-.964.266Z" transform="translate(-28.947 -15.786)"/><path d="M83.442,183.253c-2.042-.487-3.363,2.6-1.631,3.759a.509.509,0,0,0,.606-.078,2.289,2.289,0,0,0-.228-3.573c-.53-.367-1.03.5-.5.864a1.287,1.287,0,0,1,.025,2l.606-.078c-.789-.529-.052-2.149.86-1.932.625.149.892-.815.266-.964Z" transform="translate(-28.947 -15.786)"/><path d="M74.424,183.032a2.021,2.021,0,0,0-2.024-1.825c-.728.023-.854.46-.946,1.114a4.645,4.645,0,0,0,.173,2.025.5.5,0,0,0,.964,0l.529-1.856a.5.5,0,0,0-.964-.266l-.529,1.856h.964a3.7,3.7,0,0,1-.021-2.189l-.349.349a.994.994,0,0,1,1.2.792c.072.632,1.073.64,1,0Z" transform="translate(-28.947 -15.786)"/></svg>