<svg id="Layer_1" data-name="Layer 1" xmlns="http://www.w3.org/2000/svg" viewBox="0 0 80.778 95.543"><title>wws_ferris</title><path d="M75.681,36.008c-11.065-7.292-26-6.667-36.672,1.071C29.088,44.271,21.747,58.018,24.278,70.46,27.2,84.821,44.444,86.778,56.5,86.221c11.827-.546,28.253-5.088,30.05-19.036.519-4.03-.368-8.115-1.537-11.955-1.269-4.164-2.757-8.315-4.42-12.339-.851-2.059-6.969-16.55-10.845-11.644-.394.5.309,1.212.707.707,2.245-2.842,6.368,5.282,7.109,6.718a77.518,77.518,0,0,1,3.887,9.238c2.252,6.223,5.177,13.154,4,19.9C83.237,80.534,67.907,84.612,56.968,85.2c-11.215.6-27.915-.726-31.455-13.834C22.462,60.065,28.847,47.017,37.3,39.7c10.481-9.069,26.209-10.516,37.874-2.828.539.355,1.041-.511.5-.864Z" transform="translate(-15.926 -17.654)"/><path d="M54.616,56.844a2.248,2.248,0,0,0-2.89-.218.52.52,0,0,0-.179.684,4.148,4.148,0,0,0,2.664,2.565A2.634,2.634,0,0,0,57.1,58.557c.937-1.946-2.053-3.7-3.138-1.835a.5.5,0,0,0,.863.5c.566-.974,2.61.827.541,1.594-1.418.525-2.464-.883-2.956-2.015l-.179.684a1.268,1.268,0,0,1,1.678.061c.474.434,1.183-.272.707-.707Z" transform="translate(-15.926 -17.654)"/><path d="M55.117,59.242q13.76,23.5,26.184,47.743a.5.5,0,0,0,.914-.385l-.513-1.734a.5.5,0,0,0-.964.266l.512,1.733.914-.385Q69.746,82.244,55.98,58.737a.5.5,0,0,0-.863.5Z" transform="translate(-15.926 -17.654)"/><path d="M55.7,57.523c4.9,9.456,12.677,17.157,18.541,26.006A152.847,152.847,0,0,1,89.366,112.86c.229.594,1.2.336.964-.266a154.06,154.06,0,0,0-14.738-28.83C69.618,74.633,61.6,66.726,56.563,57.019c-.3-.572-1.159-.067-.863.5Z" transform="translate(-15.926 -17.654)"/><path d="M81.439,108.468a84.653,84.653,0,0,0,8.635,2.2c.628.126.9-.838.266-.964a85.266,85.266,0,0,1-8.636-2.2c-.615-.192-.879.773-.265.964Z" transform="translate(-15.926 -17.654)"/><path d="M50.989,59.594c-7.489,6.29-15.024,12.72-20.306,21.062C25.287,89.18,22.005,98.872,16,107.034a.5.5,0,0,0,.179.684,15.471,15.471,0,0,0,6.859,1.793.507.507,0,0,0,.483-.632c-.882-6,2.258-11.278,5.894-15.759,3.105-3.827,6.424-7.418,9.222-11.491,4.987-7.26,8.192-17.127,16.447-21.4.571-.3.066-1.159-.505-.864-8.674,4.49-11.988,14.914-17.3,22.478C31.5,90.061,20.9,97.9,22.554,109.144l.482-.633a14.188,14.188,0,0,1-6.354-1.656l.179.684c5.837-7.931,9.1-17.3,14.23-25.646C36.376,73.287,44.044,66.728,51.7,60.3c.493-.414-.217-1.119-.707-.707Z" transform="translate(-15.926 -17.654)"/><path d="M45.948,33.938Q50.085,45.667,55.1,57.049a.5.5,0,0,0,.932-.252,164.5,164.5,0,0,0-5.7-29.981.5.5,0,0,0-.983.133l.04,1.064c.023.642,1.023.645,1,0l-.04-1.064-.982.133A163,163,0,0,1,55.033,56.8l.932-.252Q51,45.282,46.912,33.673c-.212-.6-1.179-.344-.964.265Z" transform="translate(-15.926 -17.654)"/><path d="M68.987,35.555a.5.5,0,0,1-.7-.38c-.05-.637-1.05-.643-1,0a1.5,1.5,0,0,0,1.968,1.344c.6-.217.341-1.183-.266-.964Z" transform="translate(-15.926 -17.654)"/><path d="M69.16,35.572c-3.227-.221-5.054,3.209-6.722,5.444L53.559,52.907c-.294.393.291.979.684.684C62.006,47.768,66.7,38.812,74.7,33.273c.526-.364.026-1.231-.505-.864-8.014,5.547-12.695,14.5-20.457,20.319l.684.684,6.512-8.721q1.479-1.982,2.959-3.963c1.3-1.739,2.757-4.328,5.267-4.156.643.044.64-.956,0-1Z" transform="translate(-15.926 -17.654)"/><path d="M81.954,44.729c-4.386.718-7.9,3.279-11.4,5.861A63.178,63.178,0,0,1,56.98,58.373a.5.5,0,0,0,.265.964L71.56,56.658c4.983-.932,9.973-2.06,15.054-2.242.642-.023.645-1.023,0-1a97.462,97.462,0,0,0-14.366,2.1L56.98,58.373l.265.964a60.278,60.278,0,0,0,12.509-6.922c3.874-2.8,7.6-5.926,12.466-6.722.633-.1.365-1.067-.266-.964Z" transform="translate(-15.926 -17.654)"/><path d="M84.111,69.846l-23.4-8.481a.5.5,0,0,0-.487.836A253.605,253.605,0,0,0,82.973,79.315l.386-.914-.667-.27c-.6-.241-.855.726-.265.964l.666.27c.55.223.83-.617.385-.914a251.236,251.236,0,0,1-22.55-16.957l-.486.836,23.4,8.48c.606.22.867-.746.266-.964Z" transform="translate(-15.926 -17.654)"/><path d="M50.133,60.482a34.228,34.228,0,0,0-1.757,11.324c-.05,1.994-.057,3.99-.176,5.982a36.2,36.2,0,0,1-.376,3.659q-.133.834-.321,1.656a5.2,5.2,0,0,0-.246,2.161.5.5,0,0,0-.864-.5.787.787,0,0,0,.823,1.2c1.45-.253,1.573-4.168,1.7-5.149.895-6.7-.238-13.6,2.177-20.063.225-.6-.741-.864-.964-.266Z" transform="translate(-15.926 -17.654)"/><path d="M50.231,62.023a52.4,52.4,0,0,0,2.311,22.518c.2.608,1.167.348.964-.266a51.756,51.756,0,0,1-2.275-22.252c.073-.638-.927-.632-1,0Z" transform="translate(-15.926 -17.654)"/><path d="M55.124,54.65c-7.251,3.307-15.3-1.884-22.646,1.209-.461.194-.486,1.051.133.982l1.166-.13c.632-.07.639-1.071,0-1l-1.166.13.133.982c7.407-3.117,15.492,2.062,22.885-1.309.585-.267.077-1.129-.5-.864Z" transform="translate(-15.926 -17.654)"/><path d="M27.513,62.411q13.659-.678,27.248-2.252a.5.5,0,0,0,.252-.932A58.083,58.083,0,0,1,42.376,48.714c-2.995-3.332-5.2-8.248-9.2-10.5a.5.5,0,0,0-.505.864c2.486,1.4,3.862,3.831,5.509,6.056a57.971,57.971,0,0,0,4.623,5.5,59.182,59.182,0,0,0,11.711,9.45l.252-.932q-13.586,1.575-27.248,2.252c-.641.031-.645,1.032,0,1Z" transform="translate(-15.926 -17.654)"/><path d="M36.65,40.382C40.9,48.472,48.117,54.144,55.236,59.6c.51.391,1.009-.477.5-.864-6.984-5.351-14.058-10.916-18.227-18.857-.3-.57-1.162-.065-.863.5Z" transform="translate(-15.926 -17.654)"/><path d="M60.517,18.771a72.2,72.2,0,0,0-8.3,1.836c-1.54.442-3.816.645-4.5,2.3-.576,1.386-.359,4.258-.134,5.743a2.978,2.978,0,0,0,2.284,2.779c2.286.555,4.941.4,7.287.556,1.6.1,2.984.259,3.925-1.221,2.309-3.63,1-9.373-.849-12.858-.3-.569-1.165-.064-.864.505,1.591,3,2.618,7.235,1.34,10.552-1.023,2.659-2.8,2.074-4.9,1.929-1.455-.1-3.572.143-4.943-.339a3.08,3.08,0,0,1-2.343-3.033c-.021-.666.022-1.337.036-2,.047-2.13.594-2.93,2.642-3.56a71.739,71.739,0,0,1,9.59-2.217c.633-.1.364-1.068-.266-.965Z" transform="translate(-15.926 -17.654)"/><path d="M86.484,26.018a55.227,55.227,0,0,0-7.592,1.492,3.585,3.585,0,0,0-2.612,2.91c-.528,2.768.1,7.354,2.9,8.787,2.548,1.3,5.709-.193,7.126-2.453,2.295-3.659,1.24-8.684.008-12.514-.2-.61-1.162-.349-.964.266a20.985,20.985,0,0,1,1.236,7.979c-.247,3.059-2.716,7.291-6.441,6.038-1.618-.544-2.343-2.144-2.671-3.677a14.4,14.4,0,0,1-.237-2.321c-.06-1.319,0-1.206.944-2.606.991-1.47.94-1.472,2.354-1.77.589-.125,1.184-.223,1.775-.334l4.438-.833c.631-.118.364-1.082-.266-.964Z" transform="translate(-15.926 -17.654)"/><path d="M92.819,45.061c-2.125.354-4.253.7-6.377,1.062-1.073.183-2.408.252-3.125,1.215-.613.824-.418,2-.387,2.948.072,2.211.169,4.421.254,6.632a.513.513,0,0,0,.367.482c3.4.891,9.8,2.836,12.2-.843,1.773-2.726.926-8.166-1.273-10.462-.447-.465-1.153.242-.708.707,1.681,1.755,2.829,7.309,1.118,9.25a6.31,6.31,0,0,1-3.762,1.513,13.516,13.516,0,0,1-2.751-.229c-1.2-.15-3.606-.141-4.224-1.366-.423-.838-.109-2.834-.146-3.79-.057-1.5-.5-3.006.556-4.123,1.013-1.076,2.543-1.036,3.972-1.273l4.555-.758c.634-.106.365-1.07-.266-.965Z" transform="translate(-15.926 -17.654)"/><path d="M90.2,72.4c-2.852-.721-5.882-2.006-8.79-2.367-2.027-.251-2.911,1.063-3.917,2.645-1.373,2.16-5.186,8.562-1.443,10.067,2.217.891,5.209.944,7.577,1.157,1.779.16,4.052.506,5.32-1.094,2.615-3.3-.507-9.6-2.355-12.531-.342-.543-1.208-.042-.863.505,1.683,2.674,3.205,6.117,3.05,9.362-.219,4.576-8.527,2.448-11.22,1.929-3.908-.753-.585-6.97.8-8.89,1.829-2.539,3.885-1.886,6.249-1.228,1.77.493,3.547.959,5.328,1.41A.5.5,0,0,0,90.2,72.4Z" transform="translate(-15.926 -17.654)"/><path d="M65.106,80.017c-2.49-.129-5.378-.541-7.855-.132-1.435.237-1.782.9-2.044,2.323-.549,2.979-1.834,8.6,1,10.815,1.733,1.356,4.856,2.374,6.309.368a8.589,8.589,0,0,0,1.7-5.324c-.206-1.739-3.016-3.855-2.424-5.441.225-.6-.741-.864-.964-.265-.562,1.5.423,2.476,1.3,3.618,1.457,1.9,1.107,3.832.092,5.875-.872,1.756-2.729,1.7-4.341.949-3.006-1.393-2.651-7.062-1.788-9.866.723-2.349,2.245-2.108,4.327-2.081,1.562.02,3.123.08,4.684.161.643.033.641-.967,0-1Z" transform="translate(-15.926 -17.654)"/><path d="M37.365,77.782a7.127,7.127,0,0,0-5.243,9.569c1.709,4.483,7.084,6.677,11.632,6.014,5.233-.763,4.239-6.56,1.776-9.721a41.382,41.382,0,0,0-6.2-5.773c-.883-.748-2.587-2.7-3.75-1.344-.417.486.287,1.2.707.707.6-.7,7.036,5.406,7.7,6.135,2.9,3.19,4.376,9.129-1.922,9.068-3.451-.033-7.121-1.582-8.724-4.8a6.154,6.154,0,0,1,4.293-8.89c.627-.141.362-1.106-.266-.965Z" transform="translate(-15.926 -17.654)"/><path d="M22.087,59.039a16.924,16.924,0,0,0-.138,10.784.511.511,0,0,0,.735.3,9.409,9.409,0,0,1,6.362-.5.511.511,0,0,0,.565-.229c1.614-2.96,3.143-7.15.549-10.037-2.432-2.706-6.594-2.117-9.782-1.5-.631.121-.364,1.085.266.964,4.429-.851,10.961-.576,9.77,5.809A9.393,9.393,0,0,1,29.366,67.7c-.551.877-.692.675-1.692.62a11.4,11.4,0,0,0-5.5.94l.735.3a16,16,0,0,1,.137-10.252c.21-.61-.756-.872-.964-.266Z" transform="translate(-15.926 -17.654)"/><path d="M28.361,40.1a43.279,43.279,0,0,0,.031,7.264c.15.909.191,1.392,1.066,1.876,1.073.594,3.305.409,4.489.528l7.374.741a.5.5,0,0,0,.5-.5c-.442-5.31,3.71-12.5-.11-17.323-1.254-1.584-2.772-1.209-4.559-.661a31.5,31.5,0,0,0-8,3.81c-.536.351-.036,1.217.5.863,2.626-1.718,8.315-5.562,11.364-3.275,1.361,1.02,1.279,4.29,1.172,5.728-.163,2.19-.816,4.305-1.173,6.463-.111.672-.206,1.344-.25,2.025-.075,1.15.2,1.45-.837,1.731-1.36.368-4.114-.413-5.53-.556a22.713,22.713,0,0,1-2.765-.278c-1.837-.419-2.251-.9-2.277-2.534-.031-1.967-.028-3.934,0-5.9a.5.5,0,0,0-1,0Z" transform="translate(-15.926 -17.654)"/></svg>