<svg id="Layer_1" data-name="Layer 1" xmlns="http://www.w3.org/2000/svg" viewBox="0 0 103.476 113.166"><title>wws_stage</title><path d="M31.707,62.452a110.856,110.856,0,0,0,1.011,21.207c.091.635,1.055.365.964-.266a109.538,109.538,0,0,1-.975-20.941c.032-.644-.968-.642-1,0Z" transform="translate(-24.708 -11.614)"/><path d="M31.039,59.9a43.876,43.876,0,0,0,15.247-1.846l-.615-.349,1.916,10.18.913,4.847a8.641,8.641,0,0,1,.456,2.424c-.28,1.764-1.733,2.048-3.122,2.575-2.751,1.044-5.568,1.056-8.384,1.723a11.161,11.161,0,0,0-5.834,3.888c-.431.476.274,1.186.707.707A10.693,10.693,0,0,1,36.9,80.631a34.32,34.32,0,0,1,5.049-.808,22.661,22.661,0,0,0,4.954-1.448c.827-.337,2.593-.687,3.062-1.538a2.945,2.945,0,0,0-.046-1.946c-.358-1.94-.731-3.878-1.1-5.817L46.635,57.44a.5.5,0,0,0-.615-.349A43.125,43.125,0,0,1,31.039,58.9c-.643-.035-.641.965,0,1Z" transform="translate(-24.708 -11.614)"/><path d="M41.5,60.808c-2.781.588-5.458,2.361-5.831,5.4a4.331,4.331,0,0,0,3.807,4.97c5.2.388,7.961-10.285,1.764-10.441a.5.5,0,0,0,0,1c5.084.128,1.77,10.322-2.774,8.118-2.088-1.013-2.26-3.617-1.131-5.407a6.626,6.626,0,0,1,4.431-2.673c.629-.133.362-1.1-.266-.964Z" transform="translate(-24.708 -11.614)"/><path d="M41.192,65.335h-.376a.5.5,0,0,0,0,1h.376a.5.5,0,0,0,0-1Z" transform="translate(-24.708 -11.614)"/><path d="M42.214,74.855c-.585-3.159-4.445-2.06-5.289.352a5.226,5.226,0,0,0,4.22,6.643,5.345,5.345,0,1,0-.956-10.43c-.609.2-.348,1.167.266.965,4.926-1.623,7.809,5.561,3.35,7.958a4.153,4.153,0,0,1-6.049-4.412c.287-1.3,2.954-3.723,3.494-.81.117.632,1.081.364.964-.266Z" transform="translate(-24.708 -11.614)"/><path d="M42.32,77.618a.5.5,0,0,0,0-1,.5.5,0,0,0,0,1Z" transform="translate(-24.708 -11.614)"/><path d="M101.105,52.947a3.053,3.053,0,0,0-1.458,2.04,50.393,50.393,0,0,0-1.585,6.966,92.562,92.562,0,0,0-1.437,12.905c-.028.643.972.642,1,0A91.185,91.185,0,0,1,98.7,64.1q.384-2.35.894-4.678c.306-1.4.663-4.881,2.017-5.607.567-.3.063-1.167-.5-.863Z" transform="translate(-24.708 -11.614)"/><path d="M99.875,50.975c5.607.513,11.269,1.027,16.694,2.612,1.663.485,3.112.836,4.285,2.164,1.026,1.161.889,1.168.776,2.506l-.21,2.478-.753,8.92c-.19,2.255.3,6.692-1.427,8.17-1.1.937-1.262.407-2.369-.131-.531-.258-1.069-.5-1.61-.737q-1.48-.642-3.012-1.16a40.478,40.478,0,0,0-15.4-2.012c-.64.037-.644,1.038,0,1a39.9,39.9,0,0,1,10.867.793,55.151,55.151,0,0,1,10.22,3.791c1.373.593,2.5.713,2.956-.931.829-2.986.595-6.69.855-9.774.307-3.634.655-7.266.92-10.9.209-2.864-.662-3.355-3.289-4.31-6.244-2.272-12.937-2.876-19.507-3.477-.64-.058-.636.942,0,1Z" transform="translate(-24.708 -11.614)"/><path d="M111.6,56.277a4.325,4.325,0,0,0-6.9.374,4.779,4.779,0,0,0,2.643,6.883c2.552.964,6.941,1,8.839-1.312,2.668-3.252-1.257-6.519-3.837-7.989a.5.5,0,0,0-.505.863c2,1.142,5.466,3.424,3.78,6.211-1.065,1.758-3.715,1.862-5.518,1.743-2.649-.175-5.625-1.633-4.974-4.8a3.276,3.276,0,0,1,5.766-1.27c.419.489,1.124-.221.707-.707Z" transform="translate(-24.708 -11.614)"/><path d="M110.147,60.569v-.376a.5.5,0,0,0-1,0v.376a.5.5,0,0,0,1,0Z" transform="translate(-24.708 -11.614)"/><path d="M112.756,66.919c-2.586-3.185-6.8-1.461-9.157,1.047-.969,1.031-2.931,2.864-2.647,4.475s2.7,3.141,4.033,3.763a6.605,6.605,0,1,0,5.8-11.869c-.565-.308-1.07.555-.5.864a5.88,5.88,0,0,1,3.033,6.573,5.79,5.79,0,0,1-7.223,3.8,7.472,7.472,0,0,1-3.619-2.5c-.906-1.6.567-3.006,1.564-4.116,1.985-2.207,5.627-4.275,8.013-1.337.406.5,1.11-.212.707-.707Z" transform="translate(-24.708 -11.614)"/><path d="M109.394,72.229v-.376a.5.5,0,0,0-1,0v.376a.5.5,0,0,0,1,0Z" transform="translate(-24.708 -11.614)"/><path d="M29.222,81.82a7.14,7.14,0,0,0,1.035,5.591.5.5,0,0,0,.932-.252l-.029-1.014a.5.5,0,0,0-1,0l.029,1.014.932-.253a6.127,6.127,0,0,1-.935-4.82c.138-.628-.826-.9-.964-.266Z" transform="translate(-24.708 -11.614)"/><path d="M30.811,82.887c21.9-6.737,44.949-4.584,67.508-4.979,5.741-.1,11.449-.44,17.164-.979a9.878,9.878,0,0,1,4.11.063l1.873,1.412-.593,2.312c-.262.282-1.735.289-2.161.36q-4.422.734-8.852,1.4-17.9,2.688-35.963,4.161Q53.824,88.28,33.671,88.414a.5.5,0,0,0,0,1A542,542,0,0,0,113.039,83q2.322-.361,4.641-.743c1.1-.182,3.473-.114,4.324-.719a2.594,2.594,0,0,0,.624-3c-1.642-4.642-9.226-2.365-12.69-2.119-12.72.905-25.477.381-38.215.454-13.882.079-27.835.941-41.178,5.046-.613.189-.352,1.155.266.965Z" transform="translate(-24.708 -11.614)"/><path d="M42.357,56.443a68.242,68.242,0,0,1-3.169-20.27c-.007-3.3.21-6.592.257-9.89.018-1.186.407-3.244-1.21-3.391-.64-.058-.636.942,0,1,.381.035.032,15.9.157,17.5a69.335,69.335,0,0,0,3,15.321c.191.612,1.157.351.964-.266Z" transform="translate(-24.708 -11.614)"/><path d="M36.045,14.663a64.822,64.822,0,0,0,1.021,11.418c.693,3.034,2.814,2.224,5.408,2.072,4.071-.238,8.2.508,12.245.907q6.374.627,12.761,1.105,12.774.954,25.582,1.308,6.4.177,12.807.2c1.293.006,2.654-.116,3.941,0,1.229.112,1.007-.141,1.5.947a7.454,7.454,0,0,0,1.635,2.811.507.507,0,0,0,.708,0c4.978-5.662,2.555-13.586-.213-19.706-1.466-3.241-3.632-4.312-7.132-4.085a113.823,113.823,0,0,0-12.869,1.886c-18.536,3.38-37.348,8.941-56.29,5.334-.629-.119-.9.844-.265.965,15.666,2.983,31.366-.227,46.741-3.356,3.964-.807,7.929-1.61,11.914-2.306s8.347-1.807,12.4-1.567c4.684.277,6.307,7.086,7.163,10.922a14.842,14.842,0,0,1,.116,6.861,7.322,7.322,0,0,1-1.029,2.656c-1.489,1.768-2.032-.2-1.91-1.872a.5.5,0,0,0-.5-.5q-21.431.129-42.826-1.393c-7-.5-13.98-1.235-20.969-1.912a39.2,39.2,0,0,0-4.595-.242c-2.268.048-5.1.714-5.507-2.365-.446-3.346-.693-6.719-.838-10.091-.028-.641-1.028-.644-1,0Z" transform="translate(-24.708 -11.614)"/><path d="M111.03,30.029a2.447,2.447,0,0,0-1.989-.359.509.509,0,0,0-.367.482,205.659,205.659,0,0,0-.761,20.634.5.5,0,0,0,1,0c-.046-3.443-.018-6.885.109-10.327q.091-2.457.243-4.912c.037-.6,0-5.422,1.26-4.655.551.336,1.054-.528.5-.863Z" transform="translate(-24.708 -11.614)"/><path d="M110.958,31.994q-.388,10.721-1.045,21.429c-.04.643.961.641,1,0q.657-10.707,1.045-21.429c.024-.643-.976-.643-1,0Z" transform="translate(-24.708 -11.614)"/><path d="M44.379,27.372a14.973,14.973,0,0,0-2.649,6.549,47.7,47.7,0,0,0,.433,8.827A162.022,162.022,0,0,0,44.9,60.7c.131.63,1.1.363.964-.265a159.878,159.878,0,0,1-2.61-16.715c-.254-2.529-.5-5.079-.568-7.622a13.982,13.982,0,0,1,2.553-8.22c.343-.547-.522-1.049-.863-.5Z" transform="translate(-24.708 -11.614)"/><path d="M68.167,76.233l.033.128.734.3a24.1,24.1,0,0,1-.4-5.1c-.155-2.471-.914-5.012-.534-7.475.1-.63-.867-.9-.965-.266-.4,2.6.336,5.147.5,7.741.1,1.65-.059,3.763.433,5.363a.5.5,0,0,0,.734.3c.294-.2.316-.369.427-.725.191-.616-.774-.879-.964-.266Z" transform="translate(-24.708 -11.614)"/><path d="M70.19,59.1a22.678,22.678,0,0,0-5.321,7.248c-.269.58.593,1.089.864.5A21.963,21.963,0,0,1,70.9,59.81c.477-.435-.232-1.14-.707-.707Z" transform="translate(-24.708 -11.614)"/><path d="M69.347,58.842c-.557.817-1.164,2.12-.6,3.083a1.541,1.541,0,0,0,2.512.092c1.407-1.533.954-5.178-1.522-5.242a.5.5,0,0,0,0,1c1.311.034,1.524,2.009,1.154,2.941-.249.628-1.394,1.493-1.345.219a3.2,3.2,0,0,1,.662-1.588c.363-.533-.5-1.034-.864-.505Z" transform="translate(-24.708 -11.614)"/><path d="M79.248,51.154c-1.506-1.4-3.253.543-3.717,1.984-.642,1.993.154,4.317,2.354,4.8,4.53,1,5.146-7.782.668-8.446-.63-.094-.9.87-.266.964a2.815,2.815,0,0,1,2.326,3c.027,1.106-.281,3.052-1.529,3.476a2.239,2.239,0,0,1-2.72-1.7A3.383,3.383,0,0,1,76.5,53.4c.177-.525,1.144-2.383,2.046-1.543.47.438,1.179-.268.707-.707Z" transform="translate(-24.708 -11.614)"/><path d="M77.8,60.192l.05-1.3c.022-.552-.881-.694-.982-.133-.445,2.481-2.811,3.453-4.866,4.388-1.065.485-3.168,1.158-3.186,2.573a.505.505,0,0,0,.368.482.673.673,0,0,0,.786-.243.517.517,0,0,0,0-.707l-.08-.094c-.418-.491-1.122.219-.707.707l.079.094V65.25l.187-.014.367.482c.009-.7,2.165-1.47,2.691-1.71a19.324,19.324,0,0,0,2.713-1.362,5.538,5.538,0,0,0,2.612-3.623l-.982-.133-.05,1.3c-.025.644.975.643,1,0Z" transform="translate(-24.708 -11.614)"/><path d="M79.3,57.371a18.392,18.392,0,0,1-10.389,10.3c-.592.232-.334,1.2.266.964a19.484,19.484,0,0,0,11.087-11c.24-.6-.727-.857-.964-.266Z" transform="translate(-24.708 -11.614)"/><path d="M79.5,58.225c-1.161.1-1.241.96-1.255,2.02-.036,2.843.3,5.747.451,8.588l.633-.482c-2.213-.361-4.217.085-5.385,2.153-1.365,2.416-.571,5.213.2,7.677.192.612,1.158.351.964-.265-1.078-3.442-1.792-9.539,3.954-8.6a.507.507,0,0,0,.633-.482c-.045-.86-.761-9.558-.2-9.608.636-.057.642-1.057,0-1Z" transform="translate(-24.708 -11.614)"/><path d="M80.682,66.587l-.824.778a.511.511,0,0,0-.079.606,20.879,20.879,0,0,1,2.355,8.014c.055.636,1.055.642,1,0a22.235,22.235,0,0,0-2.491-8.519l-.078.606.824-.778c.469-.443-.239-1.149-.707-.707Z" transform="translate(-24.708 -11.614)"/><path d="M90.12,49.511a2.413,2.413,0,0,0-2.387,2.944A4.609,4.609,0,0,0,89.2,54.834a3.853,3.853,0,0,0,2.152,1.371c1.662.093,2.71-1.785,2.812-3.223a4.129,4.129,0,0,0-2.176-4.011c-.574-.288-1.081.575-.505.864a3.181,3.181,0,0,1,1.084,4.684c-1.031,1.269-2.416-.01-3.163-.922-.728-.89-1.192-3.292.721-3.086.639.069.634-.931,0-1Z" transform="translate(-24.708 -11.614)"/><path d="M92.138,57.942a35.9,35.9,0,0,1-3.5,17.849c-.278.577.584,1.085.863.5a36.911,36.911,0,0,0,3.64-18.353c-.038-.64-1.038-.644-1,0Z" transform="translate(-24.708 -11.614)"/><path d="M92.277,63.836A82.243,82.243,0,0,1,96.5,76.469a.5.5,0,0,0,.964-.266A83.7,83.7,0,0,0,93.14,63.331c-.252-.59-1.114-.081-.863.5Z" transform="translate(-24.708 -11.614)"/><path d="M91.679,58.737a13.257,13.257,0,0,1-7.49-5.979.5.5,0,0,0-.863.5A14.311,14.311,0,0,0,91.414,59.7c.614.2.878-.77.265-.964Z" transform="translate(-24.708 -11.614)"/><path d="M95.329,60.258c-.212-1.954,1.358-3.5,2.093-5.19a13.384,13.384,0,0,0,1.054-5.025c.019-.644-.981-.643-1,0a13,13,0,0,1-1.964,6.465,5.8,5.8,0,0,0-1.183,3.75c.069.633,1.07.64,1,0Z" transform="translate(-24.708 -11.614)"/><path d="M60.275,52.858c-.568-1.293-2.34-.831-2.877.223-.633,1.244-.469,3.57.841,4.324a2.822,2.822,0,0,0,3.489-.772c1.069-1.41.579-3.384-.364-4.712-.37-.52-1.238-.021-.864.505.945,1.329,1.413,4.166-.935,4.285-1.144.058-1.43-.857-1.458-1.851a2.629,2.629,0,0,1,.193-1.327c.212-.388.86-.744,1.112-.17s1.12.079.863-.505Z" transform="translate(-24.708 -11.614)"/><path d="M60.077,59.085A49.41,49.41,0,0,1,58.5,78.058l.964.266,2.928-11.057-.914.12c1.037,1.663,2.062,3.335,3.11,4.991.423.669.646,1.249,1.418,1.476a.516.516,0,0,0,.564-.23.7.7,0,0,0,.11-.771.513.513,0,0,0-.483-.367h-.159a.5.5,0,0,0,0,1c.248,0-1.675-3.36-1.882-3.692l-1.814-2.912a.506.506,0,0,0-.914.119L58.5,78.058a.5.5,0,0,0,.964.266,50.131,50.131,0,0,0,1.612-19.239c-.07-.633-1.07-.64-1,0Z" transform="translate(-24.708 -11.614)"/><path d="M59.537,63.651,55.482,58.7c-.408-.5-1.112.212-.708.707l4.056,4.956c.408.5,1.112-.213.707-.707Z" transform="translate(-24.708 -11.614)"/><path d="M61.581,63.842a75.426,75.426,0,0,1,6.33-10.2c.383-.518-.485-1.018-.863-.5a75.46,75.46,0,0,0-6.331,10.2c-.294.571.569,1.078.864.5Z" transform="translate(-24.708 -11.614)"/><path d="M28.064,84.416c-4.4-.386-4.008,6.341-1.5,8.287,1.294,1,2.318-.129,2.682-1.381a5.533,5.533,0,0,0-1.16-5.086c-.3-.367-.823-.034-.853.353l-.114,1.434c-.051.642.949.639,1,0l.114-1.434-.854.354a4.545,4.545,0,0,1,1.074,2.769,2.39,2.39,0,0,1-.171,1.345q-.057.553-.8.268-.78.408-.951-.316a5.479,5.479,0,0,1-.872-2.96,2.368,2.368,0,0,1,2.408-2.633c.641.057.637-.944,0-1Z" transform="translate(-24.708 -11.614)"/><path d="M27.449,91.88a58.9,58.9,0,0,0-.176,18.537c.2,1.171.472,2.639,1.777,3.065a1.743,1.743,0,0,0,2.268-1.152c.232-.6-.734-.861-.965-.266l-1.986-1.119q-.171-.982-.28-1.974c-.079-.644-.142-1.289-.2-1.935q-.208-2.422-.225-4.855a63.863,63.863,0,0,1,.749-10.035c.1-.63-.868-.9-.964-.266Z" transform="translate(-24.708 -11.614)"/><path d="M30.328,90.417a12.531,12.531,0,0,1-1.741-5.443l-.932.253a51.637,51.637,0,0,1,5.753,19.707c.054.636,1.055.642,1,0a52.943,52.943,0,0,0-5.89-20.212.5.5,0,0,0-.931.252,13.946,13.946,0,0,0,1.877,5.947.5.5,0,0,0,.864-.5Z" transform="translate(-24.708 -11.614)"/><path d="M35.728,81.867a4.493,4.493,0,0,0-.57,6.229c.6.709,1.7,1.5,2.547.725,1.057-.964.133-2.258-.676-2.98-.479-.428-1.188.277-.707.707.439.392.869.6.48,1.121s-.511.211-.843-.165a3.339,3.339,0,0,1-.749-1.653,3.407,3.407,0,0,1,1.225-3.277c.5-.4-.209-1.106-.707-.707Z" transform="translate(-24.708 -11.614)"/><path d="M36.905,88.84a22.137,22.137,0,0,0,1.463,19.469.508.508,0,0,0,.785.1,1.428,1.428,0,0,0,.627-1.526c-.081-.629-1.082-.637-1,0l-.334.819.785.1a21.193,21.193,0,0,1-1.362-18.7c.239-.6-.728-.857-.964-.266Z" transform="translate(-24.708 -11.614)"/><path d="M36.456,88.9c4.492,5.545,3.4,13.405,6.132,19.727.254.589,1.116.081.863-.5-2.794-6.47-1.666-14.224-6.288-19.929-.4-.5-1.109.211-.707.707Z" transform="translate(-24.708 -11.614)"/><path d="M47.645,80.193C45.62,81.93,44.6,86,46.9,88.008a1.612,1.612,0,0,0,2.565-.518,3.63,3.63,0,0,0,.228-2.157c-.115-1.239-.288-2.475-.432-3.711-.074-.631-1.075-.639-1,0,.123,1.06.249,2.12.37,3.181a5.24,5.24,0,0,1,.128,1.416q-1.137,1.472-1.555.556a3.28,3.28,0,0,1-.345-.76,4.784,4.784,0,0,1,1.5-5.115c.489-.419-.221-1.124-.707-.707Z" transform="translate(-24.708 -11.614)"/><path d="M48.315,84.376a25.762,25.762,0,0,0-.261,19.521.508.508,0,0,0,.914.12,2.879,2.879,0,0,0,.609-2.053c-.024-.642-1.024-.645-1,0l-.472,1.548.914.119a24.96,24.96,0,0,1,.26-18.989c.25-.592-.718-.851-.964-.266Z" transform="translate(-24.708 -11.614)"/><path d="M49.486,87.758q1.892,9.489,3.094,19.092c.078.631,1.079.639,1,0q-1.215-9.735-3.13-19.358c-.126-.631-1.09-.364-.964.266Z" transform="translate(-24.708 -11.614)"/><path d="M56.168,88.331a3.444,3.444,0,0,0,1.808,5.453.525.525,0,0,0,.565-.23A4.039,4.039,0,0,0,57.2,87.678c-.569-.3-1.075.563-.5.863a3.047,3.047,0,0,1,.979,4.508l.565-.23a2.439,2.439,0,0,1-1.367-3.781c.406-.494-.3-1.2-.707-.707Z" transform="translate(-24.708 -11.614)"/><path d="M56.428,88.731a58.058,58.058,0,0,0-2.173,12.323c-.125,1.977-.659,5.684,2.348,5.52.64-.035.645-1.035,0-1-.729.04-1.352-1.671-1.448-2.224a8.919,8.919,0,0,1,.071-1.837c.083-1.508.233-3.009.441-4.505A58.314,58.314,0,0,1,57.392,89a.5.5,0,0,0-.964-.265Z" transform="translate(-24.708 -11.614)"/><path d="M57.59,95.244A20.49,20.49,0,0,1,60.509,108.7c-.078.637.923.632,1,0A21.388,21.388,0,0,0,58.453,94.74c-.336-.548-1.2-.046-.863.5Z" transform="translate(-24.708 -11.614)"/><path d="M67.62,83.416a3.9,3.9,0,0,0-.9,6.181.505.505,0,0,0,.785-.1,7.2,7.2,0,0,0,.485-6.106c-.223-.6-1.19-.339-.965.265a6.215,6.215,0,0,1-.384,5.337l.786-.1a2.9,2.9,0,0,1,.7-4.611c.577-.286.071-1.148-.5-.863Z" transform="translate(-24.708 -11.614)"/><path d="M66.12,88.583a36.77,36.77,0,0,0-1.257,20.62c.14.627,1.105.362.964-.266a35.784,35.784,0,0,1,1.258-20.088c.217-.607-.749-.868-.965-.266Z" transform="translate(-24.708 -11.614)"/><path d="M66.668,88.3a30.112,30.112,0,0,1,3.2,15.916c-.046.642.954.639,1,0A31.1,31.1,0,0,0,67.532,87.8c-.291-.574-1.154-.069-.864.505Z" transform="translate(-24.708 -11.614)"/><path d="M80.094,79.727c-.548,1-1.189,2.28-.647,3.417a2.011,2.011,0,0,0,2.169,1.149c.984-.258,1.244-1.385,1.147-2.27a3.55,3.55,0,0,0-1.755-2.657.516.516,0,0,0-.606.078,2.608,2.608,0,0,0-.95,1.812c-.077.638.924.632,1,0a1.64,1.64,0,0,1,.657-1.105l-.6.078a2.529,2.529,0,0,1,1.19,1.508c.121.439.247,1.431-.343,1.591-.48.13-.974-.4-1.074-.82a3.457,3.457,0,0,1,.681-2.276c.309-.565-.554-1.07-.864-.5Z" transform="translate(-24.708 -11.614)"/><path d="M80.784,82.565a43.361,43.361,0,0,0-1.939,21.053c.1.634,1.06.364.964-.266a42.353,42.353,0,0,1,1.939-20.521c.214-.609-.752-.87-.964-.266Z" transform="translate(-24.708 -11.614)"/><path d="M80.865,83.886,80.67,81.93l-.982.133a66.286,66.286,0,0,1,4.431,21.756c.022.642,1.022.645,1,0A67.15,67.15,0,0,0,80.652,81.8c-.185-.48-1.042-.475-.982.133l.195,1.956c.063.635,1.064.641,1,0Z" transform="translate(-24.708 -11.614)"/><path d="M89.141,83.543a1.418,1.418,0,0,0-.357,2.176,1.738,1.738,0,0,0,2.621-.232,2.842,2.842,0,0,0,.625-1.66c.042-.5.136-1.373-.248-1.753a1.717,1.717,0,0,0-2.536.42c-.356.538.509,1.04.863.5a.715.715,0,0,1,1.023-.171l-.146-.353c.077.844.231,2.021-.577,2.578-.276.19-.715.3-.909-.05a.393.393,0,0,1,.146-.6c.588-.257.08-1.119-.5-.864Z" transform="translate(-24.708 -11.614)"/><path d="M89.028,83.792a50.616,50.616,0,0,0-.2,18.6.506.506,0,0,0,.615.349,1.261,1.261,0,0,0,1.111-1.487c-.029-.641-1.029-.644-1,0l-.376.523.615.349a49.137,49.137,0,0,1,.2-18.065c.124-.628-.84-.9-.964-.265Z" transform="translate(-24.708 -11.614)"/><path d="M90.943,86.592a62.028,62.028,0,0,1,2.451,16.479.5.5,0,0,0,1,0,62.992,62.992,0,0,0-2.487-16.745.5.5,0,0,0-.964.266Z" transform="translate(-24.708 -11.614)"/><path d="M103.662,74.517a4.235,4.235,0,0,0-.95,2.456,2.335,2.335,0,0,0,.99,2.291,1.756,1.756,0,0,0,1.989-.525,3.407,3.407,0,0,0,.509-2.67c-.062-.634-1.063-.641-1,0a4.29,4.29,0,0,1-.012,1.512c-.145.541-.683,1.064-1.169.6-.747-.708-.169-2.294.351-2.96.391-.5-.312-1.215-.708-.708Z" transform="translate(-24.708 -11.614)"/><path d="M104.564,77.494c-2.323,6.72-4.519,13.623-3.152,20.786.1.511.827.44.964,0l.685-2.194c.192-.616-.773-.879-.965-.266l-.684,2.2h.964c-1.329-6.964.9-13.735,3.152-20.256.211-.609-.755-.871-.964-.265Z" transform="translate(-24.708 -11.614)"/><path d="M102.781,79.881a123.583,123.583,0,0,1,4.528,19.934c.09.635,1.054.365.965-.266a123.716,123.716,0,0,0-4.529-19.934c-.193-.611-1.159-.35-.964.266Z" transform="translate(-24.708 -11.614)"/><path d="M95.345,84.416a4.011,4.011,0,0,0,.747,4.69.5.5,0,0,0,.707,0,2.97,2.97,0,0,0,.916-2.21c.027-.587-.808-.646-.983-.133a36.164,36.164,0,0,0-1.939,9.942c-.08,1.686-.751,5.451,1,6.516a.508.508,0,0,0,.606-.079l.177-.182c.449-.462-.258-1.17-.707-.707.4-.41-.107-3.119-.111-3.725a33.8,33.8,0,0,1,.17-3.642,35.328,35.328,0,0,1,1.77-7.857l-.982-.133q-1.854.646-.506-1.975c.263-.582-.6-1.091-.864-.505Z" transform="translate(-24.708 -11.614)"/><path d="M96.243,90.425A42.115,42.115,0,0,1,101,104c.107.633,1.071.364.964-.266a42.881,42.881,0,0,0-4.862-13.811c-.313-.563-1.177-.059-.863.5Z" transform="translate(-24.708 -11.614)"/><path d="M112.744,77.775c-1.044.8-3.872,4.277-1.573,5.235a1.749,1.749,0,0,0,2.163-.855c.7-1.343-.271-2.748-.07-4.125.092-.629-.871-.9-.964-.266a5.189,5.189,0,0,0,.076,1.8c.135.7.563,1.989-.241,2.448-.523.3-.823-.164-.7-.68a4.346,4.346,0,0,1,.379-.983,5.1,5.1,0,0,1,1.435-1.707c.5-.386.006-1.255-.5-.863Z" transform="translate(-24.708 -11.614)"/><path d="M111.139,83.777a40.377,40.377,0,0,0-.43,14.215c.093.634,1.056.364.964-.266a38.854,38.854,0,0,1,.43-13.684c.132-.628-.832-.9-.964-.265Z" transform="translate(-24.708 -11.614)"/><path d="M111.432,81.01q2.236,10.564,3.564,21.284c.077.63,1.078.638,1,0q-1.34-10.851-3.6-21.55c-.133-.629-1.1-.363-.964.266Z" transform="translate(-24.708 -11.614)"/><path d="M42.674,93.541c-.027,1.3-.387,3.144.434,4.289a1.678,1.678,0,0,0,2.4.466,4.551,4.551,0,0,0,1.139-3.644,2.171,2.171,0,0,0-2.111-1.913.5.5,0,0,0,0,1c1.111,0,1.248,1.269,1.056,2.107-.139.61-.5,2.044-1.345,1.667-1.058-.472-.595-3.039-.576-3.972a.5.5,0,0,0-1,0Z" transform="translate(-24.708 -11.614)"/><path d="M44.891,98.434c-2.33,4.783-4.122,10.632-3.556,16.022.275,2.621,3.19,6.018,5.662,3.218.425-.48-.28-1.19-.707-.707-1.5,1.7-3.083-.075-3.652-1.275a6.351,6.351,0,0,1-.349-2.737,28.723,28.723,0,0,1,.5-5.067,33.948,33.948,0,0,1,2.97-8.949c.28-.576-.582-1.084-.864-.5Z" transform="translate(-24.708 -11.614)"/><path d="M45.745,98.354c.894,2.152,2.641,3.73,3.749,5.764a17.162,17.162,0,0,1,1.995,9.111c-.03.643.97.642,1,0a18.187,18.187,0,0,0-1.372-8.041c-1.111-2.612-3.337-4.523-4.408-7.1-.243-.586-1.211-.329-.964.266Z" transform="translate(-24.708 -11.614)"/><path d="M32.435,105.985a3.544,3.544,0,0,0,3.252,1.554,2.938,2.938,0,0,0,2.465-2.251,2.474,2.474,0,0,0-1.334-2.707,2.268,2.268,0,0,0-1.547-.219c-.709.187-.939,1-1.281,1.585a.5.5,0,0,0,.863.5c.372-.639.593-1.4,1.46-1.007a1.466,1.466,0,0,1,.779,1.885c-.655,1.749-2.846,1.411-3.794.15-.382-.508-1.251-.01-.863.5Z" transform="translate(-24.708 -11.614)"/><path d="M33.945,108.6c-3.592,3.488-3,8.547-1.557,12.908.345,1.044.626,3.24,2.125,3.276,1.527.037,1.775-1.738,1.759-2.842a.5.5,0,0,0-1,0c.007.466-.609,1.573-1.21,1.329a9.1,9.1,0,0,1-.709-2.029,24.023,24.023,0,0,1-.976-3.728c-.473-2.977.045-6.042,2.275-8.207.462-.449-.245-1.156-.707-.707Z" transform="translate(-24.708 -11.614)"/><path d="M34.468,108.141a16.884,16.884,0,0,1,2.767,11.47c-.071.638.93.633,1,0a17.757,17.757,0,0,0-2.9-11.974c-.355-.534-1.221-.034-.864.5Z" transform="translate(-24.708 -11.614)"/><path d="M59.1,102.408a5.015,5.015,0,0,0-3.28,7.93c.874,1.13,2.309,1.7,3.169.268,1.053-1.75.7-4.145-.073-5.9-.259-.588-1.121-.08-.864.5a5.418,5.418,0,0,1,.449,3.78c-.354.865-1.5,1.411-2.107.424a4.019,4.019,0,0,1,2.971-6.04c.633-.11.365-1.074-.265-.965Z" transform="translate(-24.708 -11.614)"/><path d="M56.973,106.822c-3.11,3.4-5.823,8.1-5.981,12.827-.034.992.119,3.52,1.456,3.8,1.189.245,1.87-1.758,2.294-2.467a.5.5,0,0,0-.863-.505c-.233.389-.54,1.305-.9,1.505-.646.36-.823-.883-.94-1.6a11.336,11.336,0,0,1,.9-5,22.492,22.492,0,0,1,4.744-7.852c.434-.474-.271-1.183-.707-.707Z" transform="translate(-24.708 -11.614)"/><path d="M57.789,110.174A15.965,15.965,0,0,1,61.374,120a.5.5,0,0,0,1,0A17.111,17.111,0,0,0,58.5,109.466c-.4-.5-1.108.211-.707.708Z" transform="translate(-24.708 -11.614)"/><path d="M62.646,92.527c-1.531,1.748-3.141,6.576.341,7.332,2.5.542,3.284-3.151.825-3.389-.64-.062-.636.938,0,1a.749.749,0,0,1,.373,1.2,1.225,1.225,0,0,1-1.4.053,2.141,2.141,0,0,1-.886-1.911,5.408,5.408,0,0,1,1.454-3.577c.423-.482-.282-1.192-.707-.707Z" transform="translate(-24.708 -11.614)"/><path d="M64.012,99.921A38.51,38.51,0,0,0,62.2,114.954c.1,1.226.577,7.178,3.086,4.731.462-.45-.245-1.157-.707-.707l-1-.977q-.189-1.062-.3-2.135c-.067-.607-.116-1.215-.152-1.825a37.163,37.163,0,0,1,.016-4.576,38.22,38.22,0,0,1,1.828-9.278c.2-.614-.768-.877-.965-.266Z" transform="translate(-24.708 -11.614)"/><path d="M63.807,99.877a43.476,43.476,0,0,1,5.887,19.365c.04.64,1.04.644,1,0a44.646,44.646,0,0,0-6.024-19.87.5.5,0,0,0-.863.5Z" transform="translate(-24.708 -11.614)"/><path d="M72.331,94.271c-.677,1.842-.416,4.695,2.051,4.937,1.907.186,3.222-1.947,3.317-3.619a3.15,3.15,0,0,0-2.838-3.531,2.908,2.908,0,0,0-3.137,2.7.5.5,0,0,0,1,0,1.889,1.889,0,0,1,2.014-1.7A2.09,2.09,0,0,1,76.707,95.3,3,3,0,0,1,75,98.154,1.693,1.693,0,0,1,73,96.744a3.954,3.954,0,0,1,.3-2.207c.222-.605-.744-.866-.964-.266Z" transform="translate(-24.708 -11.614)"/><path d="M74.714,98.765a13.177,13.177,0,0,0-1.428,13.685c.271.583,1.133.076.864-.505a12.185,12.185,0,0,1,1.427-12.676c.39-.511-.478-1.01-.863-.5Z" transform="translate(-24.708 -11.614)"/><path d="M75.539,99.655a49.909,49.909,0,0,1,4.378,18.834c.022.642,1.022.645,1,0A51.234,51.234,0,0,0,76.4,99.15c-.264-.586-1.126-.078-.864.5Z" transform="translate(-24.708 -11.614)"/><path d="M83.69,94.76c-3.312.34-3.307,4.7-.865,6.262,1.221.781,2.275-.318,2.876-1.349a5.3,5.3,0,0,0,.386-4.454c-.214-.6-1.181-.342-.964.266a4.327,4.327,0,0,1,.191,2.446c-.128.586-.575,1.858-1.2,2.148-1.811.837-3.317-4.022-.42-4.319.634-.065.64-1.066,0-1Z" transform="translate(-24.708 -11.614)"/><path d="M84.046,99.2a39.376,39.376,0,0,0-.425,17.394.5.5,0,0,0,.615.349,2.166,2.166,0,0,0,1.362-1.2c.288-.573-.575-1.08-.864-.5l-.763.745.615.349a38.143,38.143,0,0,1,.424-16.863.5.5,0,0,0-.964-.265Z" transform="translate(-24.708 -11.614)"/><path d="M84.071,99.307a18.7,18.7,0,0,1,3.269,6.229c.313,1.067,1.682,6.455.325,6.867-.614.187-.352,1.153.266.965,1.992-.606,1.158-4.2.913-5.714A19.729,19.729,0,0,0,84.778,98.6c-.4-.507-1.1.206-.707.707Z" transform="translate(-24.708 -11.614)"/><path d="M91.907,95.669c-1.019,1.556-2.015,3.3-1.827,5.232.116,1.183.755,2.719,2,3.109,1.3.407,1.936-.921,2.216-1.972a6.681,6.681,0,0,0-.654-4.93c-.3-.567-1.167-.063-.863.5a5.722,5.722,0,0,1,.735,2.9A3.264,3.264,0,0,1,93.262,102q-.075.6-.878.276-1.008.442-1.135-.626c-.665-1.971.479-3.881,1.522-5.473.353-.54-.512-1.042-.864-.505Z" transform="translate(-24.708 -11.614)"/><path d="M91.518,102.7c-.251,2.88-.525,5.76-.754,8.642-.12,1.515-.2,2.912.977,4.011a.506.506,0,0,0,.785-.1l1.018-1.763a.5.5,0,0,0-.864-.5l-1.018,1.763.786-.1c-1.407-1.319-.585-4.434-.446-6.033l.516-5.913c.056-.641-.944-.637-1,0Z" transform="translate(-24.708 -11.614)"/><path d="M92.92,102.277A37,37,0,0,1,98.7,117.729c.085.629,1.086.637,1,0a38.112,38.112,0,0,0-5.919-15.957c-.351-.536-1.218-.036-.864.5Z" transform="translate(-24.708 -11.614)"/><path d="M104.427,89.978c-4.578-.472-3.7,8.041-.019,8.753,4.453.86,3.135-7.529-1.037-6.073-.6.21-.344,1.177.266.964,1.553-.542,2.708,1.29,2.574,2.681-.2,2.114-2.18,1.651-2.994.4-.989-1.526-1.753-6.027,1.21-5.721.64.066.635-.935,0-1Z" transform="translate(-24.708 -11.614)"/><path d="M103.249,96.455a51.335,51.335,0,0,0-2.381,11.285c-.238,2.577-.942,6.214.863,8.381a.5.5,0,0,0,.606.078l1.145-.7c.549-.334.047-1.2-.5-.864-1.516.922-1.325-2.778-1.3-3.707.041-1.522.152-3.044.336-4.556a50.55,50.55,0,0,1,2.2-9.655c.2-.613-.764-.875-.964-.266Z" transform="translate(-24.708 -11.614)"/><path d="M103.505,96.434l2.585,9.157c.9,3.171,2.571,6.893,1.726,10.2a.5.5,0,0,0,.965.266c.776-3.039-.386-5.982-1.209-8.9l-3.1-10.988a.5.5,0,0,0-.964.266Z" transform="translate(-24.708 -11.614)"/><path d="M119.379,92.393a3.011,3.011,0,0,0-3.932,4.544.5.5,0,0,0,.707,0,4.427,4.427,0,0,0,1.134-3.268c-.043-.639-1.043-.643-1,0a3.419,3.419,0,0,1-.841,2.561h.707a2.1,2.1,0,0,1-.054-2.825,2.127,2.127,0,0,1,2.774-.149c.521.379,1.021-.488.505-.863Z" transform="translate(-24.708 -11.614)"/><path d="M115.836,96.152l-2.972,18.672a.5.5,0,0,0,.835.487l.792-.621c.506-.4-.206-1.1-.707-.707l-.792.621.836.486L116.8,96.418c.1-.63-.864-.9-.965-.266Z" transform="translate(-24.708 -11.614)"/><path d="M115.167,97.508a36.456,36.456,0,0,1,4.441,17.6.5.5,0,0,0,1,0A37.573,37.573,0,0,0,116.031,97c-.307-.566-1.171-.061-.864.5Z" transform="translate(-24.708 -11.614)"/><path d="M127.7,118.24a.5.5,0,0,0,0-1,.5.5,0,0,0,0,1Z" transform="translate(-24.708 -11.614)"/></svg>